<svg width="160" height="47" viewBox="0 0 160 47" fill="none" xmlns="http://www.w3.org/2000/svg">
<path fill-rule="evenodd" clip-rule="evenodd" d="M8.37625 0.786426C5.25793 1.53576 2.53277 3.68328 1.16223 6.47165C-2.43572 13.7916 2.74376 22.155 10.8749 22.155C14.6369 22.155 17.9205 20.3979 20.0118 17.2657C22.7672 13.1392 22.1889 7.33046 18.6705 3.79496C17.1361 2.25286 15.6274 1.38385 13.5839 0.864681C11.7777 0.405956 10.0666 0.380138 8.37625 0.786426ZM32.8199 0.773016C28.1075 1.90902 24.7605 5.82399 24.4398 10.5746C24.2966 12.6999 24.6077 14.2408 25.5718 16.1785C28.2552 21.5723 34.854 23.7275 40.2882 20.9849C42.5888 19.8239 44.6775 17.4446 45.5622 14.9777C46.1654 13.2953 46.2947 10.3958 45.8433 8.67321C45.1235 5.92587 43.0887 3.26278 40.6703 1.90222C38.4076 0.629515 35.2806 0.179796 32.8199 0.773016ZM125.564 2.69438C123.38 3.05463 121.868 4.01872 121.052 5.57101C120.464 6.68981 120.482 8.69363 121.093 9.94631C121.836 11.47 122.914 12.1841 126.327 13.4108C127.39 13.793 128.564 14.2926 128.936 14.5208C129.748 15.0191 130.375 15.9774 130.376 16.7219C130.377 17.4654 129.313 18.6213 128.395 18.8744C126.555 19.382 123.296 18.9275 121.802 17.9546C121.338 17.6532 121.319 17.669 120.714 18.8588C120.376 19.5249 120.099 20.1501 120.099 20.2484C120.099 20.539 122.404 21.4793 123.874 21.7889C129.355 22.9423 133.783 20.5034 133.798 16.3222C133.808 13.5307 132.443 12.1247 128.261 10.6162C127.485 10.3364 126.521 9.96813 126.119 9.79801C123.695 8.77288 123.239 6.77427 125.189 5.73013C126.474 5.04244 129.766 5.34025 132.241 6.36798C132.558 6.49987 132.593 6.36518 132.593 5.00802V3.50175L131.636 3.18613C130.663 2.8651 128.067 2.46702 127.152 2.49844C126.875 2.50784 126.16 2.59611 125.564 2.69438ZM56.0155 12.1593V21.6824H59.5276C65.31 21.6824 67.3718 21.2181 68.8997 19.5717C71.3665 16.914 70.8401 13.0195 67.8465 11.7794L67.0828 11.463L67.7043 10.9436C69.6344 9.33068 69.7443 6.17624 67.935 4.32453C66.6177 2.97638 65.8511 2.80826 60.6001 2.71639L56.0155 2.63614V12.1593ZM72.5401 12.1561V21.6824H74.1523H75.7645V18.0799V14.4773H77.5981C79.3691 14.4773 79.4507 14.4975 79.9875 15.0683C80.2934 15.3936 81.2414 17.0147 82.0942 18.6709L83.6451 21.6824H85.4481C86.4398 21.6824 87.2511 21.6356 87.2511 21.5784C87.2511 21.3386 83.3632 14.1347 82.9386 13.5879L82.4753 12.9911L83.4958 12.3832C84.1604 11.9874 84.7293 11.4322 85.1279 10.7903C85.6783 9.90448 85.7393 9.6427 85.7363 8.18847C85.7321 6.27211 85.3169 5.31323 84.0103 4.20245C82.5561 2.96617 81.8387 2.81586 76.9232 2.71739L72.5401 2.62973V12.1561ZM89.4679 12.1757V21.6824H91.08H92.6922V12.1757V2.66896H91.08H89.4679V12.1757ZM95.312 4.17002V5.67109H98.4355H101.559V13.6768V21.6824H103.171H104.783V13.682V5.68149L107.857 5.62625L110.93 5.57101L110.989 4.11999L111.048 2.66896H103.18H95.312V4.17002ZM113.449 12.1757V21.6824H115.061H116.673V12.1757V2.66896H115.061H113.449V12.1757ZM136.624 12.1757V21.6824H138.337H140.049V17.5759V13.4692L144.735 13.523L149.42 13.5767L149.475 17.6296L149.529 21.6824H151.137H152.745V12.1757V2.66896H151.138H149.53L149.475 6.52169L149.42 10.3744L144.735 10.4281L140.049 10.4819V6.57533V2.66896H138.337H136.624V12.1757ZM64.9874 6.33576C65.8368 7.17935 66.0512 8.17526 65.5909 9.13874C65.0746 10.2193 64.1873 10.5451 61.5069 10.6386L59.2398 10.7179V8.19447V5.67109H61.779H64.3181L64.9874 6.33576ZM81.2055 6.02173C82.1712 6.50067 82.6688 7.50619 82.5378 8.71424C82.3171 10.7505 81.4292 11.2751 78.2027 11.2751H75.966V8.47307V5.67109L78.2331 5.67149C79.9877 5.67169 80.6596 5.75074 81.2055 6.02173ZM64.9753 13.6956C65.9454 13.9383 66.7394 14.6623 67.0396 15.5781C67.4773 16.9128 66.477 18.322 64.8451 18.6695C64.3006 18.7856 62.8166 18.8804 61.5474 18.8804H59.2398V16.1785V13.4766H61.6695C63.006 13.4766 64.4934 13.5751 64.9753 13.6956ZM9.56502 24.8138C4.27249 25.6014 0.384559 29.6935 0.0454004 34.8333C-0.171637 38.1233 0.911938 41.0181 3.2135 43.2977C7.48815 47.5315 14.2695 47.5223 18.5621 43.2769C20.856 41.0081 21.9257 38.1303 21.7006 34.8333C21.3902 30.2879 18.3342 26.4938 13.9549 25.2167C12.8051 24.8815 10.5198 24.6717 9.56502 24.8138ZM33.5989 24.8809C30.0355 25.5155 27.1303 27.6541 25.5728 30.7889C23.9957 33.9631 23.9693 37.2943 25.4962 40.4259C27.2676 44.0581 31.275 46.5 35.4652 46.5C36.8299 46.5 39.3588 45.8029 40.6703 45.0652C43.0887 43.7046 45.1235 41.0415 45.8433 38.2942C46.2947 36.5716 46.1654 33.6721 45.5622 31.9897C44.6723 29.5078 42.6033 27.1457 40.3088 25.9919C38.328 24.9958 35.543 24.5346 33.5989 24.8809ZM60.6553 25.3935C56.5342 26.5389 53.9531 30.7016 54.2697 35.6923C54.4781 38.9763 55.8212 41.6688 57.9495 43.0688C59.6052 44.1579 61.3124 44.5582 63.8322 44.4475C65.7717 44.3625 67.5465 43.9956 68.2677 43.5309C68.4777 43.3954 68.4543 43.1682 68.1484 42.3793C67.9388 41.8387 67.7107 41.2389 67.6412 41.0465C67.5231 40.7191 67.4467 40.7243 66.4506 41.1264C65.6705 41.4414 64.9285 41.5611 63.6733 41.5741C62.1369 41.5901 61.8495 41.5313 60.8856 41.0031C59.609 40.3034 58.9555 39.5817 58.2513 38.094C57.7901 37.1194 57.7302 36.7411 57.7294 34.7917C57.7286 32.8333 57.7866 32.4667 58.2564 31.4722C59.6543 28.5113 62.2046 27.4495 65.6885 28.378C67.5922 28.8853 67.5025 28.9184 68.0382 27.5104C68.3054 26.8079 68.4882 26.1976 68.4444 26.154C68.4005 26.1106 67.8306 25.8842 67.1777 25.6512C65.6014 25.0884 62.2318 24.9553 60.6553 25.3935ZM75.4817 25.4837C71.7296 26.674 69.3281 30.3165 69.3188 34.8319C69.3104 38.9152 71.0952 42.0675 74.3089 43.6448C75.8276 44.3903 75.8709 44.3985 78.273 44.3985C80.5917 44.3985 80.764 44.3693 82.0751 43.7525C85.3284 42.2222 87.2558 38.8866 87.2481 34.7997C87.2392 29.9807 84.7926 26.4378 80.7319 25.364C79.2677 24.9768 76.9103 25.0306 75.4817 25.4837ZM132.31 25.4715C128.421 26.745 126.145 30.2597 126.145 34.9919C126.145 40.8636 129.52 44.5048 134.955 44.4956C137.324 44.4916 140.251 43.7955 140.251 43.2361C140.251 43.1274 140.056 42.5072 139.817 41.8575C139.477 40.9305 139.315 40.7057 139.062 40.8132C137.645 41.4148 136.943 41.5661 135.515 41.5771C133.541 41.5921 132.387 41.1064 131.192 39.7578C130.001 38.4151 129.516 36.9773 129.516 34.7917C129.516 31.7213 130.782 29.4563 133.039 28.4846C134.63 27.8 135.93 27.8668 138.959 28.7891C139.326 28.9009 139.436 28.7648 139.816 27.7311C140.055 27.0786 140.251 26.448 140.251 26.3295C140.251 26.2112 139.73 25.915 139.092 25.6714C137.416 25.0306 133.968 24.9289 132.31 25.4715ZM89.509 32.2399C89.5809 38.7455 89.6138 39.2695 90.0168 40.3494C90.6466 42.0372 91.4867 42.9759 93.0527 43.741C94.3721 44.3859 94.4501 44.3985 97.122 44.3985C99.6352 44.3985 99.9326 44.3583 100.964 43.8779C103.369 42.7574 104.452 41.1728 104.786 38.2834C104.894 37.3537 104.983 34.0486 104.983 30.939L104.985 25.285H103.389H101.794L101.727 31.9455L101.66 38.6062L101.145 39.6009C100.392 41.0573 99.3422 41.5901 97.2264 41.5901C95.0901 41.5901 94.0303 41.0519 93.2967 39.5951C92.7942 38.597 92.7927 38.5774 92.7281 31.9397L92.6632 25.285H91.0478H89.4322L89.509 32.2399ZM107.806 34.7917V44.2984H109.634H111.462L111.398 37.5126C111.362 33.7804 111.381 30.7561 111.439 30.7919C111.497 30.8279 113.538 33.8791 115.973 37.5723L120.401 44.2874L121.862 44.2928L123.323 44.2984V34.7917V25.285H121.694H120.064L120.132 31.5704C120.169 35.0275 120.154 37.8275 120.099 37.7924C120.044 37.7576 118.094 34.9332 115.766 31.5162L111.534 25.3034L109.67 25.2942L107.806 25.285V34.7917ZM143.072 34.8918V44.4986H144.684H146.297V34.8918V25.285H144.684H143.072V34.8918ZM149.521 34.7833V44.2984H154.76H160V42.7974V41.2963H156.375H152.75L152.697 33.3407L152.645 25.385L151.083 25.3266L149.521 25.2682V34.7833ZM80.3491 28.396C81.5804 28.9053 82.3985 29.7065 83.0682 31.0587C83.6957 32.3254 83.7241 32.4851 83.7175 34.6884C83.7116 36.5912 83.6322 37.188 83.2624 38.1099C82.3139 40.4745 80.5885 41.7216 78.2659 41.7216C76.6512 41.7216 75.5098 41.2347 74.4909 40.1115C73.1358 38.6174 72.863 37.7488 72.8521 34.8918C72.8436 32.6928 72.8985 32.2689 73.3057 31.3893C73.8115 30.2969 74.9459 29.0186 75.8084 28.5691C77.1403 27.8746 78.9245 27.8066 80.3491 28.396Z" fill="#FFF7EA"/>
</svg>
