<svg width="108" height="57" viewBox="0 0 108 57" fill="none" xmlns="http://www.w3.org/2000/svg">
<path fill-rule="evenodd" clip-rule="evenodd" d="M61.4265 0.086409C61.3168 0.13069 61.1635 0.289538 61.0861 0.439475C60.9597 0.684157 60.9506 2.64053 60.9979 19.516C61.0324 31.8314 61.0822 38.4039 61.1424 38.5635C61.2536 38.8585 61.759 39.1199 62.0683 39.0421C62.1904 39.0115 62.3774 38.8935 62.4839 38.7801L62.6776 38.5737L62.6726 19.6949C62.6697 8.62593 62.6335 0.726257 62.5852 0.59896C62.4781 0.316998 62.063 -0.00715386 61.8183 0.000120237C61.7127 0.00330265 61.5364 0.0421279 61.4265 0.086409ZM45.9494 0.319998L45.7292 0.554588L45.7617 19.4827C45.7971 40.1082 45.7613 38.8065 46.3003 39.0117C46.6545 39.1465 47.1129 39.0326 47.287 38.7665C47.4233 38.5584 47.4339 36.995 47.4168 19.6688C47.4067 9.28978 47.3743 0.72953 47.3451 0.646151C47.1383 0.0572215 46.3655 -0.123358 45.9494 0.319998ZM29.4568 7.61692C29.3502 7.95044 28.2738 11.2306 27.0649 14.9063C25.8559 18.582 23.6826 25.19 22.2354 29.5909C20.7883 33.9917 19.5652 37.6864 19.5176 37.8012C19.47 37.9161 19.431 38.1647 19.431 38.3537C19.431 38.9938 20.1173 39.3575 20.6722 39.0115C20.9267 38.8526 21.0057 38.6889 21.3653 37.5758C21.5886 36.8848 22.7594 33.3214 23.9674 29.6572L26.1635 22.9949L29.6342 23.0008C31.543 23.0041 33.1556 23.0382 33.2176 23.0766C33.2798 23.115 34.4938 26.6114 35.9155 30.8462C37.3372 35.0811 38.5439 38.6271 38.5968 38.7263C38.9098 39.3115 39.9263 39.1504 40.092 38.4894C40.1382 38.3055 38.8971 34.4881 34.9555 22.6895C32.097 14.133 29.7339 7.10482 29.7044 7.07136C29.6748 7.03799 29.5633 7.28349 29.4568 7.61692ZM76.8565 10.3827C76.2429 12.2456 75.2358 15.3041 74.6185 17.1794C74.0011 19.0548 72.8625 22.5123 72.088 24.8627C71.3136 27.2132 70.0224 31.1327 69.2189 33.5728C68.4154 36.0128 67.7579 38.0921 67.7579 38.1932C67.7579 38.6491 68.1095 38.9946 68.5779 38.9988C69.1666 39.0042 69.2347 38.8897 69.968 36.6604C70.3422 35.5226 71.5134 31.9629 72.5706 28.7498L74.4928 22.9078H78.0746C80.0445 22.9078 81.6564 22.9226 81.6564 22.9407C81.6564 23.0341 86.7817 38.2717 86.8952 38.516C87.2225 39.2199 88.2905 39.09 88.4252 38.3301C88.4636 38.1128 87.4815 35.0801 84.1963 25.2719C81.8428 18.2456 79.5038 11.259 78.9983 9.74623C78.4929 8.23349 78.0552 6.99571 78.0258 6.99571C77.9963 6.99571 77.4701 8.51982 76.8565 10.3827ZM79.5511 16.6566C80.3602 19.0696 81.0218 21.0745 81.0213 21.112C81.0209 21.1496 79.692 21.1802 78.0682 21.1802C76.4445 21.1802 75.1159 21.1469 75.1159 21.1063C75.1159 21.0655 75.7495 19.1057 76.5239 16.751C77.2984 14.3964 77.932 12.4247 77.932 12.3696C77.932 11.9406 78.2683 12.8314 79.5511 16.6566ZM31.2177 16.7933C32.0297 19.2311 32.6939 21.2563 32.6939 21.2939C32.6938 21.3314 31.3403 21.3621 29.6862 21.3621C27.0323 21.3621 26.6851 21.3458 26.7318 21.2238C26.8776 20.8436 29.4624 12.9953 29.5387 12.7013C29.5874 12.5138 29.6529 12.3604 29.6843 12.3606C29.7157 12.3608 30.4057 14.3555 31.2177 16.7933ZM106.538 21.9017L106.272 22.1686L106.275 29.1303C106.277 32.9593 106.247 36.0818 106.21 36.0694C106.142 36.047 101.315 30.3594 97.0131 25.2318C95.0426 22.8832 94.1476 21.8861 93.9388 21.8066C93.7891 21.7497 93.6084 21.7545 93.4074 21.821C92.7921 22.0242 92.8297 21.4587 92.8297 30.5001C92.8297 38.0426 92.8418 38.7062 92.9834 38.9133C93.068 39.0369 93.1804 39.1682 93.2332 39.205C93.4279 39.3403 93.9875 39.2734 94.2249 39.0865L94.4638 38.8985L94.487 31.8814L94.5103 24.8643L95.6458 26.2162C96.2703 26.9598 96.8426 27.6395 96.9175 27.7267C97.151 27.9981 100.835 32.3544 101.505 33.1506C101.855 33.5665 103.081 35.0269 104.23 36.3958C105.379 37.7647 106.445 38.9725 106.598 39.0797C107.017 39.3733 107.475 39.3399 107.765 38.9947L108 38.715L108 34.2893C108 31.8552 107.973 28.1058 107.939 25.9573L107.879 22.051L107.671 21.8429C107.364 21.5354 106.879 21.5605 106.538 21.9017ZM7.89436 21.9102C4.50803 22.2995 1.53093 24.6549 0.458927 27.7931C-1.52738 33.6072 3.1992 39.5258 9.52948 39.1513C11.5861 39.0297 13.4854 38.2987 15.0922 37.0104C16.226 36.1014 16.4369 35.7668 16.2133 35.2313C16.0648 34.8755 15.8353 34.7282 15.4294 34.7282C15.2051 34.7282 15.0197 34.8401 14.6003 35.2288C12.9594 36.7493 11.0952 37.4899 8.93902 37.4777C6.8259 37.4657 5.07859 36.7334 3.6514 35.2616C2.30534 33.8734 1.71388 32.4221 1.71088 30.5001C1.70779 28.5748 2.42924 26.8925 3.81828 25.5858C4.81815 24.6452 5.971 24.0297 7.31562 23.7188C8.02735 23.5541 8.34574 23.5298 9.27876 23.5689C10.5871 23.6238 11.2747 23.7877 12.3929 24.3113C13.2817 24.7276 13.7762 25.0564 14.4553 25.6824C14.6959 25.9043 14.971 26.1278 15.0666 26.179C15.7498 26.5449 16.4993 25.7385 16.1317 25.0328C15.8996 24.5874 14.6201 23.5676 13.6173 23.0288C11.9241 22.1193 9.75812 21.6958 7.89436 21.9102ZM72.5927 47.9627C72.0737 48.1025 71.2988 48.5591 70.896 48.9622C69.9049 49.9543 69.4185 51.7403 69.7013 53.3494C69.973 54.8954 70.7666 56.0138 72.0198 56.6171C72.6335 56.9126 72.796 56.9499 73.6279 56.9869C74.3888 57.0209 74.6639 56.9945 75.1752 56.8386C76.5887 56.4077 77.4014 55.5962 77.8957 54.1222C78.3028 52.9084 78.1995 51.2195 77.6461 50.0411C77.2066 49.1054 76.1322 48.2277 75.0841 47.9484C74.4857 47.7889 73.2105 47.7962 72.5927 47.9627ZM17.16 52.4177V56.9228L17.7278 56.8958L18.2955 56.8687L18.341 53.1862L18.3864 49.5037L19.2355 52.0042C19.7026 53.3794 20.2694 55.0468 20.4951 55.7094L20.9055 56.9142H21.4305H21.9557L22.317 55.8913C22.5158 55.3287 23.0821 53.6927 23.5755 52.2557C24.069 50.8187 24.4931 49.6424 24.5181 49.6415C24.5431 49.6406 24.5635 51.2665 24.5635 53.2543V56.8687L25.1312 56.8958L25.699 56.9228V52.4177V47.9125L24.9041 47.913L24.1093 47.9137L22.8453 51.6183C22.1501 53.6559 21.5565 55.3525 21.5263 55.3884C21.4961 55.4244 20.9069 53.757 20.217 51.6831L18.9625 47.9125H18.0613H17.16V52.4177ZM31.9669 52.4144V56.9165L35.3053 56.8926L38.6437 56.8687L38.6709 56.3459L38.6982 55.8231H35.923H33.1479V54.3243V52.8254L35.6233 52.8012L38.0986 52.7771L38.1259 52.2542L38.1531 51.7314H35.6505H33.1479V50.3675V49.0036L35.8049 49.0038L38.462 49.004L38.4312 48.4582L38.4004 47.9125H35.1837H31.9669V52.4144ZM43.9578 48.4581V49.0036H45.4103H46.8628L46.8864 52.9362L46.9101 56.8687H47.5006H48.091L48.1108 53.0498C48.1216 50.9494 48.1318 49.1798 48.1335 49.1173C48.1357 49.0312 48.4893 49.0036 49.5899 49.0036H51.0433V48.4581V47.9125H47.5006H43.9578V48.4581ZM56.6754 52.4134V56.9142H57.2659H57.8563V54.7759V52.6376L60.15 52.6618L62.4438 52.6861L62.4681 54.8002L62.4925 56.9142H63.0813H63.6701V52.4134V47.9125H63.0796H62.4892V49.7765V51.6405H60.1728H57.8563V49.7765V47.9125H57.2659H56.6754V52.4134ZM84.0182 52.4031V56.9142L85.8578 56.911C88.6026 56.9063 89.4185 56.7106 90.2458 55.8585C91.0192 55.062 91.377 53.9713 91.3749 52.417C91.3727 50.7165 90.9557 49.5472 90.0774 48.7781C89.2894 48.0882 88.8012 47.9812 86.2211 47.933L84.0182 47.8919V52.4031ZM74.821 48.9599C76.2048 49.3712 77.0225 50.8487 76.9084 52.7316C76.8068 54.4076 76.0588 55.5048 74.7594 55.8835C74.1328 56.066 73.2216 56.0088 72.6375 55.7503C72.0376 55.4847 71.3614 54.7629 71.1092 54.1193C70.8394 53.4302 70.8068 51.6937 71.0491 50.9072C71.5402 49.3138 73.1739 48.4703 74.821 48.9599ZM88.6607 49.2042C89.136 49.4115 89.7123 50.0564 89.9407 50.6364C90.2098 51.3201 90.2373 53.2539 89.9881 53.9686C89.6941 54.8115 89.3407 55.2625 88.763 55.5319C88.2766 55.7587 88.1422 55.7769 86.7207 55.8081L85.1992 55.8415V52.4122V48.983L86.7662 49.0222C87.9208 49.0511 88.4193 49.099 88.6607 49.2042Z" fill="#FFF7EA"/>
</svg>
