<svg width="314" height="51" viewBox="0 0 314 51" fill="none" xmlns="http://www.w3.org/2000/svg">
<path fill-rule="evenodd" clip-rule="evenodd" d="M118.395 0.310538L117.155 0.528126L117.061 11.8895L116.967 23.2513L117.947 23.6368C118.485 23.8488 120.401 24.1047 122.204 24.2058C125.944 24.4156 127.909 23.891 129.478 22.263C133.055 18.5527 132.333 10.3375 128.246 8.23771C126.728 7.45784 124.298 7.53952 122.795 8.42079C122.107 8.82428 121.473 9.15418 121.387 9.15418C121.3 9.15418 121.23 7.09449 121.23 4.57709C121.23 -0.561926 121.453 -0.22639 118.395 0.310538ZM167.296 0.310538L166.056 0.528126L165.955 4.32148L165.855 8.11518L163.565 7.8821C159.441 7.46242 156.572 9.30029 155.44 13.0859C153.034 21.1388 159.143 27.5189 165.006 23.0756L166.186 22.1813L166.298 23.1495C166.404 24.0618 166.513 24.1177 168.182 24.1177H169.954L170.047 12.0589L170.14 0L169.338 0.0464751C168.897 0.0718251 167.978 0.190829 167.296 0.310538ZM269.351 0.310538L268.111 0.528126V12.3229V24.1177L270.148 24.2234L272.186 24.329V12.1645V0L271.389 0.0464751C270.95 0.0718251 270.033 0.190829 269.351 0.310538ZM301.42 0.314059L300.003 0.528126V12.3229V24.1177L302.04 24.2234L304.078 24.329V18.7259V13.1229L305.426 12.1948C306.167 11.6843 307.164 11.2691 307.641 11.272C309.49 11.2836 309.558 11.5001 309.748 18.0306L309.925 24.1177L311.962 24.2234L314 24.329L313.999 17.7098C313.999 10.3245 313.699 9.07038 311.711 8.13173C309.694 7.17934 306.628 7.74584 304.698 9.4274C304.111 9.93862 304.078 9.70132 304.078 4.98375C304.078 -0.566151 304.329 -0.125342 301.42 0.314059ZM58.4014 1.21258C53.7356 2.86631 51.321 6.69558 51.2845 12.499C51.2568 16.8979 52.0088 18.9506 54.5786 21.4944C56.193 23.0925 56.957 23.5653 58.709 24.0505C59.8911 24.3779 61.4124 24.6459 62.0895 24.6459C63.6593 24.6459 67.3064 23.7086 68.3326 23.0414C69.1299 22.5232 69.1473 22.2742 68.5814 19.4685L68.4251 18.6921L66.693 19.5565C64.3922 20.705 61.1494 20.7532 59.2068 19.6685C57.0789 18.4805 55.9343 16.0515 55.9312 12.7176C55.928 9.50204 56.6544 7.49551 58.3603 6.00725C60.3358 4.2838 63.469 4.12396 66.3206 5.6006C67.103 6.00585 67.8057 6.33751 67.8815 6.33751C67.9577 6.33751 68.1122 5.8622 68.2252 5.28126C68.8875 1.87344 69.0236 2.25193 66.8432 1.44143C64.5211 0.578122 60.4992 0.468976 58.4014 1.21258ZM147.806 1.40834C146.337 2.86878 147.44 5.28126 149.578 5.28126C150.874 5.28126 152.059 4.18769 152.059 2.99271C152.059 1.79774 150.874 0.704168 149.578 0.704168C148.988 0.704168 148.2 1.01717 147.806 1.40834ZM276.792 1.40834C275.323 2.86878 276.426 5.28126 278.564 5.28126C280.622 5.28126 281.689 3.18284 280.493 1.48685C279.772 0.463694 277.785 0.421796 276.792 1.40834ZM215.572 12.587L215.666 24.1177H222.576H229.486L229.593 22.2693L229.7 20.4209H224.898H220.095V17.2521V14.0834H223.862H227.63L227.41 12.763C227.289 12.037 227.188 11.1653 227.186 10.8266C227.183 10.2812 226.776 10.2104 223.639 10.2104H220.095V7.58037V4.9503L224.613 4.85172L229.131 4.75313L229.238 2.90469L229.346 1.05625H222.412H215.479L215.572 12.587ZM18.4526 2.20052C16.3877 3.23495 15.1563 5.44744 15.392 7.69796C15.5908 9.59252 16.4855 10.8417 18.409 11.9092L19.8835 12.7278V17.6306C19.8835 20.3272 19.764 22.5242 19.6177 22.5133C19.4713 22.5024 17.5323 21.4292 15.308 20.1286L11.2644 17.7644L11.2006 15.9681C10.9997 10.2921 4.03057 8.30319 0.837816 13.0102C-0.827309 15.4653 0.058584 18.8006 2.88281 20.7078C4.44978 21.7662 7.15211 21.6563 8.83424 20.4663L9.94515 19.6804L14.2531 22.2045L18.561 24.7286L15.5901 26.4376C13.9561 27.3777 11.9689 28.4931 11.1741 28.9163L9.72899 29.6856L8.69356 28.9367C7.05643 27.7523 5.10888 27.6273 3.24957 28.5867C0.903017 29.7976 0.216627 30.9383 0.216627 33.6268C0.216627 35.6337 0.327187 35.9819 1.2797 36.9773C1.86439 37.5881 2.80769 38.3289 3.37608 38.6239C4.78252 39.3535 7.42567 39.0669 8.89767 38.0254C10.3846 36.9737 11.5203 34.4831 11.2254 32.9212C11.0072 31.7661 11.0174 31.7562 14.6478 29.6602C16.6503 28.504 18.6478 27.3724 19.0862 27.1457L19.8835 26.7337V31.7636V36.7935L18.3774 37.5043C15.5422 38.8422 14.4232 42.9391 16.2343 45.3491C17.5716 47.1292 18.7272 47.7074 20.9465 47.7074C24.3689 47.7074 26.4391 45.6737 26.4391 42.3124C26.4391 39.9231 25.7353 38.7887 23.5156 37.6004L22.0096 36.7938V31.7671V26.7404L22.9841 27.245C23.5202 27.5224 25.4713 28.6304 27.3204 29.7071L30.6821 31.6643L30.7186 33.3483C30.7895 36.6181 32.7672 38.7447 35.9741 39.0003C37.439 39.1169 38.0103 38.9873 39.0102 38.312C42.7186 35.8076 42.8419 31.365 39.2757 28.7399C37.8345 27.6791 34.8196 27.7351 33.3008 28.8508L32.1641 29.6856L30.719 28.9163C29.9242 28.4931 27.9362 27.3773 26.3012 26.4366C22.8735 24.4649 22.5943 25.0814 28.4447 21.706L31.8678 19.7308L33.5177 20.6473C39.5092 23.9741 45.1155 15.6364 39.6647 11.5054C35.9185 8.66654 30.8161 11.2093 30.7169 15.9638L30.6793 17.7535L26.4869 20.1434C24.1811 21.4581 22.2304 22.5334 22.1521 22.5334C22.0737 22.5334 22.0096 20.3272 22.0096 17.6306V12.7278L23.4841 11.9092C25.7133 10.672 26.4412 9.47986 26.4281 7.08921C26.4143 4.62286 25.4242 3.04447 23.2849 2.07906C21.3757 1.21751 20.3636 1.24321 18.4526 2.20052ZM77.6437 7.65149C76.9616 7.72049 75.6462 8.02047 74.7202 8.31798C73.1572 8.82005 73.037 8.94258 73.037 10.034C73.037 12.1726 73.1958 12.2821 75.267 11.5712C77.789 10.7051 79.9318 10.7234 80.8329 11.6188C82.0849 12.8627 81.762 13.6059 79.8584 13.8626C77.6494 14.1608 74.8648 15.0766 73.6976 15.8888C72.4446 16.7606 71.5016 19.1572 71.7968 20.7198C72.1412 22.5457 72.929 23.4903 74.6508 24.1438C75.9725 24.6452 76.4623 24.6705 77.8999 24.3114C78.8308 24.079 80.1005 23.5044 80.7209 23.0351L81.8489 22.1813L81.9612 23.1495C82.0668 24.0618 82.1756 24.1177 83.8449 24.1177H85.6167L85.7138 18.026C85.7989 12.6856 85.7284 11.749 85.1415 10.4308C84.1759 8.262 81.4817 7.26349 77.6437 7.65149ZM97.6649 7.7469C96.4087 8.02258 94.4353 9.00138 94.1227 9.5038C93.7198 10.1516 93.284 9.87067 93.1702 8.89012C93.0678 8.00357 92.9165 7.91273 91.375 7.8145L89.6918 7.70711V16.0005V24.2938H91.6408H93.5898V18.7083V13.1229L94.9377 12.1948C96.6011 11.0494 97.9657 10.9966 98.7077 12.0494C99.1525 12.6799 99.2595 13.9471 99.2595 18.5802V24.329L101.297 24.2234L103.335 24.1177L103.512 18.4974L103.689 12.8775L104.893 12.0719C106.299 11.1315 107.488 11.0428 108.27 11.8198C108.733 12.2796 108.827 13.3862 108.827 18.351V24.329L110.865 24.2234L112.902 24.1177V17.3919C112.902 9.9682 112.722 9.1827 110.789 8.18947C108.811 7.173 105.744 7.71416 103.779 9.42564C103.216 9.91609 103.083 9.88194 102.303 9.04539C101.832 8.54015 100.994 8.02751 100.441 7.90675C99.8888 7.78598 99.2772 7.64796 99.0823 7.60043C98.8874 7.55255 98.2496 7.61839 97.6649 7.7469ZM178.99 7.65149C177.03 7.94724 175.785 8.55106 174.773 9.69639C172.821 11.905 172.878 15.0283 174.906 17.044L176.104 18.2337L175.243 19.0365C174.361 19.86 174.154 20.924 174.706 21.7905C174.927 22.1376 174.617 22.658 173.637 23.5843C172.539 24.6226 172.257 25.1441 172.257 26.1394C172.257 28.8209 176.172 30.5859 181.193 30.1679C185.442 29.8145 188.093 28.0706 188.455 25.3919C188.811 22.7534 187.237 21.4194 183.021 20.7877C178.636 20.1307 178.281 20.0417 178.281 19.6026C178.281 19.3371 179.233 19.0196 180.729 18.7854C184.779 18.1517 186.604 16.2761 186.374 12.9841C186.261 11.3558 186.3 11.266 187.14 11.261C188.635 11.2522 189.04 10.7794 188.802 9.32177C188.684 8.6007 188.528 7.95146 188.456 7.87928C188.383 7.80711 187.477 8.03385 186.443 8.38312C184.663 8.98448 184.494 8.98624 183.282 8.41868C181.819 7.73387 180.274 7.45749 178.99 7.65149ZM196.353 7.73211C192.453 8.48663 190.327 11.3991 190.331 15.9843C190.334 19.1858 190.893 20.7395 192.644 22.4151C195.2 24.8613 198.915 25.2212 202.968 23.415L204.799 22.5989L204.603 21.0698C204.495 20.2286 204.369 19.4949 204.323 19.4389C204.277 19.3826 203.478 19.7392 202.547 20.2311C201.283 20.8986 200.323 21.125 198.754 21.125C196.904 21.125 196.529 21.0018 195.617 20.0959C195.048 19.5297 194.582 18.8298 194.582 18.5404C194.582 18.2506 194.485 17.7633 194.367 17.457C194.176 16.9641 194.769 16.9 199.505 16.9H204.858V15.7318C204.858 13.8313 203.842 10.9924 202.699 9.69885C201.274 8.08631 198.68 7.28215 196.353 7.73211ZM240.243 7.90675C239.356 8.13067 238.168 8.67605 237.602 9.11897L236.573 9.92419L236.251 8.81794C235.944 7.76169 235.856 7.71662 234.302 7.81697L232.675 7.92189V16.0198V24.1177H234.624H236.573L236.75 18.4974L236.927 12.8775L238.131 12.0719C239.681 11.0357 241.147 11.0266 241.868 12.0494C242.313 12.6799 242.42 13.9471 242.42 18.5802V24.329L244.457 24.2234L246.495 24.1177L246.603 19.0125C246.663 16.2047 246.61 13.0637 246.486 12.0325C246.078 8.64753 243.655 7.04625 240.243 7.90675ZM254.369 7.91273C250.688 8.85526 248.932 12.2479 250.363 15.6515C250.639 16.3082 251.279 17.1148 251.785 17.4443L252.705 18.0432L251.815 18.8632C250.904 19.7019 250.581 21.5771 251.274 22.0028C251.467 22.1207 250.989 22.8186 250.211 23.5534C249.099 24.6047 248.798 25.1462 248.798 26.0975C248.798 28.8339 251.269 30.1032 256.594 30.1032C259.476 30.1028 260.215 29.9764 261.732 29.223C265.609 27.296 266.26 23.3421 262.977 21.6553C262.418 21.3683 260.44 20.9064 258.58 20.6289C256.721 20.3511 255.032 20.0216 254.828 19.8963C254.116 19.4593 254.82 19.1037 256.852 18.8727C260.859 18.4172 263.108 16.2113 262.901 12.9387C262.801 11.3624 262.846 11.266 263.681 11.261C265.215 11.2522 265.557 10.8076 265.281 9.18446C265.009 7.58705 265.188 7.62156 262.306 8.60915C261.311 8.95032 260.89 8.91793 259.826 8.41903C258.009 7.56804 256.326 7.41172 254.369 7.91273ZM135.05 16.0181V24.329L137.087 24.2234L139.125 24.1177L139.223 19.3333C139.321 14.5675 139.325 14.5449 140.349 13.5707C140.914 13.0327 142.149 12.3338 143.094 12.0177L144.812 11.4427L144.511 9.59428C144.265 8.09018 144.079 7.74584 143.509 7.74584C142.469 7.74584 140.918 8.6419 139.921 9.81962L139.037 10.8628L138.727 9.39219C138.42 7.93808 138.398 7.92083 136.733 7.8145L135.05 7.70711V16.0181ZM147.452 16.0198V24.329L149.49 24.2234L151.527 24.1177V16.0198V7.92189L149.49 7.81626L147.452 7.71064V16.0198ZM276.604 8.17574C276.505 8.43241 276.467 12.1247 276.52 16.3803L276.615 24.1177H278.564H280.513V16.0198V7.92189L278.649 7.81521C277.347 7.74092 276.73 7.84971 276.604 8.17574ZM286.674 8.44966C285.937 8.8366 285.147 9.63689 284.814 10.3354C283.273 13.5612 284.763 16.0582 288.967 17.2954C290.359 17.7052 291.857 18.2626 292.296 18.5344C293.227 19.1118 293.332 20.1378 292.527 20.8015C291.688 21.493 288.454 21.2997 286.5 20.4406C285.574 20.0339 284.706 19.8234 284.572 19.973C284.437 20.1223 284.234 20.8504 284.121 21.5905C283.929 22.8488 283.99 22.9671 285.052 23.4079C288.922 25.0149 293.297 24.7332 295.49 22.7362C296.516 21.8021 296.753 21.312 296.874 19.8709C297.127 16.8747 296.021 15.6955 291.511 14.1548C288.512 13.1303 287.685 12.4025 288.461 11.4723C289.081 10.7308 291.927 10.7386 293.809 11.4867C294.601 11.8015 295.329 11.9786 295.428 11.8804C295.527 11.7821 295.64 11.0135 295.679 10.1724C295.747 8.71795 295.69 8.62183 294.51 8.21412C292.522 7.5272 288.182 7.65747 286.674 8.44966ZM181.557 10.9065C182.607 11.7272 182.95 13.0961 182.458 14.4995C181.445 17.3859 177.218 16.3402 177.218 13.2031C177.218 12.3303 177.487 11.6712 178.088 11.0748C179.139 10.0298 180.359 9.97066 181.557 10.9065ZM258.205 11.0748C260.837 13.6897 257.285 17.9563 254.579 15.4304C252.819 13.7873 254.078 10.2104 256.417 10.2104C256.922 10.2104 257.726 10.5995 258.205 11.0748ZM198.995 10.7812C199.632 11.0241 200.606 12.6905 200.606 13.5376C200.606 13.9876 200.078 14.0834 197.594 14.0834C194.858 14.0834 194.582 14.0214 194.582 13.4063C194.582 13.0338 194.994 12.2416 195.499 11.6459C196.41 10.5703 197.642 10.2654 198.995 10.7812ZM125.889 11.6469C127.49 12.4979 128.086 16.0501 127.058 18.6038C126.313 20.4547 125.139 20.9926 122.204 20.8279L121.23 20.7729V16.9314V13.0898L122.32 12.1782C123.479 11.2093 124.719 11.0248 125.889 11.6469ZM165.318 11.4804C165.777 11.655 165.879 12.3226 165.879 15.1407V18.5876L164.626 19.6801C161.9 22.0584 159.146 20.3272 159.146 16.2363C159.146 12.7965 160.337 11.2667 163.015 11.2667C163.973 11.2667 165.01 11.3628 165.318 11.4804ZM81.5416 17.9017C81.5416 19.8684 80.9459 20.6043 78.8999 21.1655C77.8549 21.4521 77.419 21.4116 76.7319 20.9645C74.9676 19.8156 75.9846 17.5644 78.6341 16.7546C81.4087 15.9064 81.5416 15.9589 81.5416 17.9017ZM181.266 23.9558C183.922 24.3374 184.66 24.7244 184.66 25.737C184.66 26.9175 182.98 27.6386 180.23 27.6386C176.37 27.6386 174.773 26.2267 176.523 24.3603C177.335 23.4949 177.787 23.4562 181.266 23.9558ZM260.049 24.4874C261.488 25.0803 261.57 26.15 260.242 27.0143C259.552 27.4636 258.579 27.6386 256.771 27.6386C252.95 27.6386 251.48 26.3778 252.919 24.335C253.468 23.5569 253.633 23.528 256.197 23.7639C257.682 23.9009 259.415 24.2262 260.049 24.4874ZM54.2561 41.898V47.8834H57.4453C60.3982 47.8834 60.6345 47.8313 60.6345 47.1792C60.6345 46.542 60.3982 46.4751 58.154 46.4751H55.6735V44.3626V42.2501H57.6484C59.3379 42.2501 59.6066 42.161 59.5056 41.6339C59.4145 41.1575 58.9659 40.9935 57.5307 40.9114L55.6735 40.8048V39.063V37.3209H58.154C60.3982 37.3209 60.6345 37.254 60.6345 36.6167C60.6345 35.9647 60.3982 35.9126 57.4453 35.9126H54.2561V41.898ZM96.779 41.898C96.779 47.6486 96.8066 47.8834 97.4877 47.8834C98.1291 47.8834 98.1964 47.6486 98.1964 45.4188V42.9542H99.7854C102.06 42.9542 103.609 41.5565 103.609 39.5038C103.609 38.6972 103.387 37.7719 103.117 37.4483C102.352 36.5319 100.516 35.9126 98.5621 35.9126H96.779V41.898ZM183.915 36.7093C180.623 38.8877 180.474 44.9699 183.657 47.2218C185.779 48.7235 190.022 48.2689 190.272 46.5131C190.371 45.8156 190.28 45.7177 189.74 45.9406C187.423 46.8976 187.132 46.9493 185.848 46.631C184.929 46.4036 184.251 45.9223 183.697 45.1026C182.219 42.9183 182.85 38.7296 184.813 37.6853C185.637 37.2477 187.935 37.3265 189.532 37.8473C190.176 38.0574 190.329 37.9751 190.329 37.4184C190.329 35.8129 185.993 35.3337 183.915 36.7093ZM156.017 37.0287C156.095 37.5754 156.37 37.849 156.843 37.849C157.898 37.849 157.793 36.4745 156.726 36.3245C156.039 36.2277 155.919 36.346 156.017 37.0287ZM151.084 36.8498C150.836 36.9494 150.641 37.6328 150.641 38.4064C150.641 39.3975 150.492 39.7855 150.11 39.7855C149.817 39.7855 149.578 40.0231 149.578 40.3136C149.578 40.6041 149.817 40.8417 150.11 40.8417C150.54 40.8417 150.641 41.4015 150.641 43.7672C150.641 45.6065 150.812 46.924 151.1 47.3162C151.723 48.1623 153.938 48.2749 154.104 47.4686C154.192 47.0454 153.945 46.8458 153.231 46.7645C152.24 46.6515 152.236 46.6402 152.133 43.7464L152.03 40.8417H153.108C153.829 40.8417 154.185 40.6671 154.185 40.3136C154.185 39.9615 153.831 39.7855 153.122 39.7855C152.098 39.7855 152.059 39.7267 152.059 38.2011C152.059 36.6389 151.958 36.4995 151.084 36.8498ZM210.262 36.8498C210.014 36.9494 209.819 37.6328 209.819 38.4064C209.819 39.3975 209.669 39.7855 209.287 39.7855C208.995 39.7855 208.756 40.0231 208.756 40.3136C208.756 40.6041 208.995 40.8417 209.287 40.8417C209.717 40.8417 209.819 41.4015 209.819 43.7672C209.819 45.6065 209.989 46.924 210.278 47.3162C210.901 48.1623 213.115 48.2749 213.282 47.4686C213.37 47.0454 213.123 46.8458 212.409 46.7645C211.417 46.6515 211.413 46.6402 211.311 43.7464L211.208 40.8417H212.315C213.682 40.8417 213.573 40.0136 212.184 39.8503C211.316 39.7481 211.236 39.6073 211.236 38.1779C211.236 36.6378 211.135 36.4998 210.262 36.8498ZM101.307 37.8691C102.242 38.5197 102.364 40.1714 101.538 40.9928C101.22 41.3079 100.382 41.5459 99.5887 41.5459H98.1964V39.4334V37.3209H99.3576C99.9966 37.3209 100.874 37.5677 101.307 37.8691ZM62.4262 39.7731C62.0403 40.0101 62.2104 40.4488 63.2419 41.8754L64.5456 43.6781L63.1083 45.7808C61.7309 47.7961 61.7051 47.8834 62.4868 47.8834C63.0559 47.8834 63.5668 47.4581 64.1781 46.4751C64.66 45.7005 65.1547 45.0667 65.2777 45.0667C65.4007 45.0667 65.9233 45.7005 66.4393 46.4751C67.0105 47.3324 67.6526 47.8834 68.081 47.8834C69.008 47.8834 68.9913 47.8186 67.5445 45.8177C66.8624 44.8741 66.3043 43.9049 66.3043 43.6637C66.3043 43.4221 66.8758 42.4507 67.5746 41.5051C68.8128 39.8295 68.8241 39.7855 68.0176 39.7879C67.4379 39.7897 66.913 40.2214 66.2649 41.229L65.3397 42.6676L64.5775 41.4424C63.5739 39.8288 63.0268 39.4045 62.4262 39.7731ZM71.531 39.8249C70.9499 40.0464 70.5565 40.4615 70.5565 40.8526C70.5565 41.4258 70.6884 41.4635 71.5945 41.1498C73.1873 40.5981 74.6115 40.8776 74.7394 41.7674C74.828 42.3842 74.6111 42.5606 73.5112 42.7655C71.5261 43.1356 70.2398 43.9147 69.9917 44.897C69.6334 46.3149 70.1008 47.4042 71.2741 47.8869C72.1756 48.258 72.5881 48.2408 73.7592 47.7838C74.5314 47.4824 75.1632 47.3817 75.1632 47.5595C75.1632 47.7376 75.4024 47.8834 75.6947 47.8834C76.1309 47.8834 76.2263 47.2648 76.2263 44.4298C76.2263 42.1726 76.0686 40.7622 75.7709 40.3576C75.2174 39.6056 72.8776 39.3116 71.531 39.8249ZM81.0172 39.9848C80.3357 40.3379 79.9169 40.3995 79.8361 40.1587C79.767 39.9534 79.4849 39.7855 79.2089 39.7855C78.8049 39.7855 78.7068 40.5759 78.7068 43.8344C78.7068 47.6486 78.7479 47.8834 79.4155 47.8834C80.0686 47.8834 80.1242 47.6486 80.1242 44.8988C80.1242 42.1226 80.1848 41.8747 80.9895 41.3508C81.4654 41.041 82.2231 40.8393 82.6727 40.9026C83.4548 41.0128 83.4948 41.1678 83.5919 44.4506C83.6848 47.5933 83.7521 47.8834 84.3892 47.8834C85.0257 47.8834 85.0852 47.6306 85.0852 44.9312C85.0852 42.1818 85.1451 41.9399 85.9587 41.4103C87.1284 40.6488 88.1692 40.6928 88.6164 41.5227C88.818 41.8973 88.9831 43.4816 88.9831 45.0435C88.9831 47.6486 89.0416 47.8834 89.6918 47.8834C90.3509 47.8834 90.4006 47.6486 90.4006 44.5228C90.4006 41.4237 90.3329 41.0945 89.5306 40.2978C88.5005 39.2739 87.4204 39.2042 85.9881 40.0682C84.9821 40.6752 84.9176 40.6752 84.3049 40.0664C83.5235 39.2901 82.4112 39.2626 81.0172 39.9848ZM107.667 40.1376C106.589 40.9801 106.347 41.0125 106.347 40.3136C106.347 40.0231 106.107 39.7855 105.815 39.7855C105.374 39.7855 105.284 40.4699 105.284 43.8344C105.284 47.6486 105.325 47.8834 105.992 47.8834C106.634 47.8834 106.701 47.6486 106.701 45.3956C106.701 42.4962 106.991 41.8036 108.459 41.1994C109.118 40.9283 109.536 40.4999 109.536 40.095C109.536 39.2369 108.798 39.2538 107.667 40.1376ZM112.371 39.8837C111.327 40.402 110.246 42.3719 110.245 43.7577C110.244 46.7152 112.57 48.7192 115.105 47.944C116.977 47.3711 117.471 46.9912 117.213 46.3223C117.01 45.7984 116.895 45.7948 115.938 46.2867C114.118 47.2218 112.832 46.9704 112.069 45.5301C111.332 44.1383 111.54 44.0105 114.543 44.0105H117.425L117.213 42.6902C116.97 41.1663 115.28 39.4306 114.048 39.4387C113.613 39.4415 112.858 39.6418 112.371 39.8837ZM121.501 39.9253C120.942 40.2238 120.447 40.303 120.329 40.1136C120.217 39.933 119.895 39.7855 119.614 39.7855C119.191 39.7855 119.103 40.7519 119.103 45.4445C119.103 50.6441 119.154 51.0944 119.724 50.987C120.174 50.9022 120.373 50.4681 120.451 49.4044L120.559 47.9387L122.065 47.9964C124.853 48.1038 126.191 46.5814 126.191 43.3031C126.191 40.4058 123.813 38.693 121.501 39.9253ZM129.291 39.8249C128.703 40.0488 128.317 40.4604 128.317 40.8625C128.317 41.4318 128.449 41.4786 129.226 41.185C131.049 40.4963 132.923 40.9407 132.923 42.061C132.923 42.267 132.086 42.6296 131.063 42.8669C129.074 43.3281 127.608 44.5752 127.608 45.8065C127.608 46.642 129.116 48.2355 129.907 48.2355C130.214 48.2355 131.019 48.0059 131.695 47.7253C132.37 47.4447 132.923 47.3655 132.923 47.5493C132.923 47.7331 133.257 47.8834 133.665 47.8834C134.377 47.8834 134.402 47.7394 134.286 44.3745C134.194 41.736 134.022 40.7248 133.592 40.2985C132.876 39.588 130.577 39.3348 129.291 39.8249ZM139.656 39.683C139.364 39.7901 138.849 40.1161 138.512 40.4076C137.964 40.8815 137.876 40.8766 137.677 40.3615C137.555 40.0446 137.232 39.7855 136.961 39.7855C136.567 39.7855 136.467 40.6083 136.467 43.8344C136.467 47.6486 136.508 47.8834 137.176 47.8834C137.817 47.8834 137.884 47.6486 137.884 45.3956C137.884 42.4962 138.175 41.8036 139.643 41.1994C140.301 40.9283 140.719 40.4999 140.719 40.095C140.719 39.4119 140.564 39.3517 139.656 39.683ZM143.111 39.8425C142.486 40.0693 142.137 40.452 142.137 40.9086C142.137 41.4543 142.282 41.5586 142.757 41.354C143.938 40.8445 145.692 40.7653 146.217 41.1977C147.151 41.9677 146.784 42.4261 144.883 42.8669C142.894 43.3281 141.428 44.5752 141.428 45.8065C141.428 46.7275 142.969 48.2355 143.91 48.2355C144.318 48.2355 145.123 47.9936 145.698 47.6982C146.297 47.3905 146.743 47.3151 146.743 47.5222C146.743 47.7207 147.062 47.8834 147.452 47.8834C148.111 47.8834 148.161 47.6486 148.161 44.5228C148.161 41.4237 148.093 41.0945 147.291 40.2978C146.354 39.3665 144.868 39.2049 143.111 39.8425ZM161.804 39.7499C160.236 40.4235 159.677 41.5047 159.677 43.8633C159.677 45.7998 159.801 46.23 160.582 47.006C162.415 48.827 165.716 48.2003 166.627 45.8589C167.234 44.2985 166.821 41.6181 165.82 40.6234C164.879 39.689 162.931 39.2651 161.804 39.7499ZM171.378 39.9848C170.697 40.3379 170.278 40.3995 170.197 40.1587C170.128 39.9534 169.766 39.7855 169.393 39.7855C168.763 39.7855 168.714 40.0788 168.714 43.8344C168.714 47.6486 168.755 47.8834 169.422 47.8834C170.075 47.8834 170.131 47.6486 170.131 44.8998C170.131 41.9518 170.143 41.9096 171.176 41.379C172.522 40.6875 173.542 40.6953 173.814 41.3987C173.932 41.705 174.029 43.2894 174.029 44.9196C174.029 47.6486 174.085 47.8834 174.738 47.8834C175.399 47.8834 175.446 47.6486 175.446 44.3883C175.446 41.0315 175.409 40.8639 174.513 40.1633C173.398 39.2919 172.783 39.257 171.378 39.9848ZM193.964 39.7957C192.803 40.2594 191.75 42.1962 191.748 43.8703C191.745 47.1099 194.516 49.0122 197.282 47.6704C198.038 47.3035 198.657 46.7655 198.657 46.4751C198.657 45.891 198.452 45.8955 196.859 46.5127C195.413 47.0733 194.09 46.6997 193.579 45.5868C193.351 45.0889 193.164 44.5305 193.164 44.346C193.164 44.1612 194.439 44.0105 195.999 44.0105C199.142 44.0105 199.246 43.9105 198.34 41.7568C197.499 39.7562 195.879 39.0306 193.964 39.7957ZM202.925 40.0245C202.196 40.4164 201.838 40.4657 201.744 40.1865C201.67 39.9657 201.384 39.7855 201.108 39.7855C200.704 39.7855 200.606 40.5759 200.606 43.8344C200.606 47.6486 200.647 47.8834 201.314 47.8834C201.967 47.8834 202.023 47.6486 202.023 44.9108C202.023 42.2377 202.102 41.8825 202.811 41.3899C203.886 40.6417 205.112 40.7012 205.554 41.5227C205.756 41.8973 205.921 43.4816 205.921 45.0435C205.921 47.6486 205.979 47.8834 206.63 47.8834C207.289 47.8834 207.338 47.6486 207.338 44.5228C207.338 41.4237 207.271 41.0945 206.469 40.2978C205.469 39.3042 204.416 39.2228 202.925 40.0245ZM217.518 40.1376C216.44 40.9801 216.197 41.0125 216.197 40.3136C216.197 40.0231 215.958 39.7855 215.666 39.7855C215.224 39.7855 215.134 40.4699 215.134 43.8344C215.134 47.6486 215.175 47.8834 215.843 47.8834C216.485 47.8834 216.552 47.6486 216.552 45.3956C216.552 42.4962 216.842 41.8036 218.31 41.1994C218.969 40.9283 219.387 40.4999 219.387 40.095C219.387 39.2369 218.649 39.2538 217.518 40.1376ZM222.221 39.8837C221.178 40.402 220.097 42.3719 220.096 43.7577C220.094 47.4141 223.787 49.4118 226.505 47.225C227.645 46.3075 227.091 45.6177 225.763 46.3004C223.969 47.2218 222.68 46.9634 221.92 45.5301C221.183 44.1383 221.391 44.0105 224.394 44.0105H227.275L227.064 42.6902C226.82 41.1663 225.131 39.4306 223.899 39.4387C223.463 39.4415 222.709 39.6418 222.221 39.8837ZM155.957 43.8344C155.957 47.6486 155.998 47.8834 156.665 47.8834C157.333 47.8834 157.374 47.6486 157.374 43.8344C157.374 40.0203 157.333 39.7855 156.665 39.7855C155.998 39.7855 155.957 40.0203 155.957 43.8344ZM115.363 41.6244C115.666 42.0547 115.914 42.53 115.914 42.6807C115.914 42.831 114.962 42.9542 113.799 42.9542C111.937 42.9542 111.711 42.8806 111.905 42.3381C112.517 40.634 114.392 40.2471 115.363 41.6244ZM124.125 41.4244C125.058 42.2638 125.021 45.1727 124.064 46.123C123.36 46.8233 122.152 47.0219 121.082 46.6134C120.652 46.4497 120.521 45.8783 120.521 44.1689C120.521 42.2627 120.635 41.8582 121.309 41.3899C122.326 40.6819 123.313 40.6942 124.125 41.4244ZM164.659 41.3413C165.2 41.7343 165.347 42.2677 165.347 43.8344C165.347 46.0075 164.746 46.8271 163.153 46.8271C161.191 46.8271 160.124 43.5323 161.469 41.6244C162.108 40.7185 163.617 40.5847 164.659 41.3413ZM196.955 41.898L197.397 42.7782L195.418 42.8849C194.329 42.9437 193.355 42.9092 193.253 42.8078C193.151 42.7067 193.339 42.2138 193.669 41.7121C194.473 40.4939 196.304 40.5974 196.955 41.898ZM225.213 41.6244C225.517 42.0547 225.765 42.53 225.765 42.6807C225.765 42.831 224.813 42.9542 223.65 42.9542C221.788 42.9542 221.561 42.8806 221.756 42.3381C222.367 40.634 224.242 40.2471 225.213 41.6244ZM74.2135 46.3286C73.2422 47.0743 71.4665 46.8198 71.3368 45.916C71.2068 45.0129 71.9651 44.3485 73.4821 44.0362C74.5526 43.8161 74.6395 43.87 74.7451 44.8167C74.8195 45.484 74.6366 46.0036 74.2135 46.3286ZM132.923 44.6946C132.923 46.5698 129.725 47.7598 129.19 46.0835C128.821 44.927 130.107 44.0404 132.658 43.6943C132.804 43.6746 132.923 44.1246 132.923 44.6946ZM146.743 44.6946C146.743 46.5698 143.545 47.7598 143.01 46.0835C142.641 44.927 143.927 44.0404 146.478 43.6943C146.624 43.6746 146.743 44.1246 146.743 44.6946Z" fill="#FFF7EA"/>
</svg>
