<svg width="375" height="197" viewBox="0 0 375 197" fill="none" xmlns="http://www.w3.org/2000/svg">
<g filter="url(#filter0_d_1401_642)">
<rect x="54.1311" y="104" width="354" height="74" rx="8" transform="rotate(2.42519 54.1311 104)" fill="#E61F4C" shape-rendering="crispEdges"/>
<path d="M84.6307 136.32L88.2218 125.262L94.5362 125.529L97.0995 136.848L93.1031 136.678L92.6316 134.577L89.1947 134.431L88.5472 136.486L84.6307 136.32ZM89.9526 131.661L92.1107 131.752L91.5166 128.764L90.8772 128.737L89.9526 131.661ZM97.0945 138.769L97.3111 133.654L98.51 133.705L100.927 125.8L107.401 126.074L109.061 134.151L110.26 134.202L110.043 139.318L106.366 139.162L106.447 137.244L100.852 137.007L100.771 138.925L97.0945 138.769ZM102.187 133.86L105.304 133.992L104.388 129.149L103.589 129.115L102.187 133.86ZM110.369 137.41L113.98 131.557L111.163 126.233L115.639 126.423L117.394 130.341L117.954 130.364L118.116 126.528L122.113 126.697L121.95 130.534L122.51 130.557L124.59 126.802L129.066 126.992L125.809 132.058L128.912 138.195L124.436 138.006L122.527 133.921L121.808 133.891L121.639 137.887L117.642 137.718L117.812 133.721L117.092 133.691L114.845 137.599L110.369 137.41ZM130.034 138.243L130.508 127.053L139.699 127.442L139.564 130.639L134.369 130.419L134.325 131.458L138.401 131.631L138.286 134.348L134.21 134.176L134.166 135.215L139.361 135.435L139.226 138.632L130.034 138.243ZM144.57 127.648L148.726 127.824L150.292 132.455L150.931 132.482L152.723 127.993L156.799 128.166L152.169 139.18L148.093 139.007L149.43 135.781L147.352 135.693L144.57 127.648ZM161.442 139.573L161.916 128.383L165.913 128.552L165.75 132.389L168.947 132.524L169.11 128.688L173.106 128.857L172.632 140.047L168.636 139.877L168.799 136.041L165.601 135.906L165.439 139.742L161.442 139.573ZM173.597 140.088L177.188 129.03L183.502 129.297L186.065 140.616L182.069 140.446L181.598 138.345L178.161 138.199L177.513 140.253L173.597 140.088ZM178.918 135.429L181.077 135.52L180.482 132.532L179.843 132.505L178.918 135.429ZM188.062 139.323C186.927 138.133 186.395 136.701 186.466 135.028C186.537 133.354 187.188 131.978 188.418 130.899C189.66 129.809 191.224 129.304 193.111 129.384C195.21 129.473 196.829 130.315 197.968 131.912C198.44 132.615 198.78 133.403 198.989 134.277L194.993 134.108C194.896 133.858 194.756 133.639 194.572 133.449C194.164 133.005 193.629 132.769 192.969 132.741C192.318 132.713 191.771 132.92 191.325 133.36C190.89 133.8 190.656 134.415 190.622 135.204C190.589 135.992 190.77 136.625 191.166 137.1C191.573 137.577 192.102 137.829 192.752 137.856C193.487 137.887 194.079 137.645 194.528 137.131C194.742 136.883 194.891 136.623 194.978 136.349L198.974 136.518C198.689 137.446 198.276 138.256 197.734 138.948C196.46 140.549 194.752 141.304 192.61 141.213C190.723 141.133 189.207 140.503 188.062 139.323ZM203.742 133.677L203.891 130.161L214.601 130.614L214.452 134.131L211.095 133.989L210.77 141.662L206.774 141.493L207.099 133.82L203.742 133.677ZM219.729 142.041L215.413 141.859L215.887 130.669L219.883 130.838L219.727 134.515L219.42 136.103L219.58 136.11L223 130.97L227.317 131.153L226.843 142.343L222.846 142.173L223.002 138.497L223.309 136.908L223.15 136.902L219.729 142.041ZM233.56 142.627L234.034 131.437L240.588 131.715C241.814 131.767 242.736 132.057 243.354 132.585C243.972 133.113 244.264 133.782 244.23 134.592C244.199 135.316 243.864 135.911 243.226 136.375C242.918 136.586 242.607 136.738 242.293 136.832L242.287 136.991C242.697 137.126 243.063 137.307 243.385 137.534C244.109 138.078 244.451 138.834 244.41 139.804C244.368 140.774 243.957 141.546 243.174 142.122C242.392 142.697 241.292 142.955 239.875 142.895L233.56 142.627ZM237.851 135.843L239.13 135.897C239.45 135.91 239.676 135.867 239.808 135.765C239.952 135.654 240.029 135.471 240.04 135.215C240.051 134.959 239.989 134.775 239.855 134.662C239.732 134.54 239.511 134.472 239.191 134.458L237.912 134.404L237.851 135.843ZM237.675 139.999L239.274 140.067C239.967 140.096 240.325 139.818 240.35 139.231C240.375 138.645 240.041 138.338 239.348 138.308L237.75 138.241L237.675 139.999ZM245.944 143.152L246.418 131.962L250.414 132.131L249.94 143.321L245.944 143.152ZM251.06 145.29L251.276 140.175L252.475 140.225L254.892 132.321L261.366 132.595L263.026 140.672L264.225 140.723L264.008 145.838L260.331 145.683L260.413 143.764L254.818 143.528L254.736 145.446L251.06 145.29ZM256.152 140.381L259.269 140.513L258.353 135.67L257.554 135.636L256.152 140.381ZM264.805 136.584L264.967 132.747L268.964 132.917L268.818 136.354C268.78 137.259 269.213 137.731 270.119 137.77C270.588 137.79 271.014 137.701 271.396 137.504C271.56 137.414 271.703 137.314 271.825 137.202L272.001 133.045L275.997 133.215L275.523 144.404L271.527 144.235L271.683 140.559C271.473 140.72 271.259 140.845 271.042 140.932C270.477 141.175 269.826 141.281 269.091 141.249C267.727 141.192 266.657 140.741 265.881 139.896C265.106 139.052 264.747 137.948 264.805 136.584ZM276.953 133.255L281.11 133.431L282.675 138.061L283.314 138.088L285.106 133.6L289.182 133.773L284.552 144.787L280.476 144.614L281.813 141.388L279.735 141.3L276.953 133.255ZM290.71 143.67C289.576 142.48 289.044 141.048 289.115 139.375C289.185 137.702 289.836 136.326 291.067 135.246C292.309 134.156 293.873 133.651 295.759 133.731C297.859 133.82 299.478 134.663 300.617 136.259C301.089 136.962 301.429 137.751 301.638 138.624L297.641 138.455C297.545 138.205 297.405 137.986 297.221 137.797C296.791 137.351 296.23 137.114 295.537 137.085C294.802 137.054 294.21 137.285 293.762 137.778C293.55 138.004 293.401 138.249 293.315 138.512L296.432 138.644L296.344 140.722L293.227 140.59C293.29 140.87 293.417 141.132 293.61 141.375C294.004 141.894 294.575 142.169 295.321 142.2C296.077 142.232 296.691 141.991 297.161 141.477C297.374 141.241 297.529 140.981 297.626 140.696L301.623 140.866C301.338 141.793 300.925 142.603 300.383 143.295C299.109 144.896 297.4 145.651 295.258 145.561C293.372 145.481 291.856 144.851 290.71 143.67ZM303.021 145.569L303.494 134.379L307.491 134.548L307.166 142.221L308.924 142.296L309.249 134.623L313.246 134.792L312.921 142.465L314.679 142.54L315.004 134.867L319.001 135.036L318.527 146.226L303.021 145.569ZM326.596 145.19C325.461 144 324.929 142.568 325 140.895C325.071 139.222 325.722 137.845 326.952 136.766C328.194 135.676 329.758 135.171 331.645 135.251C333.744 135.34 335.363 136.183 336.502 137.779C336.974 138.482 337.314 139.271 337.523 140.144L333.526 139.975C333.43 139.725 333.29 139.506 333.106 139.317C332.698 138.872 332.163 138.636 331.503 138.608C330.852 138.58 330.305 138.787 329.859 139.227C329.424 139.668 329.19 140.282 329.156 141.071C329.123 141.86 329.304 142.492 329.7 142.968C330.107 143.444 330.636 143.696 331.286 143.723C332.021 143.755 332.613 143.513 333.062 142.998C333.275 142.751 333.425 142.49 333.512 142.216L337.508 142.386C337.223 143.313 336.81 144.123 336.268 144.815C334.994 146.416 333.286 147.171 331.144 147.08C329.257 147.001 327.741 146.37 326.596 145.19ZM338.906 147.089L339.38 135.899L348.572 136.288L348.436 139.485L343.241 139.265L343.197 140.304L347.273 140.477L347.158 143.195L343.082 143.022L343.038 144.061L348.233 144.281L348.098 147.478L338.906 147.089ZM349.931 147.556L350.405 136.366L360.316 136.786L360.194 139.663L354.279 139.413L354.239 140.372L356.717 140.477C358.113 140.536 359.18 140.912 359.92 141.605C360.659 142.298 361.006 143.183 360.96 144.26C360.912 145.411 360.489 146.311 359.693 146.96C358.908 147.6 357.812 147.89 356.405 147.83L349.931 147.556ZM354.049 144.848L355.968 144.929C356.245 144.941 356.461 144.88 356.616 144.748C356.782 144.606 356.87 144.412 356.881 144.167C356.891 143.922 356.819 143.727 356.665 143.581C356.522 143.426 356.312 143.342 356.035 143.33L354.117 143.249L354.049 144.848ZM362.392 148.084L362.866 136.894L372.058 137.283L371.923 140.48L366.727 140.26L366.683 141.299L370.76 141.472L370.645 144.189L366.568 144.017L366.524 145.056L371.719 145.276L371.584 148.473L362.392 148.084ZM85.0127 149.988L85.1752 146.151L89.1716 146.321L89.026 149.758C88.9877 150.664 89.4214 151.136 90.3273 151.174C90.7962 151.194 91.2216 151.105 91.6037 150.908C91.7676 150.819 91.9106 150.718 92.0328 150.606L92.2089 146.449L96.2053 146.619L95.7314 157.809L91.7349 157.639L91.8907 153.963C91.6809 154.125 91.4675 154.249 91.2503 154.336C90.6848 154.579 90.0344 154.685 89.2991 154.654C87.935 154.596 86.8651 154.145 86.0895 153.301C85.3138 152.456 84.9549 151.352 85.0127 149.988ZM96.6874 157.849L100.279 146.791L106.593 147.059L109.156 158.377L105.16 158.208L104.688 156.106L101.251 155.961L100.604 158.015L96.6874 157.849ZM102.009 153.19L104.167 153.282L103.573 150.294L102.934 150.267L102.009 153.19ZM111.152 157.084C110.018 155.894 109.486 154.462 109.557 152.789C109.628 151.116 110.278 149.74 111.509 148.66C112.751 147.57 114.315 147.065 116.202 147.145C118.301 147.234 119.92 148.077 121.059 149.673C121.531 150.376 121.871 151.165 122.08 152.038L118.083 151.869C117.987 151.619 117.847 151.4 117.663 151.211C117.255 150.766 116.72 150.53 116.059 150.502C115.409 150.475 114.861 150.681 114.416 151.121C113.981 151.562 113.746 152.177 113.713 152.965C113.68 153.754 113.861 154.386 114.257 154.862C114.664 155.338 115.193 155.59 115.843 155.618C116.578 155.649 117.17 155.407 117.619 154.892C117.832 154.645 117.982 154.384 118.068 154.11L122.065 154.28C121.78 155.207 121.367 156.017 120.825 156.709C119.551 158.31 117.843 159.065 115.701 158.975C113.814 158.895 112.298 158.265 111.152 157.084ZM122.988 151.276L123.137 147.759L133.848 148.213L133.699 151.73L130.342 151.588L130.017 159.261L126.02 159.091L126.345 151.418L122.988 151.276ZM138.976 159.64L134.66 159.457L135.134 148.267L139.13 148.437L138.974 152.113L138.667 153.702L138.827 153.709L142.247 148.569L146.563 148.751L146.089 159.941L142.093 159.772L142.249 156.095L142.556 154.507L142.396 154.5L138.976 159.64ZM148.167 160.029L148.641 148.839L152.637 149.009L152.475 152.845L155.672 152.981L155.834 149.144L159.831 149.313L159.357 160.503L155.36 160.334L155.523 156.498L152.326 156.362L152.163 160.199L148.167 160.029ZM161.44 160.592L161.914 149.402L165.91 149.571L165.755 153.248L166.554 153.281L168.788 149.693L173.264 149.882L169.847 154.942L173.109 161.086L168.633 160.896L166.561 156.885L165.602 156.844L165.436 160.761L161.44 160.592ZM174.926 159.785C173.802 158.606 173.275 157.175 173.346 155.491C173.418 153.807 174.063 152.425 175.284 151.345C176.504 150.265 178.073 149.766 179.991 149.847C181.91 149.928 183.431 150.558 184.555 151.738C185.68 152.917 186.206 154.349 186.135 156.032C186.064 157.716 185.418 159.098 184.198 160.178C182.978 161.258 181.408 161.758 179.49 161.676C177.572 161.595 176.051 160.965 174.926 159.785ZM178.205 153.823C177.77 154.264 177.536 154.878 177.503 155.667C177.469 156.455 177.651 157.088 178.047 157.564C178.454 158.04 178.982 158.292 179.632 158.319C180.282 158.347 180.825 158.14 181.26 157.7C181.706 157.259 181.945 156.645 181.979 155.856C182.012 155.068 181.825 154.435 181.419 153.959C181.022 153.483 180.499 153.231 179.849 153.204C179.199 153.176 178.651 153.383 178.205 153.823ZM187.502 161.695L187.976 150.505L191.973 150.675L191.803 154.671L193.082 154.725C193.362 153.926 193.765 153.222 194.293 152.615C195.515 151.225 197.117 150.572 199.1 150.656C200.901 150.732 202.353 151.365 203.455 152.554C204.558 153.743 205.074 155.169 205.004 156.832C204.933 158.494 204.298 159.871 203.099 160.963C201.9 162.054 200.4 162.562 198.599 162.486C196.712 162.406 195.191 161.647 194.035 160.21C193.539 159.57 193.174 158.861 192.94 158.082L191.661 158.028L191.499 161.865L187.502 161.695ZM197.49 154.624C197.098 155.055 196.885 155.676 196.851 156.486C196.817 157.296 196.977 157.933 197.331 158.396C197.685 158.86 198.155 159.104 198.741 159.129C199.327 159.153 199.816 158.95 200.208 158.518C200.6 158.086 200.813 157.465 200.847 156.656C200.882 155.846 200.722 155.209 200.368 154.746C200.014 154.282 199.544 154.038 198.958 154.013C198.371 153.988 197.882 154.192 197.49 154.624ZM211.004 162.691L211.478 151.501L218.032 151.778C219.258 151.83 220.18 152.12 220.798 152.648C221.416 153.176 221.708 153.845 221.674 154.655C221.643 155.38 221.308 155.974 220.669 156.438C220.362 156.649 220.051 156.802 219.737 156.895L219.731 157.055C220.141 157.19 220.507 157.371 220.829 157.598C221.553 158.141 221.895 158.897 221.853 159.867C221.812 160.837 221.401 161.61 220.618 162.185C219.836 162.761 218.736 163.018 217.319 162.958L211.004 162.691ZM215.295 155.906L216.574 155.96C216.894 155.974 217.12 155.93 217.252 155.829C217.396 155.718 217.473 155.534 217.484 155.278C217.495 155.023 217.433 154.838 217.299 154.726C217.176 154.603 216.955 154.535 216.635 154.522L215.356 154.468L215.295 155.906ZM215.119 160.063L216.718 160.13C217.41 160.16 217.769 159.881 217.794 159.295C217.819 158.709 217.485 158.401 216.792 158.372L215.194 158.304L215.119 160.063ZM223.388 163.215L223.861 152.025L233.053 152.415L232.918 155.612L227.722 155.392L227.678 156.431L231.755 156.603L231.64 159.321L227.563 159.148L227.519 160.187L232.715 160.407L232.579 163.604L223.388 163.215ZM233.294 163.635L236.805 152.573L243.119 152.841L245.603 164.156L241.606 163.987L240.093 156.236L239.373 156.205L237.21 163.801L233.294 163.635ZM250.878 164.379L246.562 164.197L247.036 153.007L251.032 153.176L250.876 156.853L250.569 158.441L250.729 158.448L254.149 153.308L258.465 153.491L257.992 164.681L253.995 164.512L254.151 160.835L254.458 159.246L254.298 159.24L250.878 164.379ZM260.069 164.769L260.543 153.579L264.539 153.748L264.384 157.425L265.183 157.459L267.417 153.87L271.893 154.059L268.476 159.119L271.739 165.263L267.263 165.073L265.19 161.062L264.231 161.022L264.065 164.938L260.069 164.769ZM273.555 163.963C272.431 162.783 271.904 161.352 271.976 159.668C272.047 157.984 272.693 156.602 273.913 155.522C275.133 154.442 276.702 153.943 278.62 154.024C280.539 154.105 282.06 154.736 283.184 155.915C284.309 157.094 284.835 158.526 284.764 160.21C284.693 161.893 284.047 163.275 282.827 164.355C281.607 165.435 280.038 165.935 278.119 165.854C276.201 165.772 274.68 165.142 273.555 163.963ZM276.834 158C276.399 158.441 276.165 159.055 276.132 159.844C276.098 160.633 276.28 161.265 276.676 161.741C277.083 162.217 277.611 162.469 278.261 162.497C278.912 162.524 279.454 162.318 279.889 161.877C280.335 161.437 280.574 160.822 280.608 160.034C280.641 159.245 280.454 158.613 280.048 158.136C279.651 157.66 279.128 157.409 278.478 157.381C277.828 157.354 277.28 157.56 276.834 158ZM286.131 165.873L286.605 154.683L290.602 154.852L290.128 166.042L286.131 165.873ZM289.383 153.743C289.119 153.444 288.996 153.07 289.015 152.623C289.033 152.175 289.187 151.819 289.476 151.553C289.776 151.278 290.15 151.149 290.597 151.168C291.045 151.187 291.401 151.347 291.666 151.646C291.942 151.935 292.071 152.304 292.052 152.751C292.033 153.199 291.873 153.561 291.573 153.836C291.285 154.101 290.916 154.225 290.469 154.206C290.021 154.187 289.659 154.033 289.383 153.743ZM285.707 153.588C285.442 153.288 285.319 152.915 285.338 152.467C285.357 152.019 285.511 151.663 285.799 151.398C286.099 151.122 286.473 150.994 286.921 151.013C287.368 151.032 287.725 151.191 287.99 151.49C288.266 151.78 288.394 152.148 288.375 152.596C288.356 153.043 288.197 153.405 287.897 153.68C287.608 153.946 287.24 154.069 286.792 154.05C286.345 154.031 285.983 153.877 285.707 153.588ZM298.201 165.007C297.066 163.816 296.534 162.384 296.605 160.711C296.676 159.038 297.327 157.662 298.558 156.582C299.8 155.492 301.364 154.987 303.25 155.067C305.35 155.156 306.969 155.999 308.107 157.595C308.579 158.298 308.92 159.087 309.128 159.96L305.132 159.791C305.036 159.542 304.896 159.322 304.711 159.133C304.303 158.688 303.769 158.452 303.108 158.424C302.458 158.397 301.91 158.603 301.464 159.043C301.029 159.484 300.795 160.099 300.762 160.887C300.728 161.676 300.91 162.308 301.306 162.784C301.713 163.26 302.241 163.512 302.891 163.54C303.627 163.571 304.219 163.329 304.668 162.814C304.881 162.567 305.031 162.306 305.117 162.033L309.113 162.202C308.829 163.129 308.415 163.939 307.874 164.631C306.599 166.232 304.891 166.987 302.749 166.897C300.863 166.817 299.347 166.187 298.201 165.007ZM310.511 166.905L310.985 155.715L314.982 155.884L314.508 167.074L310.511 166.905ZM316.588 167.162L317.062 155.973L322.417 156.199L323.715 161.459L324.115 161.476L325.854 156.345L331.129 156.568L330.655 167.758L326.659 167.589L326.875 162.49L327.176 161.045L327.016 161.038L325.568 164.981L321.891 164.825L320.782 160.774L320.622 160.767L320.8 162.232L320.584 167.332L316.588 167.162ZM332.779 159.2L332.887 156.643L336.085 156.778L335.976 159.336L335.519 160.678L333.121 160.576L332.779 159.2ZM337.373 168.043L337.847 156.853L341.844 157.022L341.37 168.212L337.373 168.043ZM340.626 155.914C340.361 155.614 340.238 155.241 340.257 154.793C340.276 154.345 340.43 153.989 340.718 153.724C341.018 153.448 341.392 153.32 341.84 153.339C342.287 153.358 342.644 153.517 342.908 153.816C343.184 154.106 343.313 154.474 343.294 154.922C343.275 155.369 343.116 155.731 342.816 156.006C342.527 156.272 342.159 156.395 341.711 156.376C341.263 156.357 340.902 156.203 340.626 155.914ZM336.949 155.758C336.684 155.458 336.561 155.085 336.58 154.637C336.599 154.19 336.753 153.833 337.042 153.568C337.342 153.292 337.715 153.164 338.163 153.183C338.611 153.202 338.967 153.361 339.232 153.661C339.508 153.95 339.636 154.318 339.617 154.766C339.598 155.213 339.439 155.575 339.139 155.851C338.85 156.116 338.482 156.239 338.034 156.22C337.587 156.201 337.225 156.047 336.949 155.758Z" fill="#FFF7EA"/>
<rect x="55.0879" y="105.041" width="352" height="72" rx="7" transform="rotate(2.42519 55.0879 105.041)" stroke="#404040" stroke-width="2" shape-rendering="crispEdges"/>
</g>
<g filter="url(#filter1_d_1401_642)">
<rect width="385" height="95" rx="8" transform="matrix(-0.997635 0.0687372 0.0687372 0.997635 302.687 0.477539)" fill="#5D74F2" shape-rendering="crispEdges"/>
<path d="M71.4961 46.101C70.2364 45.0438 69.549 43.6798 69.4339 42.0091C69.3188 40.3384 69.813 38.8984 70.9165 37.689C72.0299 36.4682 73.5283 35.793 75.4119 35.6632C77.5082 35.5188 79.2108 36.1766 80.5196 37.6368C81.0667 38.2834 81.4923 39.0292 81.7964 39.8743L77.8059 40.1492C77.6826 39.9118 77.519 39.7093 77.3149 39.5416C76.86 39.1452 76.3026 38.9698 75.6428 39.0152C74.9937 39.06 74.4721 39.3258 74.0779 39.8127C73.6944 40.2989 73.5298 40.9357 73.5841 41.7232C73.6383 42.5106 73.8887 43.1189 74.3353 43.5478C74.7925 43.9761 75.3456 44.1679 75.9947 44.1231C76.729 44.0725 77.2906 43.7666 77.6796 43.2052C77.8642 42.9358 77.9842 42.6603 78.0397 42.3784L82.0302 42.1035C81.85 43.0568 81.529 43.9076 81.0674 44.6557C79.9785 46.388 78.3646 47.3278 76.2257 47.4752C74.3422 47.605 72.7656 47.1469 71.4961 46.101ZM82.5119 46.7213L84.7748 35.3388L91.0799 34.9044L94.8027 45.8745L90.8122 46.1494L88.4487 38.6141L87.7304 38.6636L86.4226 46.4519L82.5119 46.7213ZM96.6311 44.3692C95.3828 43.3219 94.7008 41.9575 94.5849 40.2762C94.4691 38.5949 94.9576 37.1499 96.0504 35.9412C97.1433 34.7326 98.6474 34.0623 100.563 33.9303C102.478 33.7983 104.06 34.256 105.308 35.3033C106.557 36.3507 107.239 37.715 107.355 39.3964C107.47 41.0777 106.982 42.5227 105.889 43.7314C104.796 44.94 103.292 45.6103 101.377 45.7423C99.4613 45.8743 97.8794 45.4166 96.6311 44.3692ZM99.2289 38.0798C98.8454 38.566 98.6808 39.2028 98.7351 39.9903C98.7893 40.7777 99.0397 41.3859 99.4863 41.8149C99.9435 42.2432 100.497 42.435 101.146 42.3902C101.795 42.3455 102.311 42.0801 102.695 41.5939C103.089 41.107 103.259 40.4698 103.204 39.6823C103.15 38.8948 102.895 38.287 102.437 37.8587C101.991 37.4297 101.443 37.2376 100.794 37.2823C100.145 37.3271 99.6231 37.5929 99.2289 38.0798ZM109.341 44.8728L108.572 33.6992L115.116 33.2483C116.34 33.164 117.288 33.3499 117.961 33.8061C118.634 34.2622 118.998 34.8947 119.054 35.7034C119.104 36.4271 118.837 37.0549 118.254 37.5869C117.971 37.8309 117.679 38.0168 117.378 38.1444L117.389 38.3041C117.812 38.3925 118.196 38.5318 118.54 38.7219C119.32 39.1814 119.744 39.8953 119.811 40.8637C119.877 41.832 119.554 42.6455 118.84 43.3041C118.126 43.9628 117.062 44.3408 115.646 44.4383L109.341 44.8728ZM112.854 37.6543L114.13 37.5663C114.45 37.5443 114.67 37.4757 114.79 37.3605C114.92 37.2339 114.977 37.0429 114.959 36.7875C114.941 36.5321 114.86 36.356 114.714 36.2591C114.578 36.1508 114.351 36.1077 114.032 36.1297L112.755 36.2177L112.854 37.6543ZM113.139 41.8044L114.736 41.6944C115.427 41.6468 115.753 41.3303 115.713 40.745C115.672 40.1598 115.306 39.891 114.615 39.9386L113.018 40.0486L113.139 41.8044ZM122.889 42.5601C121.641 41.5127 120.959 40.1484 120.843 38.467C120.727 36.7857 121.215 35.3407 122.308 34.1321C123.401 32.9234 124.905 32.2531 126.821 32.1211C128.736 31.9891 130.318 32.4468 131.566 33.4942C132.814 34.5415 133.497 35.9059 133.612 37.5872C133.728 39.2685 133.24 40.7135 132.147 41.9222C131.054 43.1308 129.55 43.8011 127.634 43.9331C125.719 44.0651 124.137 43.6074 122.889 42.5601ZM125.487 36.2706C125.103 36.7568 124.939 37.3936 124.993 38.1811C125.047 38.9686 125.297 39.5768 125.744 40.0058C126.201 40.434 126.754 40.6258 127.403 40.5811C128.053 40.5363 128.569 40.2709 128.952 39.7847C129.347 39.2978 129.516 38.6606 129.462 37.8731C129.408 37.0857 129.152 36.4778 128.695 36.0496C128.249 35.6206 127.701 35.4285 127.052 35.4732C126.402 35.5179 125.881 35.7837 125.487 36.2706ZM143.932 38.2394L147.386 33.6712L149.508 35.3694L147.443 37.9975L149.848 40.3176L147.98 42.2908L143.932 38.2394ZM139.223 38.5639L142.677 33.9956L144.799 35.6938L142.734 38.3219L145.14 40.6421L143.271 42.6152L139.223 38.5639ZM151.569 41.9633L150.799 30.7898L154.789 30.5148L155.053 34.3457L158.246 34.1258L157.982 30.2949L161.972 30.0199L162.742 41.1934L158.752 41.4684L158.488 37.6375L155.295 37.8574L155.559 41.6883L151.569 41.9633ZM164.822 41.0501L164.053 29.8766L173.231 29.2442L173.451 32.4366L168.263 32.7941L168.334 33.8316L172.405 33.5512L172.592 36.2647L168.521 36.5452L168.593 37.5827L173.781 37.2253L174.001 40.4177L164.822 41.0501ZM175.831 40.2916L175.061 29.1181L179.052 28.8431L179.58 36.505L184.608 36.1585L184.85 39.6702L175.831 40.2916ZM186.123 39.5825L185.353 28.409L189.344 28.134L189.872 35.7959L194.9 35.4494L195.142 38.9611L186.123 39.5825ZM197.597 37.4126C196.349 36.3653 195.667 35.001 195.551 33.3196C195.435 31.6383 195.924 30.1933 197.017 28.9846C198.11 27.776 199.614 27.1057 201.529 26.9737C203.445 26.8417 205.026 27.2994 206.275 28.3467C207.523 29.3941 208.205 30.7584 208.321 32.4398C208.437 34.1211 207.948 35.5661 206.855 36.7748C205.763 37.9834 204.258 38.6537 202.343 38.7857C200.428 38.9177 198.846 38.46 197.597 37.4126ZM200.195 31.1232C199.812 31.6094 199.647 32.2462 199.701 33.0337C199.756 33.8211 200.006 34.4294 200.453 34.8583C200.91 35.2866 201.463 35.4784 202.112 35.4336C202.761 35.3889 203.277 35.1235 203.661 34.6373C204.055 34.1504 204.225 33.5132 204.171 32.7257C204.116 31.9383 203.861 31.3304 203.404 30.9021C202.957 30.4732 202.409 30.281 201.76 30.3257C201.111 30.3705 200.589 30.6363 200.195 31.1232ZM214.496 35.8634L216.561 33.2353L214.155 30.9151L216.024 28.942L220.072 32.9933L216.618 37.5616L214.496 35.8634ZM209.788 36.1878L211.852 33.5597L209.447 31.2396L211.315 29.2664L215.364 33.3178L211.909 37.886L209.788 36.1878ZM226.355 36.8105L225.585 25.637L235.482 24.9551L235.68 27.8283L229.774 28.2352L229.84 29.1929L232.314 29.0225C233.708 28.9264 234.811 29.1819 235.622 29.7889C236.434 30.3958 236.877 31.2367 236.951 32.3115C237.03 33.4608 236.71 34.4023 235.991 35.1362C235.282 35.8587 234.225 36.2683 232.82 36.3651L226.355 36.8105ZM230.148 33.6623L232.063 33.5304C232.34 33.5113 232.548 33.4275 232.687 33.2789C232.837 33.1189 232.903 32.9165 232.886 32.6718C232.869 32.427 232.776 32.241 232.607 32.1136C232.448 31.9749 232.23 31.9151 231.953 31.9342L230.038 32.0661L230.148 33.6623ZM236.599 24.8781L240.749 24.5922L242.819 29.0204L243.457 28.9764L244.74 24.3172L248.81 24.0368L245.43 35.4962L241.36 35.7767L242.331 32.4219L240.256 32.5649L236.599 24.8781ZM248.843 37.1856L248.491 32.0777L249.688 31.9952L251.213 23.8712L257.678 23.4258L260.223 31.2694L261.42 31.1869L261.772 36.2948L258.101 36.5477L257.969 34.6323L252.382 35.0172L252.514 36.9327L248.843 37.1856ZM253.359 31.7423L256.472 31.5278L255.025 26.8162L254.227 26.8712L253.359 31.7423ZM262.842 34.2965L262.073 23.123L271.251 22.4906L271.471 25.683L266.283 26.0405L266.355 27.078L270.425 26.7976L270.612 29.5111L266.542 29.7916L266.613 30.8291L271.801 30.4717L272.021 33.6641L262.842 34.2965ZM51.3533 69.9179L53.6961 58.53L60.0011 58.0955L63.8038 69.0601L59.8132 69.335L59.1116 67.2985L55.6797 67.5349L55.264 69.6485L51.3533 69.9179ZM56.1257 64.6975L58.2806 64.5491L57.3589 61.6456L56.7204 61.6896L56.1257 64.6975ZM65.6444 67.554C64.3847 66.4968 63.6973 65.1328 63.5822 63.4621C63.4671 61.7914 63.9613 60.3513 65.0648 59.142C66.1782 57.9212 67.6766 57.2459 69.5602 57.1162C71.6565 56.9717 73.3591 57.6296 74.6679 59.0897C75.215 59.7363 75.6406 60.4822 75.9447 61.3273L71.9542 61.6022C71.8309 61.3648 71.6672 61.1622 71.4632 60.9945C71.0083 60.5982 70.4509 60.4228 69.7911 60.4682C69.142 60.5129 68.6204 60.7788 68.2262 61.2657C67.8427 61.7518 67.6781 62.3887 67.7324 63.1761C67.7866 63.9636 68.037 64.5718 68.4836 65.0008C68.9408 65.4291 69.4939 65.6208 70.143 65.5761C70.8773 65.5255 71.4389 65.2195 71.8279 64.6581C72.0125 64.3888 72.1325 64.1132 72.188 63.8314L76.1785 63.5565C75.9983 64.5098 75.6773 65.3605 75.2156 66.1087C74.1268 67.841 72.5129 68.7808 70.374 68.9282C68.4905 69.0579 66.9139 68.5999 65.6444 67.554ZM79.2717 66.6151C78.0234 65.5677 77.3413 64.2034 77.2255 62.5221C77.1096 60.8407 77.5981 59.3957 78.691 58.1871C79.7838 56.9784 81.288 56.3081 83.2034 56.1761C85.1189 56.0442 86.7008 56.5018 87.949 57.5492C89.1973 58.5965 89.8794 59.9609 89.9952 61.6422C90.1111 63.3236 89.6226 64.7686 88.5297 65.9772C87.4369 67.1859 85.9327 67.8562 84.0173 67.9881C82.1018 68.1201 80.5199 67.6624 79.2717 66.6151ZM81.8695 60.3256C81.486 60.8118 81.3214 61.4486 81.3756 62.2361C81.4299 63.0236 81.6803 63.6318 82.1268 64.0608C82.584 64.489 83.1372 64.6808 83.7863 64.6361C84.4354 64.5914 84.9518 64.3259 85.3352 63.8397C85.7294 63.3528 85.8993 62.7156 85.8451 61.9282C85.7908 61.1407 85.5351 60.5328 85.0779 60.1046C84.6313 59.6756 84.0835 59.4835 83.4344 59.5282C82.7853 59.5729 82.2636 59.8387 81.8695 60.3256ZM91.982 67.1186L91.2121 55.9451L95.2026 55.6702L95.7305 63.332L98.4441 63.145L97.9162 55.4832L101.907 55.2082L102.435 62.8701L103.712 62.7821L104.086 68.2092L100.414 68.4622L100.282 66.5467L91.982 67.1186ZM105.469 66.1893L104.7 55.0158L108.69 54.7409L109.46 65.9144L105.469 66.1893ZM111.537 65.7713L110.767 54.5978L114.758 54.3228L115.032 58.3134L116.309 58.2254C116.498 57.3998 116.821 56.6558 117.278 55.9935C118.339 54.477 119.859 53.6505 121.839 53.5142C123.637 53.3903 125.15 53.858 126.378 54.9175C127.606 55.9769 128.277 57.3367 128.391 58.9967C128.505 60.6568 128.027 62.0957 126.956 63.3136C125.886 64.5314 124.451 65.2022 122.653 65.3262C120.769 65.4559 119.173 64.8709 117.865 63.5711C117.301 62.9898 116.859 62.3253 116.54 61.5774L115.263 61.6654L115.527 65.4963L111.537 65.7713ZM120.679 57.6356C120.338 58.1082 120.195 58.7489 120.25 59.5576C120.306 60.3664 120.536 60.9814 120.939 61.4027C121.342 61.824 121.836 62.0144 122.422 61.9741C123.007 61.9338 123.47 61.6773 123.812 61.2047C124.154 60.7321 124.297 60.0914 124.241 59.2827C124.185 58.4739 123.956 57.8589 123.552 57.4376C123.149 57.0164 122.655 56.8259 122.07 56.8662C121.484 56.9065 121.021 57.163 120.679 57.6356ZM130.371 64.4736L129.601 53.3001L136.146 52.8492C137.369 52.7649 138.318 52.9508 138.991 53.4069C139.664 53.8631 140.028 54.4955 140.084 55.3043C140.134 56.0279 139.867 56.6557 139.283 57.1878C139.001 57.4318 138.709 57.6176 138.407 57.7453L138.418 57.9049C138.842 57.9934 139.225 58.1326 139.57 58.3227C140.35 58.7822 140.773 59.4961 140.84 60.4645C140.907 61.4329 140.583 62.2464 139.87 62.905C139.156 63.5636 138.091 63.9417 136.676 64.0392L130.371 64.4736ZM133.883 57.2551L135.16 57.1671C135.479 57.1451 135.699 57.0765 135.819 56.9613C135.95 56.8347 136.006 56.6437 135.988 56.3883C135.971 56.1329 135.889 55.9568 135.744 55.8599C135.608 55.7517 135.38 55.7085 135.061 55.7305L133.784 55.8185L133.883 57.2551ZM134.169 61.4053L135.765 61.2953C136.457 61.2476 136.783 60.9312 136.742 60.3459C136.702 59.7606 136.336 59.4918 135.644 59.5395L134.048 59.6494L134.169 61.4053ZM141.619 63.6986L143.961 52.3107L150.266 51.8762L154.069 62.8408L150.079 63.1157L149.377 61.0792L145.945 61.3156L145.529 63.4292L141.619 63.6986ZM146.391 58.4782L148.546 58.3298L147.624 55.4263L146.986 55.4702L146.391 58.4782ZM153.058 55.2123L152.816 51.7006L163.511 50.9637L163.753 54.4754L160.401 54.7063L160.929 62.3682L156.938 62.6431L156.41 54.9813L153.058 55.2123ZM169.874 61.7518L165.564 62.0488L164.795 50.8753L168.785 50.6003L169.038 54.2716L168.909 55.8843L169.068 55.8733L171.898 50.3858L176.207 50.0889L176.977 61.2624L172.987 61.5374L172.734 57.8661L172.863 56.2534L172.704 56.2644L169.874 61.7518ZM180.25 59.6577C178.99 58.6004 178.303 57.2364 178.188 55.5657C178.073 53.895 178.567 52.455 179.671 51.2456C180.784 50.0248 182.282 49.3496 184.166 49.2198C186.262 49.0754 187.965 49.7332 189.274 51.1934C189.821 51.84 190.246 52.5858 190.55 53.4309L186.56 53.7059C186.437 53.4684 186.273 53.2659 186.069 53.0982C185.614 52.7018 185.057 52.5264 184.397 52.5719C183.748 52.6166 183.226 52.8824 182.832 53.3693C182.449 53.8555 182.284 54.4923 182.338 55.2798C182.392 56.0672 182.643 56.6755 183.089 57.1045C183.547 57.5327 184.1 57.7245 184.749 57.6797C185.483 57.6292 186.045 57.3232 186.434 56.7618C186.618 56.4924 186.738 56.2169 186.794 55.9351L190.784 55.6601C190.604 56.6134 190.283 57.4642 189.821 58.2123C188.733 59.9446 187.119 60.8844 184.98 61.0318C183.096 61.1616 181.52 60.7035 180.25 59.6577ZM192.695 60.1795L191.925 49.0059L195.916 48.731L196.125 51.7638L197.96 51.6373C199.482 51.5325 200.7 51.8335 201.615 52.5403C202.529 53.2364 203.027 54.1804 203.109 55.3722C203.191 56.5641 202.828 57.5728 202.019 58.3984C201.209 59.2133 200.043 59.6732 198.521 59.778L192.695 60.1795ZM196.471 56.7919L198.147 56.6764C198.424 56.6573 198.646 56.5511 198.815 56.3578C198.983 56.1644 199.058 55.9294 199.039 55.6527C199.02 55.376 198.914 55.1535 198.72 54.985C198.527 54.8166 198.292 54.7419 198.015 54.761L196.339 54.8764L196.471 56.7919ZM206.606 47.9944L210.756 47.7085L212.825 52.1367L213.464 52.0927L214.747 47.4335L218.817 47.1531L215.437 58.6125L211.366 58.893L212.338 55.5383L210.263 55.6812L206.606 47.9944ZM223.854 50.3344L223.612 46.8227L234.307 46.0859L234.549 49.5975L231.196 49.8285L231.724 57.4903L227.734 57.7653L227.206 50.1034L223.854 50.3344ZM236.36 57.1709L235.59 45.9974L244.769 45.365L244.989 48.5575L239.801 48.9149L239.872 49.9524L243.943 49.672L244.13 52.3855L240.059 52.666L240.131 53.7035L245.319 53.3461L245.539 56.5385L236.36 57.1709ZM247.369 56.4124L246.599 45.2389L256.496 44.557L256.694 47.4302L250.788 47.8371L250.854 48.7949L253.328 48.6244C254.722 48.5283 255.825 48.7838 256.636 49.3908C257.448 49.9978 257.891 50.8386 257.965 51.9134C258.044 53.0627 257.724 54.0043 257.005 54.7381C256.296 55.4606 255.239 55.8702 253.834 55.967L247.369 56.4124ZM251.162 53.2643L253.077 53.1323C253.354 53.1132 253.562 53.0294 253.701 52.8808C253.851 52.7208 253.917 52.5184 253.9 52.2737C253.883 52.0289 253.79 51.8429 253.621 51.7156C253.462 51.5768 253.244 51.517 252.967 51.5361L251.052 51.668L251.162 53.2643ZM259.812 55.5551L259.042 44.3816L268.221 43.7492L268.441 46.9416L263.253 47.299L263.324 48.3366L267.395 48.0561L267.582 50.7697L263.511 51.0502L263.583 52.0877L268.77 51.7303L268.99 54.9227L259.812 55.5551ZM33.4276 88.2735L37.4181 87.9986C37.53 88.2261 37.6493 88.405 37.7759 88.5352C38.0995 88.8872 38.538 89.0441 39.0913 89.0059C40.0491 88.9399 40.5078 88.6143 40.4675 88.029C40.4271 87.4438 39.9281 87.1841 38.9704 87.2501L37.454 87.3546L37.289 84.9603L38.8054 84.8558C39.1459 84.8323 39.3969 84.7509 39.5584 84.6114C39.7298 84.4606 39.8081 84.2788 39.7934 84.066C39.7788 83.8532 39.6766 83.6891 39.4869 83.5739C39.3071 83.4473 39.0469 83.3957 38.7064 83.4192C38.2914 83.4478 37.96 83.6043 37.7123 83.8886C37.5934 84.0251 37.5175 84.164 37.4844 84.3053L33.4939 84.5802C33.6235 83.8229 33.8927 83.1521 34.3015 82.5679C35.2435 81.1879 36.7468 80.4268 38.8112 80.2846C40.4287 80.1731 41.6783 80.3864 42.56 80.9244C43.4418 81.4624 43.9112 82.1464 43.9684 82.9764C44.0205 83.732 43.7438 84.3712 43.1383 84.894C42.9067 85.1024 42.5981 85.2787 42.2124 85.4229L42.2234 85.5825C42.6465 85.671 43.0303 85.8103 43.3749 86.0004C44.155 86.4598 44.5784 87.1738 44.6451 88.1421C44.7133 89.1318 44.298 90.0104 43.3993 90.778C42.5006 91.5456 41.1893 91.9888 39.4654 92.1076C37.2094 92.263 35.5329 91.6728 34.4358 90.3371C33.9456 89.74 33.6096 89.0522 33.4276 88.2735ZM50.3542 92.9611L50.0023 87.8532L51.1995 87.7707L52.7246 79.6467L59.1893 79.2013L61.7345 87.0449L62.9316 86.9624L63.2836 92.0703L59.6123 92.3232L59.4803 90.4078L53.8935 90.7927L54.0255 92.7082L50.3542 92.9611ZM54.8708 87.5178L57.9834 87.3033L56.5361 82.5917L55.738 82.6466L54.8708 87.5178ZM65.5361 88.6113C64.2879 87.5639 63.6058 86.1996 63.49 84.5182C63.3741 82.8369 63.8626 81.3919 64.9554 80.1832C66.0483 78.9746 67.5524 78.3043 69.4679 78.1723C71.3833 78.0403 72.9652 78.498 74.2135 79.5454C75.4618 80.5927 76.1438 81.957 76.2597 83.6384C76.3755 85.3197 75.887 86.7647 74.7942 87.9734C73.7013 89.182 72.1972 89.8523 70.2817 89.9843C68.3663 90.1163 66.7844 89.6586 65.5361 88.6113ZM68.134 82.3218C67.7505 82.808 67.5859 83.4448 67.6401 84.2323C67.6944 85.0197 67.9448 85.628 68.3913 86.057C68.8485 86.4852 69.4017 86.677 70.0508 86.6323C70.6999 86.5875 71.2162 86.3221 71.5997 85.8359C71.9938 85.349 72.1638 84.7118 72.1095 83.9243C72.0553 83.1369 71.7995 82.529 71.3424 82.1008C70.8958 81.6718 70.348 81.4796 69.6988 81.5244C69.0497 81.5691 68.5281 81.8349 68.134 82.3218ZM78.2464 89.1148L77.4766 77.9413L82.8239 77.5728L84.6977 82.6561L85.0968 82.6286L86.2558 77.3364L91.5233 76.9734L92.2931 88.147L88.3026 88.4219L87.9518 83.33L88.0911 81.8609L87.9315 81.8719L86.9295 85.9504L83.2582 86.2034L81.7062 82.3008L81.5466 82.3118L81.8861 83.7479L82.237 88.8398L78.2464 89.1148ZM93.2509 88.081L95.5936 76.693L101.899 76.2586L105.701 87.2231L101.711 87.4981L101.009 85.4615L97.5773 85.6979L97.1616 87.8115L93.2509 88.081ZM98.0233 82.8606L100.178 82.7121L99.2565 79.8086L98.618 79.8526L98.0233 82.8606ZM106.655 87.1574L105.885 75.9839L109.876 75.7089L110.404 83.3708L112.16 83.2498L111.632 75.588L115.622 75.313L116.15 82.9748L117.906 82.8539L117.378 75.192L121.369 74.9171L122.139 86.0906L106.655 87.1574ZM124.211 85.9478L123.441 74.7743L127.432 74.4993L127.696 78.3303L130.888 78.1103L130.624 74.2794L134.615 74.0044L135.385 85.1779L131.394 85.4529L131.13 81.622L127.938 81.8419L128.202 85.6728L124.211 85.9478ZM137.465 85.0346L136.695 73.8611L140.685 73.5862L141.455 84.7597L137.465 85.0346ZM143.532 84.6166L142.762 73.4431L148.11 73.0746L149.984 78.1578L150.383 78.1304L151.542 72.8382L156.809 72.4752L157.579 83.6487L153.588 83.9237L153.238 78.8318L153.377 77.3627L153.217 77.3737L152.215 81.4522L148.544 81.7052L146.992 77.8026L146.832 77.8136L147.172 79.2497L147.523 84.3416L143.532 84.6166ZM163.38 79.3198L167.37 79.0448C167.482 79.2724 167.601 79.4513 167.728 79.5815C168.051 79.9334 168.49 80.0903 169.043 80.0522C170.001 79.9862 170.46 79.6606 170.419 79.0753C170.379 78.49 169.88 78.2304 168.922 78.2964L167.406 78.4009L167.241 76.0065L168.757 75.9021C169.098 75.8786 169.349 75.7972 169.51 75.6577C169.682 75.5069 169.76 75.3251 169.745 75.1123C169.731 74.8994 169.629 74.7354 169.439 74.6202C169.259 74.4936 168.999 74.442 168.658 74.4655C168.243 74.4941 167.912 74.6505 167.664 74.9349C167.545 75.0714 167.469 75.2103 167.436 75.3516L163.446 75.6265C163.575 74.8691 163.845 74.1984 164.253 73.6142C165.195 72.2342 166.699 71.4731 168.763 71.3308C170.381 71.2194 171.63 71.4327 172.512 71.9707C173.394 72.5087 173.863 73.1927 173.92 74.0227C173.972 74.7783 173.696 75.4175 173.09 75.9403C172.859 76.1487 172.55 76.325 172.164 76.4692L172.175 76.6288C172.598 76.7173 172.982 76.8566 173.327 77.0467C174.107 77.5061 174.53 78.2201 174.597 79.1884C174.665 80.1781 174.25 81.0567 173.351 81.8243C172.453 82.5919 171.141 83.0351 169.417 83.1538C167.161 83.3093 165.485 82.7191 164.388 81.3834C163.898 80.7863 163.561 80.0985 163.38 79.3198ZM175.301 82.4277L177.644 71.0397L183.949 70.6053L187.752 81.5698L183.761 81.8448L183.06 79.8082L179.628 80.0447L179.212 82.1582L175.301 82.4277ZM180.074 77.2073L182.229 77.0588L181.307 74.1553L180.668 74.1993L180.074 77.2073ZM186.741 73.9413L186.499 70.4296L197.193 69.6928L197.435 73.2044L194.083 73.4354L194.611 81.0972L190.621 81.3722L190.093 73.7103L186.741 73.9413ZM203.557 80.4809L199.247 80.7778L198.477 69.6043L202.468 69.3294L202.721 73.0006L202.591 74.6134L202.751 74.6024L205.58 69.1149L209.89 68.8179L210.66 79.9915L206.669 80.2664L206.417 76.5951L206.546 74.9824L206.386 74.9934L203.557 80.4809ZM212.734 79.8485L211.965 68.675L215.955 68.4001L216.483 76.0619L218.239 75.9409L217.711 68.2791L221.701 68.0041L222.229 75.666L223.985 75.545L223.457 67.8832L227.448 67.6082L228.218 78.7817L212.734 79.8485ZM230.29 78.6389L229.52 67.4654L233.511 67.1905L233.764 70.8618L234.562 70.8068L236.384 66.9925L240.854 66.6846L238.019 72.0922L241.943 77.8361L237.473 78.144L234.969 74.3873L234.011 74.4532L234.281 78.364L230.29 78.6389ZM243.604 76.3423C242.356 75.295 241.674 73.9307 241.558 72.2493C241.442 70.568 241.93 69.123 243.023 67.9143C244.116 66.7057 245.62 66.0354 247.536 65.9034C249.451 65.7714 251.033 66.2291 252.281 67.2764C253.53 68.3238 254.212 69.6881 254.327 71.3695C254.443 73.0508 253.955 74.4958 252.862 75.7045C251.769 76.9131 250.265 77.5834 248.35 77.7154C246.434 77.8474 244.852 77.3897 243.604 76.3423ZM246.202 70.0529C245.818 70.5391 245.654 71.1759 245.708 71.9634C245.762 72.7508 246.013 73.3591 246.459 73.7881C246.916 74.2163 247.469 74.4081 248.119 74.3633C248.768 74.3186 249.284 74.0532 249.668 73.567C250.062 73.0801 250.232 72.4429 250.177 71.6554C250.123 70.868 249.867 70.2601 249.41 69.8318C248.964 69.4029 248.416 69.2107 247.767 69.2555C247.118 69.3002 246.596 69.566 246.202 70.0529ZM256.314 76.8459L255.544 65.6724L260.892 65.3039L262.766 70.3871L263.165 70.3597L264.324 65.0675L269.591 64.7045L270.361 75.878L266.37 76.153L266.02 71.0611L266.159 69.592L265.999 69.603L264.997 73.6815L261.326 73.9345L259.774 70.0319L259.614 70.0429L259.954 71.479L260.305 76.5709L256.314 76.8459ZM271.767 74.1774C271.734 73.6985 271.867 73.2884 272.164 72.9472C272.461 72.606 272.849 72.4188 273.328 72.3858C273.871 72.3485 274.327 72.5255 274.696 72.9171C275.065 73.3086 275.276 73.8875 275.329 74.6537C275.403 75.7391 275.179 76.5886 274.654 77.2021C274.13 77.8156 273.341 78.1586 272.287 78.2312L272.205 77.034C272.705 76.9996 273.075 76.8671 273.316 76.6367C273.557 76.4063 273.664 76.1049 273.639 75.7324L273.628 75.5728L273.503 75.6295C273.398 75.6581 273.282 75.6768 273.154 75.6856C272.824 75.7083 272.516 75.5799 272.23 75.3002C271.953 75.0092 271.799 74.6349 271.767 74.1774Z" fill="#FFF7EA"/>
<rect x="-0.928898" y="1.06637" width="383" height="93" rx="7" transform="matrix(-0.997635 0.0687372 0.0687372 0.997635 300.758 0.543911)" stroke="#404040" stroke-width="2" shape-rendering="crispEdges"/>
</g>
<defs>
<filter id="filter0_d_1401_642" x="50.9998" y="104" width="360.814" height="92.9131" filterUnits="userSpaceOnUse" color-interpolation-filters="sRGB">
<feFlood flood-opacity="0" result="BackgroundImageFix"/>
<feColorMatrix in="SourceAlpha" type="matrix" values="0 0 0 0 0 0 0 0 0 0 0 0 0 0 0 0 0 0 127 0" result="hardAlpha"/>
<feOffset dx="4" dy="4"/>
<feComposite in2="hardAlpha" operator="out"/>
<feColorMatrix type="matrix" values="0 0 0 0 0.25098 0 0 0 0 0.25098 0 0 0 0 0.25098 0 0 0 1 0"/>
<feBlend mode="normal" in2="BackgroundImageFix" result="effect1_dropShadow_1401_642"/>
<feBlend mode="normal" in="SourceGraphic" in2="effect1_dropShadow_1401_642" result="shape"/>
</filter>
<filter id="filter1_d_1401_642" x="-81.4023" y="0.477539" width="394.619" height="125.239" filterUnits="userSpaceOnUse" color-interpolation-filters="sRGB">
<feFlood flood-opacity="0" result="BackgroundImageFix"/>
<feColorMatrix in="SourceAlpha" type="matrix" values="0 0 0 0 0 0 0 0 0 0 0 0 0 0 0 0 0 0 127 0" result="hardAlpha"/>
<feOffset dx="4" dy="4"/>
<feComposite in2="hardAlpha" operator="out"/>
<feColorMatrix type="matrix" values="0 0 0 0 0.25098 0 0 0 0 0.25098 0 0 0 0 0.25098 0 0 0 1 0"/>
<feBlend mode="normal" in2="BackgroundImageFix" result="effect1_dropShadow_1401_642"/>
<feBlend mode="normal" in="SourceGraphic" in2="effect1_dropShadow_1401_642" result="shape"/>
</filter>
</defs>
</svg>
