<svg width="50" height="50" viewBox="0 0 50 50" fill="none" xmlns="http://www.w3.org/2000/svg">
<g clip-path="url(#clip0_1261_250)">
<path d="M13.4627 9.10426C13.4627 6.3633 13.4627 3.69982 13.4627 1.03827C13.4627 0.166589 13.6312 0 14.5106 0C21.3698 0 28.229 0 35.0863 0C35.9618 0 36.1265 0.164652 36.1284 1.04408C36.1284 4.99766 36.1284 8.95123 36.1284 12.9048V13.5595C36.3163 13.5595 36.4849 13.5595 36.6534 13.5595C38.3638 13.5595 40.0743 13.5595 41.7847 13.5595C42.5014 13.5595 42.7106 13.7668 42.7126 14.4738C42.7145 16.3625 42.7126 18.2492 42.7126 20.1379V20.7267C43.5591 20.7267 44.3804 20.6706 45.192 20.7422C45.9204 20.8061 46.6816 20.9011 47.3499 21.1761C49.0139 21.8619 49.9069 23.5994 49.5233 25.5326C49.2231 27.0435 48.7369 28.5215 48.2933 30.0015C46.4763 36.0664 44.6419 42.1256 42.8152 48.1867C42.6002 48.9015 42.4588 49.01 41.7227 49.01C28.1186 49.01 14.5145 49.01 0.908489 49.01C0.1724 49.01 0 48.8357 0 48.1015C0 36.1594 0 24.2154 0 12.2733C0 10.3072 1.20099 9.10426 3.16131 9.10426C6.40592 9.10426 9.64858 9.10426 12.8932 9.10426H13.4627ZM1.55547 47.6521H2.17921C15.1073 47.6521 28.0353 47.6482 40.9634 47.6657C41.4476 47.6657 41.6104 47.5029 41.7401 47.069C43.2724 41.8932 44.824 36.725 46.3698 31.5531C46.9412 29.6392 47.5146 27.7254 48.0821 25.8096C48.5141 24.351 48.0918 23.0454 46.8947 22.4837C46.3485 22.228 45.6879 22.1021 45.0797 22.1001C34.0403 22.0788 23.0009 22.1021 11.9615 22.0633C10.3324 22.0575 8.93961 23.1849 8.51346 24.6203C6.68873 30.7666 4.80976 36.8974 2.95017 43.0341C2.48914 44.5586 2.03006 46.0831 1.55547 47.6502V47.6521ZM14.8535 1.3792V20.688H34.7434V1.3792H14.8535ZM1.35789 43.3595C1.38501 43.3653 1.41019 43.3712 1.43731 43.375C1.47993 43.2453 1.52254 43.1155 1.56322 42.9837C3.49642 36.634 5.42575 30.2843 7.36089 23.9345C7.95945 21.9665 9.63696 20.7325 11.6999 20.7267C12.2753 20.7267 12.8506 20.7267 13.4298 20.7267V10.4622H12.868C9.65633 10.4622 6.44466 10.4622 3.23298 10.4622C1.90221 10.4622 1.35789 11.0084 1.35789 12.345C1.35789 22.5282 1.35789 32.7114 1.35789 42.8946V43.3595ZM36.1633 14.9387V20.688H41.3314V14.9387H36.1633Z" fill="#404040"/>
<rect x="17" y="3" width="16" height="1" rx="0.5" fill="#404040"/>
<rect x="17" y="6" width="16" height="1" rx="0.5" fill="#404040"/>
<rect x="17" y="9" width="16" height="1" rx="0.5" fill="#404040"/>
<rect x="17" y="12" width="16" height="1" rx="0.5" fill="#404040"/>
<rect x="17" y="15" width="16" height="1" rx="0.5" fill="#404040"/>
<rect x="17" y="18" width="16" height="1" rx="0.5" fill="#404040"/>
</g>
<defs>
<clipPath id="clip0_1261_250">
<rect width="49.6124" height="49.01" fill="white"/>
</clipPath>
</defs>
</svg>
