<svg width="50" height="50" viewBox="0 0 74 73" fill="none" xmlns="http://www.w3.org/2000/svg">
<path d="M37.1286 0C16.9703 0 0.628418 16.4102 0.628418 36.6528C0.628418 54.808 13.7875 69.8436 31.0411 72.7551V44.2996H22.2362V34.0596H31.0411V26.509C31.0411 17.7482 36.3697 12.974 44.1536 12.974C47.8816 12.974 51.0854 13.253 52.0154 13.3758V22.5332L46.6167 22.5359C42.3845 22.5359 41.5685 24.555 41.5685 27.519V34.0543H51.6671L50.3499 44.2943H41.5685V73C59.6277 70.7928 73.6284 55.3743 73.6284 36.6423C73.6284 16.4102 57.2865 0 37.1286 0Z" fill="#5D74F2"/>
</svg>
