<svg width="50" height="50" viewBox="0 0 73 73" fill="none" xmlns="http://www.w3.org/2000/svg">
<path d="M43.4863 36.5C43.4863 40.3585 40.3585 43.4863 36.5 43.4863C32.6415 43.4863 29.5137 40.3585 29.5137 36.5C29.5137 32.6415 32.6415 29.5137 36.5 29.5137C40.3585 29.5137 43.4863 32.6415 43.4863 36.5Z" fill="#5D74F2"/>
<path d="M52.8386 24.1391C52.5027 23.2291 51.9669 22.4054 51.2708 21.7292C50.5946 21.0331 49.7715 20.4973 48.8609 20.1614C48.1223 19.8746 47.0129 19.5332 44.9695 19.4402C42.759 19.3394 42.0962 19.3177 36.5 19.3177C30.9033 19.3177 30.2405 19.3388 28.0305 19.4396C25.9871 19.5332 24.8771 19.8746 24.1391 20.1614C23.2285 20.4973 22.4048 21.0331 21.7292 21.7292C21.0331 22.4054 20.4973 23.2285 20.1609 24.1391C19.8741 24.8777 19.5326 25.9876 19.4396 28.0311C19.3388 30.241 19.3171 30.9038 19.3171 36.5006C19.3171 42.0967 19.3388 42.7595 19.4396 44.97C19.5326 47.0135 19.8741 48.1229 20.1609 48.8614C20.4973 49.772 21.0325 50.5952 21.7287 51.2713C22.4048 51.9675 23.228 52.5033 24.1386 52.8391C24.8771 53.1265 25.9871 53.4679 28.0305 53.5609C30.2405 53.6617 30.9027 53.6829 36.4994 53.6829C42.0967 53.6829 42.7595 53.6617 44.9689 53.5609C47.0124 53.4679 48.1223 53.1265 48.8609 52.8391C50.6888 52.134 52.1335 50.6893 52.8386 48.8614C53.1254 48.1229 53.4668 47.0135 53.5604 44.97C53.6612 42.7595 53.6823 42.0967 53.6823 36.5006C53.6823 30.9038 53.6612 30.241 53.5604 28.0311C53.4674 25.9876 53.1259 24.8777 52.8386 24.1391ZM36.5 47.2624C30.5557 47.2624 25.737 42.4443 25.737 36.5C25.737 30.5557 30.5557 25.7376 36.5 25.7376C42.4437 25.7376 47.2624 30.5557 47.2624 36.5C47.2624 42.4443 42.4437 47.2624 36.5 47.2624ZM47.6879 27.8272C46.2989 27.8272 45.1728 26.7011 45.1728 25.3121C45.1728 23.923 46.2989 22.7969 47.6879 22.7969C49.077 22.7969 50.2031 23.923 50.2031 25.3121C50.2025 26.7011 49.077 27.8272 47.6879 27.8272Z" fill="#5D74F2"/>
<path d="M36.5 0C16.3447 0 0 16.3447 0 36.5C0 56.6553 16.3447 73 36.5 73C56.6553 73 73 56.6553 73 36.5C73 16.3447 56.6553 0 36.5 0ZM57.3326 45.141C57.2312 47.3721 56.8764 48.8954 56.3585 50.2287C55.2696 53.0441 53.0441 55.2696 50.2287 56.3585C48.8959 56.8764 47.3721 57.2306 45.1416 57.3326C42.9065 57.4345 42.1925 57.459 36.5006 57.459C30.808 57.459 30.0946 57.4345 27.859 57.3326C25.6284 57.2306 24.1046 56.8764 22.7718 56.3585C21.3728 55.8321 20.1063 55.0073 19.0592 53.9408C17.9932 52.8943 17.1684 51.6272 16.6421 50.2287C16.1241 48.8959 15.7694 47.3721 15.668 45.1416C15.565 42.906 15.541 42.192 15.541 36.5C15.541 30.808 15.565 30.094 15.6674 27.859C15.7688 25.6279 16.123 24.1046 16.641 22.7713C17.1673 21.3728 17.9927 20.1057 19.0592 19.0592C20.1057 17.9927 21.3728 17.1679 22.7713 16.6415C24.1046 16.1236 25.6279 15.7694 27.859 15.6674C30.094 15.5655 30.808 15.541 36.5 15.541C42.192 15.541 42.906 15.5655 45.141 15.668C47.3721 15.7694 48.8954 16.1236 50.2287 16.641C51.6272 17.1673 52.8943 17.9927 53.9413 19.0592C55.0073 20.1063 55.8327 21.3728 56.3585 22.7713C56.877 24.1046 57.2312 25.6279 57.3331 27.859C57.435 30.094 57.459 30.808 57.459 36.5C57.459 42.192 57.435 42.906 57.3326 45.141Z" fill="#5D74F2"/>
</svg>
