<svg width="238" height="34" viewBox="0 0 238 34" fill="none" xmlns="http://www.w3.org/2000/svg">
<g clip-path="url(#clip0_1198_101)">
<path d="M237.833 0H138.855L133 14.1667" stroke="#404040" stroke-width="2.83333" stroke-miterlimit="22.926"/>
<path d="M-2.93981e-06 34L96.303 34L102 20" stroke="#404040" stroke-width="2.83333" stroke-miterlimit="22.926"/>
<path d="M17.4521 25.3732H12.3923L20.2631 7.31069H13.1954L7.25224 20.8955C6.28848 23.1723 5.72628 24.766 5.56565 25.6009L0.0240144 28.333C-0.136613 27.0428 0.505896 24.6902 2.03186 21.275L9.9829 2.98479H27.17L17.4521 25.3732ZM44.6784 9.20801C45.5619 7.23479 45.4815 5.64104 44.5981 4.57854C43.795 3.51604 42.269 3.06069 40.1808 3.06069H31.4266L28.455 7.31069H37.6108C38.4139 7.31069 38.9761 7.53837 39.2974 7.91783C39.6186 8.29729 39.6186 8.90444 39.2974 9.66337C38.4943 11.4848 35.6833 13.3821 30.7841 15.4312L33.9164 8.2214H28.9369L21.4678 25.3732H26.4472L28.696 20.2125C37.5305 17.1768 42.8312 13.5339 44.6784 9.20801ZM64.9978 11.333C63.4718 14.7482 61.3836 17.8598 58.653 20.7437C55.2798 24.2348 51.9869 25.9803 48.8547 25.9803C45.6422 25.9803 43.8753 24.2348 43.554 20.8196C43.2328 18.0116 43.8753 14.8241 45.3209 11.4089C46.6862 8.2214 48.5335 6.02051 50.8625 4.65444C52.9507 3.44015 55.6814 2.83301 58.9742 2.83301C62.2671 2.83301 64.4356 3.44015 65.4796 4.65444C66.5237 5.94461 66.3631 8.14551 64.9978 11.333ZM59.6167 11.8643C60.3396 10.1946 60.5002 8.98033 60.0986 8.2214C59.6971 7.46247 58.653 7.08301 56.9664 7.08301C53.7538 7.08301 51.5051 8.60087 50.2201 11.7125C49.4169 13.6098 48.8547 15.583 48.6941 17.6321C48.4531 20.2884 49.0956 21.6544 50.7019 21.6544C52.2279 21.6544 54.0751 20.3643 56.0829 17.7839C57.6089 15.7348 58.8136 13.7616 59.6167 11.8643ZM93.6697 10.4982C94.5532 8.52497 94.3122 7.00712 93.0272 6.0964C91.9831 5.33747 90.3769 4.88212 88.2084 4.88212H85.0762L85.9596 2.9089H81.1408L80.2574 4.88212C76.8842 4.88212 74.3945 5.10979 72.9488 5.48926C69.9772 6.24819 67.9694 7.91783 66.845 10.4982C64.9174 14.9759 66.845 18.8464 72.7882 22.1098L71.3425 25.4491H76.1614L77.607 22.1098C86.3612 18.7705 91.7422 14.9 93.6697 10.4982ZM88.2084 11.1812C87.7265 12.2437 86.5218 13.3821 84.4337 14.7482C82.6668 15.8866 81.1408 16.7214 79.6952 17.2527L83.3093 8.98033H86.1202C88.1281 8.98033 88.8509 9.66337 88.2084 11.1812ZM74.8763 17.2527C73.9126 16.7214 73.0291 15.8866 72.3063 14.7482C71.4229 13.3821 71.1819 12.1678 71.6638 11.1812C72.3063 9.73926 73.6716 8.98033 75.7598 8.98033H78.4905L74.8763 17.2527ZM95.1154 25.3732H89.895L99.613 2.98479H104.833L95.1154 25.3732Z" fill="#E61F4C"/>
<path d="M142.137 5.75008H149.024L142.217 23.6142H146.942L153.749 5.75008H160.637L153.829 23.5311H156.072L152.628 32.6709L146.301 34.0003L147.983 29.5135H133.167L142.137 5.75008ZM156.312 29.5135H170.087L173.531 23.5311H165.362L166.643 20.1245H171.929L175.212 14.4744H168.806L169.927 11.6494H176.894L180.338 5.66699H165.362L156.312 29.5135ZM174.091 29.5135L183.141 5.75008H190.028L186.825 14.2252H191.55L194.754 5.75008H201.641L192.591 29.5135H185.704L189.228 20.1245H184.502L180.979 29.5135H174.091ZM206.927 29.5135L213.734 11.6494H217.899L221.342 5.66699H204.925L201.481 11.6494H206.847L200.039 29.5135H206.927ZM214.535 29.5135L223.585 5.75008H231.513C232.955 5.75008 234.156 5.99935 235.117 6.41479C236.078 6.83024 236.799 7.49495 237.28 8.24275C237.76 9.07364 238 9.98762 238 11.0678C238 12.1479 237.76 13.3943 237.28 14.6406C236.799 15.8869 236.238 17.0502 235.438 18.1303C234.717 19.2105 233.836 20.2076 232.795 20.9554C231.754 21.7862 230.632 22.3679 229.271 22.8664C227.99 23.3649 226.468 23.5311 224.866 23.5311H223.585L221.342 29.5135H214.535ZM228.07 11.6494L225.827 17.6318H226.868C227.669 17.6318 228.31 17.3825 228.951 16.9671C229.591 16.4686 230.072 15.7208 230.472 14.7237C230.873 13.6435 230.953 12.8126 230.712 12.3972C230.472 11.9818 229.912 11.7325 229.191 11.7325L228.07 11.6494Z" fill="#5D74F2"/>
<path d="M126.751 19.8337L113.334 10.3618L118.518 7.97319L123.625 5.66699L126.98 7.97319L130.334 10.3618L128.504 15.0565L126.751 19.8337Z" fill="#5D74F2"/>
<path d="M111.25 11.333L124.667 20.8049L119.483 23.1935L114.376 25.4997L111.021 23.1935L107.667 20.8049L109.42 16.1101L111.25 11.333Z" fill="#E61F4C"/>
</g>
<defs>
<clipPath id="clip0_1198_101">
<rect width="238" height="34" fill="white"/>
</clipPath>
</defs>
</svg>
