<svg width="49" height="57" viewBox="0 0 49 57" fill="none" xmlns="http://www.w3.org/2000/svg">
<path d="M3.08691 37.5201H16.7669C17.0549 38.5281 17.5349 39.4401 18.2069 40.2561C19.6949 42.0321 21.9749 42.9201 25.0469 42.9201C27.5429 42.9201 29.4869 42.3201 30.8789 41.1201C32.2709 39.9201 32.9669 38.3601 32.9669 36.4401C32.9669 34.5201 32.2709 32.9601 30.8789 31.7601C29.4869 30.5601 27.5429 29.9601 25.0469 29.9601C23.1749 29.9601 21.5669 30.3201 20.2229 31.0401C19.7429 31.3761 19.3109 31.7361 18.9269 32.1201H4.88691L7.04691 2.6001H42.3269V14.1201H18.5669L17.8469 22.0401H18.5669C19.2389 21.5121 20.0549 21.0321 21.0149 20.6001C23.0309 19.6401 25.4549 19.1601 28.2869 19.1601C33.6149 19.1601 38.0069 20.8161 41.4629 24.1281C44.9189 27.4401 46.6469 31.5441 46.6469 36.4401C46.6469 41.6241 44.7029 45.9201 40.8149 49.3281C36.9749 52.7361 31.7189 54.4401 25.0469 54.4401C16.8389 54.4401 10.6949 51.6321 6.61491 46.0161C4.83891 43.5201 3.66291 40.6881 3.08691 37.5201Z" fill="#DA1441"/>
<path fill-rule="evenodd" clip-rule="evenodd" d="M0.69043 35.5201H18.2755L18.6899 36.9707C18.901 37.7096 19.2493 38.3741 19.7454 38.9782C20.7391 40.16 22.366 40.9201 25.0469 40.9201C27.2359 40.9201 28.6562 40.3956 29.573 39.6053C30.5023 38.8042 30.9669 37.8079 30.9669 36.4401C30.9669 35.0723 30.5023 34.076 29.573 33.2749C28.6562 32.4846 27.2359 31.9601 25.0469 31.9601C23.4857 31.9601 22.2492 32.2494 21.2705 32.7491C20.9199 33.0018 20.6113 33.2641 20.3411 33.5343L19.7553 34.1201H2.73517L5.18785 0.600098H44.3269V16.1201H20.3933L20.15 18.7962C20.1582 18.7925 20.1664 18.7888 20.1746 18.7851C22.5168 17.6741 25.2432 17.1601 28.2869 17.1601C34.0671 17.1601 38.9749 18.9737 42.8467 22.6841C46.7063 26.3829 48.6469 31.0129 48.6469 36.4401C48.6469 42.1962 46.4575 47.0394 42.1382 50.8277C37.8342 54.6454 32.0558 56.4401 25.0469 56.4401C16.3313 56.4401 9.52482 53.4243 4.99679 47.1916L4.99099 47.1836L4.98527 47.1756C3.03039 44.4282 1.74488 41.3196 1.11912 37.8779L0.69043 35.5201ZM21.0149 20.6001C20.6328 20.772 20.2735 20.9516 19.937 21.1387C19.4281 21.4218 18.9714 21.7222 18.5669 22.0401H17.8469L18.5669 14.1201H42.3269V2.6001H7.04686L4.88686 32.1201H18.9269C19.3109 31.7361 19.7429 31.3761 20.2229 31.0401C21.5669 30.3201 23.1749 29.9601 25.0469 29.9601C27.5429 29.9601 29.4869 30.5601 30.8789 31.7601C32.2709 32.9601 32.9669 34.5201 32.9669 36.4401C32.9669 38.3601 32.2709 39.9201 30.8789 41.1201C29.4869 42.3201 27.5429 42.9201 25.0469 42.9201C21.9749 42.9201 19.6949 42.0321 18.2069 40.2561C17.5349 39.4401 17.0549 38.5281 16.7669 37.5201H3.08685C3.2109 38.2024 3.36277 38.869 3.54247 39.5201C4.1972 41.8923 5.22133 44.0576 6.61485 46.0161C10.6949 51.6321 16.8389 54.4401 25.0469 54.4401C31.7189 54.4401 36.9749 52.7361 40.8149 49.3281C44.7029 45.9201 46.6469 41.6241 46.6469 36.4401C46.6469 31.5441 44.9189 27.4401 41.4629 24.1281C38.0069 20.8161 33.6149 19.1601 28.2869 19.1601C25.4549 19.1601 23.0309 19.6401 21.0149 20.6001Z" fill="#BF002B"/>
</svg>
