<svg width="49" height="57" viewBox="0 0 49 57" fill="none" xmlns="http://www.w3.org/2000/svg">
<path d="M2.67432 37.1601H16.3543C16.6423 38.2641 17.1703 39.2241 17.9383 40.0401C19.5703 41.9601 21.9223 42.9201 24.9943 42.9201C27.4423 42.9201 29.3623 42.3441 30.7543 41.1921C32.1943 39.9921 32.9143 38.5281 32.9143 36.8001C32.9143 35.1201 32.1943 33.6801 30.7543 32.4801C29.3623 31.2801 27.4423 30.6801 24.9943 30.6801H13.4743V22.0401L24.9943 14.8401V14.1201H5.55432V2.6001H43.3543V14.1201L32.1943 20.9601L31.4023 21.2481V22.1121L31.5463 22.0401C35.8183 22.0401 39.3943 23.4561 42.2743 26.2881C45.1543 29.1201 46.5943 32.6241 46.5943 36.8001C46.5943 41.8401 44.6503 46.0401 40.7623 49.4001C36.8743 52.7601 31.6183 54.4401 24.9943 54.4401C16.4983 54.4401 10.2583 51.5601 6.27432 45.8001C4.45032 43.2561 3.25032 40.3761 2.67432 37.1601Z" fill="#DA1441"/>
<path fill-rule="evenodd" clip-rule="evenodd" d="M0.28418 35.1601H17.8994L18.2894 36.6553C18.4945 37.4412 18.8605 38.1019 19.3946 38.6694L19.4293 38.7062L19.4621 38.7448C20.6316 40.1207 22.3683 40.9201 24.9942 40.9201C27.1397 40.9201 28.5523 40.417 29.4763 39.6536C30.5025 38.7975 30.9142 37.8787 30.9142 36.8001C30.9142 35.787 30.5174 34.8862 29.4738 34.0165L29.461 34.0058L29.4483 33.9949C28.5251 33.1991 27.1238 32.6801 24.9942 32.6801H11.4742V20.9316L19.1726 16.1201H3.55421V0.600098H45.3542V15.2401L36.4803 20.6789C39.1833 21.4219 41.594 22.8142 43.6765 24.8621C46.9531 28.0841 48.5942 32.1082 48.5942 36.8001C48.5942 42.4341 46.3877 47.182 42.0699 50.9133C37.7239 54.6692 31.9564 56.4401 24.9942 56.4401C16.0072 56.4401 9.07904 53.3611 4.63895 46.9517C2.63939 44.1585 1.33065 41.0029 0.705541 37.5127L0.28418 35.1601ZM6.27421 45.8001C10.2582 51.5601 16.4982 54.4401 24.9942 54.4401C31.6182 54.4401 36.8742 52.7601 40.7622 49.4001C44.6502 46.0401 46.5942 41.8401 46.5942 36.8001C46.5942 32.6241 45.1542 29.1201 42.2742 26.2881C39.9617 24.0141 37.2004 22.6531 33.9903 22.205C33.7231 22.1677 33.4528 22.1367 33.1793 22.1121C33.0818 22.1033 32.9839 22.0953 32.8856 22.0881C32.79 22.0812 32.694 22.0749 32.5976 22.0695C32.2988 22.0525 31.9964 22.0429 31.6904 22.0406C31.6424 22.0403 31.5944 22.0401 31.5462 22.0401L31.4022 22.1121V21.2481L32.1942 20.9601L43.3542 14.1201V2.6001H5.55421V14.1201H24.9942V14.8401L13.4742 22.0401V30.6801H24.9942C27.4422 30.6801 29.3622 31.2801 30.7542 32.4801C32.1942 33.6801 32.9142 35.1201 32.9142 36.8001C32.9142 38.5281 32.1942 39.9921 30.7542 41.1921C29.3622 42.3441 27.4422 42.9201 24.9942 42.9201C21.9222 42.9201 19.5702 41.9601 17.9382 40.0401C17.1702 39.2241 16.6422 38.2641 16.3542 37.1601H2.67421C2.79632 37.8419 2.94647 38.5085 3.12467 39.1601C3.78704 41.5821 4.83689 43.7954 6.27421 45.8001Z" fill="#BF002B"/>
</svg>
