<svg width="47" height="56" viewBox="0 0 47 56" fill="none" xmlns="http://www.w3.org/2000/svg">
<path d="M2.93031 54.0002V42.4802L19.8503 32.0402C23.8343 29.6402 26.6183 27.5522 28.2023 25.7762C29.8343 23.9522 30.6503 22.0802 30.6503 20.1602C30.6503 18.4802 30.0503 17.1122 28.8503 16.0562C27.6983 14.9522 26.1383 14.4002 24.1703 14.4002C21.1463 14.4002 18.9143 15.3602 17.4743 17.2802C16.8983 18.0482 16.4903 19.0082 16.2503 20.1602H2.57031C3.05031 16.8962 4.17831 13.8962 5.95431 11.1602C9.89031 5.16016 15.9623 2.16016 24.1703 2.16016C30.5063 2.16016 35.4983 3.79216 39.1463 7.05616C42.8423 10.3202 44.6903 14.4482 44.6903 19.4402C44.6903 23.5682 43.5143 27.1202 41.1623 30.0962C38.8103 33.0242 35.3063 35.8322 30.6503 38.5202L25.6103 41.4002L22.7303 42.4802V43.2002L27.7703 42.4802H44.6903V54.0002H2.93031Z" fill="#DA1441"/>
<path fill-rule="evenodd" clip-rule="evenodd" d="M0.930023 56.0002V41.3641L18.8089 30.3325L18.818 30.327C22.7612 27.9516 25.3324 25.9889 26.7094 24.4449L26.7115 24.4426C28.1085 22.8813 28.65 21.4644 28.65 20.1602C28.65 19.0216 28.2729 18.2124 27.5288 17.5576L27.4969 17.5295L27.4662 17.5001C26.769 16.832 25.7492 16.4002 24.17 16.4002C21.5945 16.4002 20.0395 17.1929 19.074 18.4802C18.7091 18.9667 18.4014 19.6397 18.208 20.5681L17.8763 22.1602H0.254395L0.591304 19.8692C1.11266 16.324 2.34204 13.0513 4.27646 10.0712L4.28172 10.0631C8.64556 3.41092 15.4015 0.160156 24.17 0.160156C30.8466 0.160156 36.3629 1.88494 40.4746 5.56117C44.6034 9.20957 46.69 13.8849 46.69 19.4402C46.69 23.9759 45.3874 27.9753 42.7311 31.3363L42.7262 31.3425L42.7213 31.3487C40.1627 34.5338 36.4355 37.4895 31.65 40.2522L31.6423 40.2567L31.2512 40.4802H46.69V56.0002H0.930023ZM22.73 43.2002V42.4802L25.61 41.4002L30.65 38.5202C35.306 35.8322 38.81 33.0242 41.162 30.0962C43.514 27.1202 44.69 23.5682 44.69 19.4402C44.69 14.4482 42.842 10.3202 39.146 7.05616C35.498 3.79216 30.506 2.16016 24.17 2.16016C15.962 2.16016 9.89002 5.16016 5.95402 11.1602C4.54697 13.3278 3.54665 15.6611 2.95306 18.1602C2.79742 18.8154 2.66974 19.4821 2.57002 20.1602H16.25C16.49 19.0082 16.898 18.0482 17.474 17.2802C18.914 15.3602 21.146 14.4002 24.17 14.4002C26.138 14.4002 27.698 14.9522 28.85 16.0562C30.05 17.1122 30.65 18.4802 30.65 20.1602C30.65 22.0802 29.834 23.9522 28.202 25.7762C26.618 27.5522 23.834 29.6402 19.85 32.0402L2.93002 42.4802V54.0002H44.69V42.4802H27.77L22.73 43.2002Z" fill="#BF002B"/>
</svg>
