<svg width="51" height="55" viewBox="0 0 51 55" fill="none" xmlns="http://www.w3.org/2000/svg">
<path d="M2.49854 44.3601V32.8401L19.4185 2.6001H34.1785L17.2585 32.8401H28.7785V21.6801H29.4985H42.0985V32.8401H48.5785V44.3601H42.0985V53.0001H28.7785V44.3601H2.49854Z" fill="#DA1441"/>
<path fill-rule="evenodd" clip-rule="evenodd" d="M0.498535 46.3601V32.3186L18.2458 0.600098H37.5894L26.9137 19.6801H44.0985V30.8401H50.5785V46.3601H44.0985V55.0001H26.7785V46.3601H0.498535ZM28.7785 44.3601V53.0001H42.0985V44.3601H48.5785V32.8401H42.0985V21.6801H28.7785V32.8401H17.2585L34.1785 2.6001H19.4185L2.49854 32.8401V44.3601H28.7785ZM20.6694 30.8401H26.7785V19.9216L20.6694 30.8401Z" fill="#BF002B"/>
</svg>
