<svg width="1241" height="197" viewBox="0 0 1241 197" fill="none" xmlns="http://www.w3.org/2000/svg">
<path d="M0.36 142.03H2.88C2.952 142.27 3.066 142.468 3.222 142.624C3.582 143.008 4.098 143.2 4.77 143.2C5.286 143.2 5.67 143.11 5.922 142.93C6.174 142.75 6.3 142.51 6.3 142.21C6.3 141.874 6.186 141.628 5.958 141.472C5.73 141.304 5.334 141.22 4.77 141.22H3.6V139.42H4.68C5.64 139.42 6.12 139.09 6.12 138.43C6.12 138.178 5.988 137.968 5.724 137.8C5.472 137.62 5.094 137.53 4.59 137.53C4.002 137.53 3.576 137.698 3.312 138.034C3.18 138.19 3.096 138.352 3.06 138.52H0.54C0.684 137.98 0.93 137.488 1.278 137.044C2.082 136.048 3.246 135.55 4.77 135.55C6.006 135.55 6.96 135.802 7.632 136.306C8.304 136.81 8.64 137.428 8.64 138.16C8.64 138.844 8.37 139.36 7.83 139.708C7.614 139.864 7.344 139.978 7.02 140.05V140.14C7.368 140.236 7.668 140.374 7.92 140.554C8.52 141.01 8.82 141.622 8.82 142.39C8.82 143.218 8.484 143.908 7.812 144.46C7.14 145 6.126 145.27 4.77 145.27C3.126 145.27 1.896 144.73 1.08 143.65C0.732 143.17 0.492 142.63 0.36 142.03ZM15.7465 148.42V135.82H18.2665V136.99H18.3565C18.5485 136.738 18.7825 136.498 19.0585 136.27C19.7065 135.79 20.4325 135.55 21.2365 135.55C22.4365 135.55 23.4385 136 24.2425 136.9C25.0585 137.788 25.4665 138.958 25.4665 140.41C25.4665 141.862 25.0585 143.038 24.2425 143.938C23.4385 144.826 22.4365 145.27 21.2365 145.27C20.4325 145.27 19.7065 145.03 19.0585 144.55C18.7825 144.322 18.5485 144.082 18.3565 143.83H18.2665V148.42H15.7465ZM18.9145 138.43C18.4825 138.898 18.2665 139.558 18.2665 140.41C18.2665 141.262 18.4825 141.928 18.9145 142.408C19.3465 142.876 19.9105 143.11 20.6065 143.11C21.2665 143.11 21.8065 142.87 22.2265 142.39C22.6465 141.91 22.8565 141.25 22.8565 140.41C22.8565 139.57 22.6465 138.91 22.2265 138.43C21.8065 137.95 21.2665 137.71 20.6065 137.71C19.9105 137.71 19.3465 137.95 18.9145 138.43ZM28.0585 143.866C27.1105 142.918 26.6365 141.766 26.6365 140.41C26.6365 139.054 27.1105 137.908 28.0585 136.972C29.0185 136.024 30.1945 135.55 31.5865 135.55C33.0025 135.55 34.1665 136.018 35.0785 136.954C35.9905 137.89 36.4465 139.042 36.4465 140.41V140.95H29.2465C29.3425 141.55 29.6125 142.06 30.0565 142.48C30.5005 142.9 31.0105 143.11 31.5865 143.11C32.2225 143.11 32.7685 142.93 33.2245 142.57C33.4045 142.414 33.5485 142.234 33.6565 142.03H36.3565C36.1525 142.642 35.8525 143.182 35.4565 143.65C34.4965 144.73 33.2065 145.27 31.5865 145.27C30.1945 145.27 29.0185 144.802 28.0585 143.866ZM29.3365 139.42H33.7465C33.6505 138.94 33.4045 138.538 33.0085 138.214C32.6245 137.878 32.1505 137.71 31.5865 137.71C31.0225 137.71 30.5425 137.872 30.1465 138.196C29.7505 138.52 29.4805 138.928 29.3365 139.42ZM38.1495 145V135.82H40.6695V139.24H41.7495L44.1795 135.82H46.9695L43.9995 140.05L47.2395 145H44.3595L42.0195 141.4H40.6695V145H38.1495ZM48.3138 148.42V135.82H50.8338V136.99H50.9238C51.1158 136.738 51.3498 136.498 51.6258 136.27C52.2738 135.79 52.9998 135.55 53.8038 135.55C55.0038 135.55 56.0058 136 56.8098 136.9C57.6258 137.788 58.0338 138.958 58.0338 140.41C58.0338 141.862 57.6258 143.038 56.8098 143.938C56.0058 144.826 55.0038 145.27 53.8038 145.27C52.9998 145.27 52.2738 145.03 51.6258 144.55C51.3498 144.322 51.1158 144.082 50.9238 143.83H50.8338V148.42H48.3138ZM51.4818 138.43C51.0498 138.898 50.8338 139.558 50.8338 140.41C50.8338 141.262 51.0498 141.928 51.4818 142.408C51.9138 142.876 52.4778 143.11 53.1738 143.11C53.8338 143.11 54.3738 142.87 54.7938 142.39C55.2138 141.91 55.4238 141.25 55.4238 140.41C55.4238 139.57 55.2138 138.91 54.7938 138.43C54.3738 137.95 53.8338 137.71 53.1738 137.71C52.4778 137.71 51.9138 137.95 51.4818 138.43ZM58.6702 135.82H61.2802L63.0802 142.84H63.8002L65.7802 135.82H68.3902L64.7002 148.42H62.0902L63.0802 145H61.1002L58.6702 135.82ZM68.6566 137.98V135.82H77.2966V137.98H74.2366V145H71.7166V137.98H68.6566ZM79.4429 143.866C78.4949 142.918 78.0209 141.766 78.0209 140.41C78.0209 139.054 78.4949 137.908 79.4429 136.972C80.4029 136.024 81.5789 135.55 82.9709 135.55C84.3869 135.55 85.5509 136.018 86.4629 136.954C87.3749 137.89 87.8309 139.042 87.8309 140.41V140.95H80.6309C80.7269 141.55 80.9969 142.06 81.4409 142.48C81.8849 142.9 82.3949 143.11 82.9709 143.11C83.6069 143.11 84.1529 142.93 84.6089 142.57C84.7889 142.414 84.9329 142.234 85.0409 142.03H87.7409C87.5369 142.642 87.2369 143.182 86.8409 143.65C85.8809 144.73 84.5909 145.27 82.9709 145.27C81.5789 145.27 80.4029 144.802 79.4429 143.866ZM80.7209 139.42H85.1309C85.0349 138.94 84.7889 138.538 84.3929 138.214C84.0089 137.878 83.5349 137.71 82.9709 137.71C82.4069 137.71 81.9269 137.872 81.5309 138.196C81.1349 138.52 80.8649 138.928 80.7209 139.42ZM89.5338 148.42V135.82H92.0538V136.99H92.1438C92.3358 136.738 92.5698 136.498 92.8458 136.27C93.4938 135.79 94.2198 135.55 95.0238 135.55C96.2238 135.55 97.2258 136 98.0298 136.9C98.8458 137.788 99.2538 138.958 99.2538 140.41C99.2538 141.862 98.8458 143.038 98.0298 143.938C97.2258 144.826 96.2238 145.27 95.0238 145.27C94.2198 145.27 93.4938 145.03 92.8458 144.55C92.5698 144.322 92.3358 144.082 92.1438 143.83H92.0538V148.42H89.5338ZM92.7018 138.43C92.2698 138.898 92.0538 139.558 92.0538 140.41C92.0538 141.262 92.2698 141.928 92.7018 142.408C93.1338 142.876 93.6978 143.11 94.3938 143.11C95.0538 143.11 95.5938 142.87 96.0138 142.39C96.4338 141.91 96.6438 141.25 96.6438 140.41C96.6438 139.57 96.4338 138.91 96.0138 138.43C95.5938 137.95 95.0538 137.71 94.3938 137.71C93.6978 137.71 93.1338 137.95 92.7018 138.43ZM101.864 143.866C100.904 142.918 100.424 141.766 100.424 140.41C100.424 139.054 100.904 137.908 101.864 136.972C102.824 136.024 104.024 135.55 105.464 135.55C106.892 135.55 108.086 136.024 109.046 136.972C110.018 137.908 110.504 139.054 110.504 140.41C110.504 141.766 110.018 142.918 109.046 143.866C108.086 144.802 106.892 145.27 105.464 145.27C104.024 145.27 102.824 144.802 101.864 143.866ZM103.736 138.466C103.268 138.97 103.034 139.618 103.034 140.41C103.034 141.202 103.268 141.85 103.736 142.354C104.204 142.858 104.78 143.11 105.464 143.11C106.148 143.11 106.724 142.858 107.192 142.354C107.66 141.85 107.894 141.202 107.894 140.41C107.894 139.618 107.66 138.97 107.192 138.466C106.724 137.962 106.148 137.71 105.464 137.71C104.78 137.71 104.204 137.962 103.736 138.466ZM112.13 145V135.82H115.55L117.71 140.77H117.98L120.14 135.82H123.56V145H121.04V140.41L121.13 138.79H121.04L119.06 143.29H116.63L114.65 138.79H114.56L114.65 140.41V145H112.13Z" fill="#404040"/>
<path d="M3.3386 113.3C1.88526 111.887 1.1586 110.12 1.1586 108C1.1586 105.88 1.88526 104.12 3.3386 102.72C4.80526 101.307 6.6786 100.6 8.9586 100.6C11.4786 100.6 13.4586 101.52 14.8986 103.36C15.5386 104.2 15.9919 105.113 16.2586 106.1H12.4586C12.2586 105.687 12.0119 105.34 11.7186 105.06C11.0119 104.353 10.0919 104 8.9586 104C7.7986 104 6.8586 104.367 6.1386 105.1C5.4186 105.833 5.0586 106.8 5.0586 108C5.0586 109.2 5.4186 110.167 6.1386 110.9C6.8586 111.633 7.7986 112 8.9586 112C10.2119 112 11.1853 111.6 11.8786 110.8C12.1986 110.44 12.4253 110.04 12.5586 109.6H16.3586C16.0653 110.68 15.5919 111.647 14.9386 112.5C13.5119 114.433 11.5186 115.4 8.9586 115.4C6.6786 115.4 4.80526 114.7 3.3386 113.3ZM18.4625 115V101H31.2625V115H27.5625V104.4H22.1625V115H18.4625ZM34.0531 115V101H37.7531V115H34.0531ZM39.2617 115L42.9617 101H49.7617L53.4617 115H49.7617L46.9617 104.4H45.7617L42.9617 115H39.2617ZM54.9609 115V101H58.6609V106.2H60.2609L63.6609 101H67.8609L63.4609 107.6L68.1609 115H63.9609L60.4609 109.6H58.6609V115H54.9609ZM68.2531 101H72.1531L74.4531 107H75.9531L78.2531 101H82.0531L76.6531 115H72.8531L74.6531 110.4H71.9531L68.2531 101ZM83.2516 115V101H90.7516C92.1916 101 93.3182 101.333 94.1316 102C94.9449 102.667 95.3516 103.5 95.3516 104.5C95.3516 105.5 94.9849 106.287 94.2516 106.86C93.9049 107.1 93.5382 107.28 93.1516 107.4V107.5C93.6582 107.647 94.1049 107.853 94.4916 108.12C95.3982 108.747 95.8516 109.673 95.8516 110.9C95.8516 112.1 95.3916 113.087 94.4716 113.86C93.5516 114.62 92.2449 115 90.5516 115H83.2516ZM86.9516 106.4H89.9516C90.4449 106.4 90.8182 106.293 91.0716 106.08C91.3249 105.853 91.4516 105.56 91.4516 105.2C91.4516 104.84 91.3249 104.553 91.0716 104.34C90.8182 104.113 90.4449 104 89.9516 104H86.9516V106.4ZM86.9516 112H90.1516C90.7782 112 91.2516 111.873 91.5716 111.62C91.8916 111.367 92.0516 111.027 92.0516 110.6C92.0516 110.173 91.8916 109.833 91.5716 109.58C91.2516 109.327 90.7782 109.2 90.1516 109.2H86.9516V112ZM96.7609 115L100.561 101H107.361L111.161 115H107.361L106.661 112.2H101.261L100.561 115H96.7609ZM102.061 109H105.861L104.661 104.4H103.261L102.061 109ZM112.655 115V101H116.355V106.2H121.755V101H125.455V115H121.755V109.6H116.355V115H112.655ZM128.246 115V101H131.946V106.2H137.346V101H141.046V115H137.346V109.6H131.946V115H128.246ZM143.437 105.9C143.437 104.513 143.95 103.353 144.977 102.42C146.017 101.473 147.37 101 149.037 101H156.037V115H152.337V110.8H149.737L147.337 115H143.337L146.237 110C144.37 109.067 143.437 107.7 143.437 105.9ZM147.757 104.84C147.41 105.133 147.237 105.487 147.237 105.9C147.237 106.313 147.41 106.667 147.757 106.96C148.103 107.253 148.563 107.4 149.137 107.4H152.337V104.4H149.137C148.563 104.4 148.103 104.547 147.757 104.84Z" fill="#5D74F2"/>
<path d="M566.722 115V101H579.522V115H575.822V104.4H570.422V115H566.722ZM582.313 115V101H593.113V104.4H586.013V106.5H591.713V109.5H586.013V111.6H593.113V115H582.313ZM595.404 115V101H602.204C603.924 101 605.317 101.493 606.384 102.48C607.464 103.453 608.004 104.66 608.004 106.1C608.004 107.54 607.464 108.753 606.384 109.74C605.317 110.713 603.924 111.2 602.204 111.2H599.104V115H595.404ZM599.104 107.8H602.104C602.797 107.8 603.317 107.647 603.664 107.34C604.024 107.033 604.204 106.62 604.204 106.1C604.204 105.58 604.024 105.167 603.664 104.86C603.317 104.553 602.797 104.4 602.104 104.4H599.104V107.8ZM610.096 115V101H620.896V104.4H613.796V106.5H619.496V109.5H613.796V111.6H620.896V115H610.096ZM623.186 115V101H630.686C632.126 101 633.253 101.333 634.066 102C634.88 102.667 635.286 103.5 635.286 104.5C635.286 105.5 634.92 106.287 634.186 106.86C633.84 107.1 633.473 107.28 633.086 107.4V107.5C633.593 107.647 634.04 107.853 634.426 108.12C635.333 108.747 635.786 109.673 635.786 110.9C635.786 112.1 635.326 113.087 634.406 113.86C633.486 114.62 632.18 115 630.486 115H623.186ZM626.886 106.4H629.886C630.38 106.4 630.753 106.293 631.006 106.08C631.26 105.853 631.386 105.56 631.386 105.2C631.386 104.84 631.26 104.553 631.006 104.34C630.753 104.113 630.38 104 629.886 104H626.886V106.4ZM626.886 112H630.086C630.713 112 631.186 111.873 631.506 111.62C631.826 111.367 631.986 111.027 631.986 110.6C631.986 110.173 631.826 109.833 631.506 109.58C631.186 109.327 630.713 109.2 630.086 109.2H626.886V112ZM637.996 115V101H641.696V115H637.996ZM644.504 115V101H651.304C653.024 101 654.418 101.493 655.484 102.48C656.564 103.453 657.104 104.66 657.104 106.1C657.104 107.54 656.564 108.753 655.484 109.74C654.418 110.713 653.024 111.2 651.304 111.2H648.204V115H644.504ZM648.204 107.8H651.204C651.898 107.8 652.418 107.647 652.764 107.34C653.124 107.033 653.304 106.62 653.304 106.1C653.304 105.58 653.124 105.167 652.764 104.86C652.418 104.553 651.898 104.4 651.204 104.4H648.204V107.8ZM659.196 115V101H662.896V106.2H664.496L667.896 101H672.096L667.696 107.6L672.396 115H668.196L664.696 109.6H662.896V115H659.196ZM672.589 115L676.389 101H683.189L686.989 115H683.189L682.489 112.2H677.089L676.389 115H672.589ZM677.889 109H681.689L680.489 104.4H679.089L677.889 109Z" fill="#5D74F2"/>
<path d="M546.868 148.42V135.82H549.388V136.99H549.478C549.67 136.738 549.904 136.498 550.18 136.27C550.828 135.79 551.554 135.55 552.358 135.55C553.558 135.55 554.56 136 555.364 136.9C556.18 137.788 556.588 138.958 556.588 140.41C556.588 141.862 556.18 143.038 555.364 143.938C554.56 144.826 553.558 145.27 552.358 145.27C551.554 145.27 550.828 145.03 550.18 144.55C549.904 144.322 549.67 144.082 549.478 143.83H549.388V148.42H546.868ZM550.036 138.43C549.604 138.898 549.388 139.558 549.388 140.41C549.388 141.262 549.604 141.928 550.036 142.408C550.468 142.876 551.032 143.11 551.728 143.11C552.388 143.11 552.928 142.87 553.348 142.39C553.768 141.91 553.978 141.25 553.978 140.41C553.978 139.57 553.768 138.91 553.348 138.43C552.928 137.95 552.388 137.71 551.728 137.71C551.032 137.71 550.468 137.95 550.036 138.43ZM558.532 134.254C558.256 133.978 558.118 133.66 558.118 133.3C558.118 132.94 558.256 132.628 558.532 132.364C558.82 132.088 559.162 131.95 559.558 131.95C559.954 131.95 560.29 132.088 560.566 132.364C560.854 132.628 560.998 132.94 560.998 133.3C560.998 133.66 560.854 133.978 560.566 134.254C560.29 134.518 559.954 134.65 559.558 134.65C559.162 134.65 558.82 134.518 558.532 134.254ZM558.298 145V135.82H560.818V145H558.298ZM562.978 145V135.82H568.018C568.966 135.82 569.698 136.03 570.214 136.45C570.73 136.87 570.988 137.41 570.988 138.07C570.988 138.766 570.73 139.312 570.214 139.708C569.974 139.888 569.722 140.002 569.458 140.05V140.14C569.806 140.212 570.136 140.338 570.448 140.518C571.108 140.986 571.438 141.61 571.438 142.39C571.438 143.158 571.138 143.788 570.538 144.28C569.938 144.76 569.098 145 568.018 145H562.978ZM565.498 139.33H567.658C567.934 139.33 568.15 139.252 568.306 139.096C568.474 138.94 568.558 138.748 568.558 138.52C568.558 138.292 568.474 138.1 568.306 137.944C568.15 137.788 567.934 137.71 567.658 137.71H565.498V139.33ZM565.498 143.11H567.838C568.15 143.11 568.408 143.014 568.612 142.822C568.816 142.63 568.918 142.396 568.918 142.12C568.918 141.844 568.816 141.61 568.612 141.418C568.408 141.226 568.15 141.13 567.838 141.13H565.498V143.11ZM573.143 145V135.82H575.663V139.24H579.533V135.82H582.053V145H579.533V141.4H575.663V145H573.143ZM583.771 145L585.661 141.67C585.361 141.526 585.091 141.334 584.851 141.094C584.311 140.554 584.041 139.846 584.041 138.97C584.041 138.046 584.365 137.29 585.013 136.702C585.673 136.114 586.579 135.82 587.731 135.82H592.321V145H589.801V142.21H588.001L586.561 145H583.771ZM586.651 138.97C586.651 139.342 586.765 139.63 586.993 139.834C587.221 140.038 587.551 140.14 587.983 140.14H589.801V137.98H587.983C587.563 137.98 587.233 138.076 586.993 138.268C586.765 138.448 586.651 138.682 586.651 138.97ZM600.454 143.938C599.65 143.038 599.248 141.862 599.248 140.41C599.248 138.958 599.65 137.788 600.454 136.9C601.27 136 602.278 135.55 603.478 135.55C604.282 135.55 605.008 135.79 605.656 136.27C605.932 136.498 606.166 136.738 606.358 136.99H606.448V135.82H608.968V145H606.448V143.83H606.358C606.166 144.082 605.932 144.322 605.656 144.55C605.008 145.03 604.282 145.27 603.478 145.27C602.278 145.27 601.27 144.826 600.454 143.938ZM602.488 138.43C602.068 138.91 601.858 139.57 601.858 140.41C601.858 141.25 602.068 141.91 602.488 142.39C602.908 142.87 603.448 143.11 604.108 143.11C604.804 143.11 605.368 142.876 605.8 142.408C606.232 141.928 606.448 141.262 606.448 140.41C606.448 139.558 606.232 138.898 605.8 138.43C605.368 137.95 604.804 137.71 604.108 137.71C603.448 137.71 602.908 137.95 602.488 138.43ZM611.128 145V135.82H613.648V139.24H617.518V135.82H620.038V145H617.518V141.4H613.648V145H611.128ZM622.207 145V135.82H629.137V137.98H624.727V145H622.207ZM629.149 145L631.579 135.82H636.439L638.869 145H636.349L634.459 137.98H633.559L631.669 145H629.149ZM640.273 134.254C639.997 133.978 639.859 133.66 639.859 133.3C639.859 132.94 639.997 132.628 640.273 132.364C640.561 132.088 640.903 131.95 641.299 131.95C641.695 131.95 642.031 132.088 642.307 132.364C642.595 132.628 642.739 132.94 642.739 133.3C642.739 133.66 642.595 133.978 642.307 134.254C642.031 134.518 641.695 134.65 641.299 134.65C640.903 134.65 640.561 134.518 640.273 134.254ZM640.039 145V135.82H642.559V145H640.039ZM644.719 145V135.82H647.239V139.78L647.149 141.4H647.329L651.019 135.82H653.719V145H651.199V141.04L651.289 139.42H651.109L647.419 145H644.719ZM646.339 132.13H648.049C648.049 132.73 648.439 133.03 649.219 133.03C649.999 133.03 650.389 132.73 650.389 132.13H652.099C652.099 132.874 651.847 133.468 651.343 133.912C650.851 134.344 650.143 134.56 649.219 134.56C648.295 134.56 647.581 134.344 647.077 133.912C646.585 133.468 646.339 132.874 646.339 132.13ZM656.768 143.866C655.82 142.918 655.346 141.766 655.346 140.41C655.346 139.054 655.82 137.908 656.768 136.972C657.728 136.024 658.904 135.55 660.296 135.55C661.964 135.55 663.236 136.15 664.112 137.35C664.508 137.866 664.796 138.466 664.976 139.15H662.366C662.258 138.886 662.114 138.646 661.934 138.43C661.478 137.95 660.932 137.71 660.296 137.71C659.66 137.71 659.108 137.962 658.64 138.466C658.184 138.97 657.956 139.618 657.956 140.41C657.956 141.202 658.184 141.85 658.64 142.354C659.108 142.858 659.66 143.11 660.296 143.11C660.932 143.11 661.478 142.87 661.934 142.39C662.114 142.174 662.258 141.934 662.366 141.67H664.976C664.808 142.366 664.532 142.966 664.148 143.47C663.272 144.67 661.988 145.27 660.296 145.27C658.904 145.27 657.728 144.802 656.768 143.866ZM666.595 145V135.82H669.115V138.7H671.185C672.277 138.7 673.165 139.006 673.849 139.618C674.533 140.23 674.875 140.974 674.875 141.85C674.875 142.726 674.533 143.47 673.849 144.082C673.165 144.694 672.277 145 671.185 145H666.595ZM669.115 142.93H671.005C671.401 142.93 671.707 142.834 671.923 142.642C672.151 142.438 672.265 142.174 672.265 141.85C672.265 141.526 672.151 141.268 671.923 141.076C671.707 140.872 671.401 140.77 671.005 140.77H669.115V142.93ZM676.408 145V135.82H678.928V139.24H680.008L682.438 135.82H685.228L682.258 140.05L685.498 145H682.618L680.278 141.4H678.928V145H676.408ZM687.121 143.866C686.161 142.918 685.681 141.766 685.681 140.41C685.681 139.054 686.161 137.908 687.121 136.972C688.081 136.024 689.281 135.55 690.721 135.55C692.149 135.55 693.343 136.024 694.303 136.972C695.275 137.908 695.761 139.054 695.761 140.41C695.761 141.766 695.275 142.918 694.303 143.866C693.343 144.802 692.149 145.27 690.721 145.27C689.281 145.27 688.081 144.802 687.121 143.866ZM688.993 138.466C688.525 138.97 688.291 139.618 688.291 140.41C688.291 141.202 688.525 141.85 688.993 142.354C689.461 142.858 690.037 143.11 690.721 143.11C691.405 143.11 691.981 142.858 692.449 142.354C692.917 141.85 693.151 141.202 693.151 140.41C693.151 139.618 692.917 138.97 692.449 138.466C691.981 137.962 691.405 137.71 690.721 137.71C690.037 137.71 689.461 137.962 688.993 138.466ZM697.387 145V135.82H699.907V145H697.387ZM699.547 134.2C699.307 133.96 699.187 133.66 699.187 133.3C699.187 132.94 699.307 132.64 699.547 132.4C699.787 132.16 700.087 132.04 700.447 132.04C700.807 132.04 701.107 132.16 701.347 132.4C701.587 132.64 701.707 132.94 701.707 133.3C701.707 133.66 701.587 133.96 701.347 134.2C701.107 134.44 700.807 134.56 700.447 134.56C700.087 134.56 699.787 134.44 699.547 134.2ZM696.037 134.2C695.797 133.96 695.677 133.66 695.677 133.3C695.677 132.94 695.797 132.64 696.037 132.4C696.277 132.16 696.577 132.04 696.937 132.04C697.297 132.04 697.597 132.16 697.837 132.4C698.077 132.64 698.197 132.94 698.197 133.3C698.197 133.66 698.077 133.96 697.837 134.2C697.597 134.44 697.297 134.56 696.937 134.56C696.577 134.56 696.277 134.44 696.037 134.2ZM543.999 165.03H546.519C546.591 165.27 546.705 165.468 546.861 165.624C547.221 166.008 547.737 166.2 548.409 166.2C548.925 166.2 549.309 166.11 549.561 165.93C549.813 165.75 549.939 165.51 549.939 165.21C549.939 164.874 549.825 164.628 549.597 164.472C549.369 164.304 548.973 164.22 548.409 164.22H547.239V162.42H548.319C549.279 162.42 549.759 162.09 549.759 161.43C549.759 161.178 549.627 160.968 549.363 160.8C549.111 160.62 548.733 160.53 548.229 160.53C547.641 160.53 547.215 160.698 546.951 161.034C546.819 161.19 546.735 161.352 546.699 161.52H544.179C544.323 160.98 544.569 160.488 544.917 160.044C545.721 159.048 546.885 158.55 548.409 158.55C549.645 158.55 550.599 158.802 551.271 159.306C551.943 159.81 552.279 160.428 552.279 161.16C552.279 161.844 552.009 162.36 551.469 162.708C551.253 162.864 550.983 162.978 550.659 163.05V163.14C551.007 163.236 551.307 163.374 551.559 163.554C552.159 164.01 552.459 164.622 552.459 165.39C552.459 166.218 552.123 166.908 551.451 167.46C550.779 168 549.765 168.27 548.409 168.27C546.765 168.27 545.535 167.73 544.719 166.65C544.371 166.17 544.131 165.63 543.999 165.03ZM559.386 168V158.82H562.806L564.966 163.77H565.236L567.396 158.82H570.816V168H568.296V163.41L568.386 161.79H568.296L566.316 166.29H563.886L561.906 161.79H561.816L561.906 163.41V168H559.386ZM573.86 166.866C572.912 165.918 572.438 164.766 572.438 163.41C572.438 162.054 572.912 160.908 573.86 159.972C574.82 159.024 575.996 158.55 577.388 158.55C578.804 158.55 579.968 159.018 580.88 159.954C581.792 160.89 582.248 162.042 582.248 163.41V163.95H575.048C575.144 164.55 575.414 165.06 575.858 165.48C576.302 165.9 576.812 166.11 577.388 166.11C578.024 166.11 578.57 165.93 579.026 165.57C579.206 165.414 579.35 165.234 579.458 165.03H582.158C581.954 165.642 581.654 166.182 581.258 166.65C580.298 167.73 579.008 168.27 577.388 168.27C575.996 168.27 574.82 167.802 573.86 166.866ZM575.138 162.42H579.548C579.452 161.94 579.206 161.538 578.81 161.214C578.426 160.878 577.952 160.71 577.388 160.71C576.824 160.71 576.344 160.872 575.948 161.196C575.552 161.52 575.282 161.928 575.138 162.42ZM583.051 160.98V158.82H591.691V160.98H588.631V168H586.111V160.98H583.051ZM593.855 166.866C592.895 165.918 592.415 164.766 592.415 163.41C592.415 162.054 592.895 160.908 593.855 159.972C594.815 159.024 596.015 158.55 597.455 158.55C598.883 158.55 600.077 159.024 601.037 159.972C602.009 160.908 602.495 162.054 602.495 163.41C602.495 164.766 602.009 165.918 601.037 166.866C600.077 167.802 598.883 168.27 597.455 168.27C596.015 168.27 594.815 167.802 593.855 166.866ZM595.727 161.466C595.259 161.97 595.025 162.618 595.025 163.41C595.025 164.202 595.259 164.85 595.727 165.354C596.195 165.858 596.771 166.11 597.455 166.11C598.139 166.11 598.715 165.858 599.183 165.354C599.651 164.85 599.885 164.202 599.885 163.41C599.885 162.618 599.651 161.97 599.183 161.466C598.715 160.962 598.139 160.71 597.455 160.71C596.771 160.71 596.195 160.962 595.727 161.466ZM603.221 169.89V165.84H604.211L606.101 158.82H610.961L612.851 165.84H613.841V169.89H611.501V168H605.561V169.89H603.221ZM606.731 165.84H610.331L608.981 160.98H608.081L606.731 165.84ZM615.094 168V158.82H617.614V162.78L617.524 164.4H617.704L621.394 158.82H624.094V168H621.574V164.04L621.664 162.42H621.484L617.794 168H615.094ZM627.143 166.866C626.195 165.918 625.721 164.766 625.721 163.41C625.721 162.054 626.195 160.908 627.143 159.972C628.103 159.024 629.279 158.55 630.671 158.55C632.339 158.55 633.611 159.15 634.487 160.35C634.883 160.866 635.171 161.466 635.351 162.15H632.741C632.633 161.886 632.489 161.646 632.309 161.43C631.853 160.95 631.307 160.71 630.671 160.71C630.035 160.71 629.483 160.962 629.015 161.466C628.559 161.97 628.331 162.618 628.331 163.41C628.331 164.202 628.559 164.85 629.015 165.354C629.483 165.858 630.035 166.11 630.671 166.11C631.307 166.11 631.853 165.87 632.309 165.39C632.489 165.174 632.633 164.934 632.741 164.67H635.351C635.183 165.366 634.907 165.966 634.523 166.47C633.647 167.67 632.363 168.27 630.671 168.27C629.279 168.27 628.103 167.802 627.143 166.866ZM636.07 160.98V158.82H644.71V160.98H641.65V168H639.13V160.98H636.07ZM646.874 166.866C645.914 165.918 645.434 164.766 645.434 163.41C645.434 162.054 645.914 160.908 646.874 159.972C647.834 159.024 649.034 158.55 650.474 158.55C651.902 158.55 653.096 159.024 654.056 159.972C655.028 160.908 655.514 162.054 655.514 163.41C655.514 164.766 655.028 165.918 654.056 166.866C653.096 167.802 651.902 168.27 650.474 168.27C649.034 168.27 647.834 167.802 646.874 166.866ZM648.746 161.466C648.278 161.97 648.044 162.618 648.044 163.41C648.044 164.202 648.278 164.85 648.746 165.354C649.214 165.858 649.79 166.11 650.474 166.11C651.158 166.11 651.734 165.858 652.202 165.354C652.67 164.85 652.904 164.202 652.904 163.41C652.904 162.618 652.67 161.97 652.202 161.466C651.734 160.962 651.158 160.71 650.474 160.71C649.79 160.71 649.214 160.962 648.746 161.466ZM657.14 168V158.82H660.56L662.72 163.77H662.99L665.15 158.82H668.57V168H666.05V163.41L666.14 161.79H666.05L664.07 166.29H661.64L659.66 161.79H659.57L659.66 163.41V168H657.14ZM676.713 166.938C675.909 166.038 675.507 164.862 675.507 163.41C675.507 161.958 675.909 160.788 676.713 159.9C677.529 159 678.537 158.55 679.737 158.55C680.541 158.55 681.267 158.79 681.915 159.27C682.191 159.498 682.425 159.738 682.617 159.99H682.707V158.82H685.227V168H682.707V166.83H682.617C682.425 167.082 682.191 167.322 681.915 167.55C681.267 168.03 680.541 168.27 679.737 168.27C678.537 168.27 677.529 167.826 676.713 166.938ZM678.747 161.43C678.327 161.91 678.117 162.57 678.117 163.41C678.117 164.25 678.327 164.91 678.747 165.39C679.167 165.87 679.707 166.11 680.367 166.11C681.063 166.11 681.627 165.876 682.059 165.408C682.491 164.928 682.707 164.262 682.707 163.41C682.707 162.558 682.491 161.898 682.059 161.43C681.627 160.95 681.063 160.71 680.367 160.71C679.707 160.71 679.167 160.95 678.747 161.43ZM687.027 162.78C687.027 157.86 689.067 155.4 693.147 155.4H695.757V157.56H693.417C692.181 157.56 691.239 157.848 690.591 158.424C689.943 158.988 689.595 159.78 689.547 160.8H689.637C689.781 160.596 689.997 160.386 690.285 160.17C690.897 159.75 691.611 159.54 692.427 159.54C693.615 159.54 694.599 159.942 695.379 160.746C696.171 161.538 696.567 162.546 696.567 163.77C696.567 165.054 696.123 166.128 695.235 166.992C694.359 167.844 693.213 168.27 691.797 168.27C690.417 168.27 689.277 167.772 688.377 166.776C687.477 165.78 687.027 164.448 687.027 162.78ZM689.637 163.77C689.637 164.478 689.835 165.048 690.231 165.48C690.627 165.9 691.149 166.11 691.797 166.11C692.445 166.11 692.967 165.9 693.363 165.48C693.759 165.048 693.957 164.478 693.957 163.77C693.957 163.086 693.759 162.54 693.363 162.132C692.967 161.724 692.445 161.52 691.797 161.52C691.149 161.52 690.627 161.724 690.231 162.132C689.835 162.54 689.637 163.086 689.637 163.77ZM699.085 166.866C698.125 165.918 697.645 164.766 697.645 163.41C697.645 162.054 698.125 160.908 699.085 159.972C700.045 159.024 701.245 158.55 702.685 158.55C704.113 158.55 705.307 159.024 706.267 159.972C707.239 160.908 707.725 162.054 707.725 163.41C707.725 164.766 707.239 165.918 706.267 166.866C705.307 167.802 704.113 168.27 702.685 168.27C701.245 168.27 700.045 167.802 699.085 166.866ZM700.957 161.466C700.489 161.97 700.255 162.618 700.255 163.41C700.255 164.202 700.489 164.85 700.957 165.354C701.425 165.858 702.001 166.11 702.685 166.11C703.369 166.11 703.945 165.858 704.413 165.354C704.881 164.85 705.115 164.202 705.115 163.41C705.115 162.618 704.881 161.97 704.413 161.466C703.945 160.962 703.369 160.71 702.685 160.71C702.001 160.71 701.425 160.962 700.957 161.466ZM538.244 187.04H541.034C541.142 187.4 541.316 187.718 541.556 187.994C542.084 188.618 542.87 188.93 543.914 188.93C545.474 188.93 546.254 188.45 546.254 187.49C546.254 187.25 546.17 187.034 546.002 186.842C545.846 186.65 545.594 186.482 545.246 186.338C544.91 186.194 544.58 186.08 544.256 185.996C543.944 185.9 543.536 185.786 543.032 185.654C542.96 185.642 542.9 185.63 542.852 185.618C542.816 185.606 542.762 185.594 542.69 185.582C542.63 185.558 542.576 185.54 542.528 185.528C540.032 184.928 538.784 183.722 538.784 181.91C538.784 180.83 539.222 179.918 540.098 179.174C540.986 178.418 542.168 178.04 543.644 178.04C545.564 178.04 547.016 178.688 548 179.984C548.408 180.56 548.696 181.202 548.864 181.91H546.074C546.002 181.658 545.864 181.418 545.66 181.19C545.204 180.71 544.532 180.47 543.644 180.47C542.96 180.47 542.444 180.602 542.096 180.866C541.748 181.118 541.574 181.436 541.574 181.82C541.574 182.516 542.366 183.044 543.95 183.404C544.358 183.5 544.61 183.56 544.706 183.584C544.814 183.608 545.06 183.674 545.444 183.782C545.84 183.89 546.104 183.98 546.236 184.052C546.38 184.112 546.614 184.214 546.938 184.358C547.274 184.49 547.508 184.616 547.64 184.736C547.784 184.856 547.964 185.018 548.18 185.222C548.408 185.414 548.57 185.612 548.666 185.816C548.762 186.02 548.846 186.26 548.918 186.536C549.002 186.8 549.044 187.088 549.044 187.4C549.044 188.516 548.594 189.458 547.694 190.226C546.794 190.982 545.534 191.36 543.914 191.36C541.778 191.36 540.212 190.64 539.216 189.2C538.748 188.576 538.424 187.856 538.244 187.04ZM551.729 189.866C550.781 188.918 550.307 187.766 550.307 186.41C550.307 185.054 550.781 183.908 551.729 182.972C552.689 182.024 553.865 181.55 555.257 181.55C556.673 181.55 557.837 182.018 558.749 182.954C559.661 183.89 560.117 185.042 560.117 186.41V186.95H552.917C553.013 187.55 553.283 188.06 553.727 188.48C554.171 188.9 554.681 189.11 555.257 189.11C555.893 189.11 556.439 188.93 556.895 188.57C557.075 188.414 557.219 188.234 557.327 188.03H560.027C559.823 188.642 559.523 189.182 559.127 189.65C558.167 190.73 556.877 191.27 555.257 191.27C553.865 191.27 552.689 190.802 551.729 189.866ZM553.007 185.42H557.417C557.321 184.94 557.075 184.538 556.679 184.214C556.295 183.878 555.821 183.71 555.257 183.71C554.693 183.71 554.213 183.872 553.817 184.196C553.421 184.52 553.151 184.928 553.007 185.42ZM561.82 191V181.82H564.34V183.08H564.43C564.586 182.804 564.808 182.552 565.096 182.324C565.756 181.808 566.494 181.55 567.31 181.55C568.45 181.55 569.332 181.88 569.956 182.54C570.592 183.2 570.91 184.16 570.91 185.42V191H568.39V185.78C568.39 185.108 568.222 184.598 567.886 184.25C567.562 183.89 567.1 183.71 566.5 183.71C565.9 183.71 565.39 183.938 564.97 184.394C564.55 184.85 564.34 185.432 564.34 186.14V191H561.82ZM573.22 180.254C572.944 179.978 572.806 179.66 572.806 179.3C572.806 178.94 572.944 178.628 573.22 178.364C573.508 178.088 573.85 177.95 574.246 177.95C574.642 177.95 574.978 178.088 575.254 178.364C575.542 178.628 575.686 178.94 575.686 179.3C575.686 179.66 575.542 179.978 575.254 180.254C574.978 180.518 574.642 180.65 574.246 180.65C573.85 180.65 573.508 180.518 573.22 180.254ZM572.986 191V181.82H575.506V191H572.986ZM578.566 189.866C577.606 188.918 577.126 187.766 577.126 186.41C577.126 185.054 577.606 183.908 578.566 182.972C579.526 182.024 580.726 181.55 582.166 181.55C583.594 181.55 584.788 182.024 585.748 182.972C586.72 183.908 587.206 185.054 587.206 186.41C587.206 187.766 586.72 188.918 585.748 189.866C584.788 190.802 583.594 191.27 582.166 191.27C580.726 191.27 579.526 190.802 578.566 189.866ZM580.438 184.466C579.97 184.97 579.736 185.618 579.736 186.41C579.736 187.202 579.97 187.85 580.438 188.354C580.906 188.858 581.482 189.11 582.166 189.11C582.85 189.11 583.426 188.858 583.894 188.354C584.362 187.85 584.596 187.202 584.596 186.41C584.596 185.618 584.362 184.97 583.894 184.466C583.426 183.962 582.85 183.71 582.166 183.71C581.482 183.71 580.906 183.962 580.438 184.466ZM588.833 191V181.82H591.353V183.17H591.443C591.551 182.882 591.713 182.63 591.929 182.414C592.421 181.898 593.039 181.64 593.783 181.64H594.863V184.07H593.513C592.829 184.07 592.295 184.256 591.911 184.628C591.539 184.988 591.353 185.492 591.353 186.14V191H588.833ZM596.308 187.22V185.06H603.058V187.22H596.308ZM605.224 191V181.82H610.264C611.212 181.82 611.944 182.03 612.46 182.45C612.976 182.87 613.234 183.41 613.234 184.07C613.234 184.766 612.976 185.312 612.46 185.708C612.22 185.888 611.968 186.002 611.704 186.05V186.14C612.052 186.212 612.382 186.338 612.694 186.518C613.354 186.986 613.684 187.61 613.684 188.39C613.684 189.158 613.384 189.788 612.784 190.28C612.184 190.76 611.344 191 610.264 191H605.224ZM607.744 185.33H609.904C610.18 185.33 610.396 185.252 610.552 185.096C610.72 184.94 610.804 184.748 610.804 184.52C610.804 184.292 610.72 184.1 610.552 183.944C610.396 183.788 610.18 183.71 609.904 183.71H607.744V185.33ZM607.744 189.11H610.084C610.396 189.11 610.654 189.014 610.858 188.822C611.062 188.63 611.164 188.396 611.164 188.12C611.164 187.844 611.062 187.61 610.858 187.418C610.654 187.226 610.396 187.13 610.084 187.13H607.744V189.11ZM615.388 191V181.82H617.908V185.78L617.818 187.4H617.998L621.688 181.82H624.388V191H621.868V187.04L621.958 185.42H621.778L618.088 191H615.388ZM626.555 191V181.82H629.075V185.24H630.155L632.585 181.82H635.375L632.405 186.05L635.645 191H632.765L630.425 187.4H629.075V191H626.555ZM635.729 191L638.159 181.82H643.019L645.449 191H642.929L641.039 183.98H640.139L638.249 191H635.729ZM647.376 189.938C646.572 189.038 646.17 187.862 646.17 186.41C646.17 184.958 646.572 183.788 647.376 182.9C648.192 182 649.2 181.55 650.4 181.55C651.204 181.55 651.93 181.79 652.578 182.27C652.854 182.498 653.088 182.738 653.28 182.99H653.37V181.82H655.89V191H653.37V189.83H653.28C653.088 190.082 652.854 190.322 652.578 190.55C651.93 191.03 651.204 191.27 650.4 191.27C649.2 191.27 648.192 190.826 647.376 189.938ZM649.41 184.43C648.99 184.91 648.78 185.57 648.78 186.41C648.78 187.25 648.99 187.91 649.41 188.39C649.83 188.87 650.37 189.11 651.03 189.11C651.726 189.11 652.29 188.876 652.722 188.408C653.154 187.928 653.37 187.262 653.37 186.41C653.37 185.558 653.154 184.898 652.722 184.43C652.29 183.95 651.726 183.71 651.03 183.71C650.37 183.71 649.83 183.95 649.41 184.43ZM657.15 192.89V188.84H658.14L660.03 181.82H664.89L666.78 188.84H667.77V192.89H665.43V191H659.49V192.89H657.15ZM660.66 188.84H664.26L662.91 183.98H662.01L660.66 188.84ZM669.779 189.938C668.975 189.038 668.573 187.862 668.573 186.41C668.573 184.958 668.975 183.788 669.779 182.9C670.595 182 671.603 181.55 672.803 181.55C673.607 181.55 674.333 181.79 674.981 182.27C675.257 182.498 675.491 182.738 675.683 182.99H675.773V181.82H678.293V191H675.773V189.83H675.683C675.491 190.082 675.257 190.322 674.981 190.55C674.333 191.03 673.607 191.27 672.803 191.27C671.603 191.27 670.595 190.826 669.779 189.938ZM671.813 184.43C671.393 184.91 671.183 185.57 671.183 186.41C671.183 187.25 671.393 187.91 671.813 188.39C672.233 188.87 672.773 189.11 673.433 189.11C674.129 189.11 674.693 188.876 675.125 188.408C675.557 187.928 675.773 187.262 675.773 186.41C675.773 185.558 675.557 184.898 675.125 184.43C674.693 183.95 674.129 183.71 673.433 183.71C672.773 183.71 672.233 183.95 671.813 184.43ZM680.183 185.24V181.82H682.703V185.06C682.703 186.02 683.213 186.5 684.233 186.5C684.725 186.5 685.199 186.416 685.655 186.248C685.835 186.176 685.991 186.092 686.123 185.996V181.82H688.643V191H686.123V188.03C685.955 188.162 685.757 188.27 685.529 188.354C685.013 188.558 684.431 188.66 683.783 188.66C682.667 188.66 681.785 188.354 681.137 187.742C680.501 187.13 680.183 186.296 680.183 185.24ZM691.693 189.866C690.745 188.918 690.271 187.766 690.271 186.41C690.271 185.054 690.745 183.908 691.693 182.972C692.653 182.024 693.829 181.55 695.221 181.55C696.637 181.55 697.801 182.018 698.713 182.954C699.625 183.89 700.081 185.042 700.081 186.41V186.95H692.881C692.977 187.55 693.247 188.06 693.691 188.48C694.135 188.9 694.645 189.11 695.221 189.11C695.857 189.11 696.403 188.93 696.859 188.57C697.039 188.414 697.183 188.234 697.291 188.03H699.991C699.787 188.642 699.487 189.182 699.091 189.65C698.131 190.73 696.841 191.27 695.221 191.27C693.829 191.27 692.653 190.802 691.693 189.866ZM692.971 185.42H697.381C697.285 184.94 697.039 184.538 696.643 184.214C696.259 183.878 695.785 183.71 695.221 183.71C694.657 183.71 694.177 183.872 693.781 184.196C693.385 184.52 693.115 184.928 692.971 185.42ZM701.784 191V181.82H705.204L707.364 186.77H707.634L709.794 181.82H713.214V191H710.694V186.41L710.784 184.79H710.694L708.714 189.29H706.284L704.304 184.79H704.214L704.304 186.41V191H701.784Z" fill="#404040"/>
<path d="M1066.76 115V101H1079.56V115H1075.86V104.4H1070.46V115H1066.76ZM1082.35 115V101H1089.15C1090.87 101 1092.26 101.493 1093.33 102.48C1094.41 103.453 1094.95 104.66 1094.95 106.1C1094.95 107.54 1094.41 108.753 1093.33 109.74C1092.26 110.713 1090.87 111.2 1089.15 111.2H1086.05V115H1082.35ZM1086.05 107.8H1089.05C1089.74 107.8 1090.26 107.647 1090.61 107.34C1090.97 107.033 1091.15 106.62 1091.15 106.1C1091.15 105.58 1090.97 105.167 1090.61 104.86C1090.26 104.553 1089.74 104.4 1089.05 104.4H1086.05V107.8ZM1098.64 113.24C1097.18 111.787 1096.44 110.04 1096.44 108C1096.44 105.96 1097.18 104.22 1098.64 102.78C1100.12 101.327 1101.99 100.6 1104.24 100.6C1106.5 100.6 1108.36 101.327 1109.82 102.78C1111.3 104.22 1112.04 105.96 1112.04 108C1112.04 110.04 1111.3 111.787 1109.82 113.24C1108.36 114.68 1106.5 115.4 1104.24 115.4C1101.99 115.4 1100.12 114.68 1098.64 113.24ZM1101.42 105.1C1100.7 105.833 1100.34 106.8 1100.34 108C1100.34 109.2 1100.7 110.167 1101.42 110.9C1102.14 111.633 1103.08 112 1104.24 112C1105.4 112 1106.34 111.633 1107.06 110.9C1107.78 110.167 1108.14 109.2 1108.14 108C1108.14 106.8 1107.78 105.833 1107.06 105.1C1106.34 104.367 1105.4 104 1104.24 104C1103.08 104 1102.14 104.367 1101.42 105.1ZM1112.43 115L1115.93 108.1L1112.73 101H1116.63L1118.83 106.4H1119.83L1122.03 101H1125.93L1122.73 108.1L1126.23 115H1122.23L1119.83 109.8H1118.83L1116.43 115H1112.43ZM1128.83 113.24C1127.36 111.787 1126.63 110.04 1126.63 108C1126.63 105.96 1127.36 104.22 1128.83 102.78C1130.31 101.327 1132.18 100.6 1134.43 100.6C1136.68 100.6 1138.54 101.327 1140.01 102.78C1141.49 104.22 1142.23 105.96 1142.23 108C1142.23 110.04 1141.49 111.787 1140.01 113.24C1138.54 114.68 1136.68 115.4 1134.43 115.4C1132.18 115.4 1130.31 114.68 1128.83 113.24ZM1131.61 105.1C1130.89 105.833 1130.53 106.8 1130.53 108C1130.53 109.2 1130.89 110.167 1131.61 110.9C1132.33 111.633 1133.27 112 1134.43 112C1135.59 112 1136.53 111.633 1137.25 110.9C1137.97 110.167 1138.33 109.2 1138.33 108C1138.33 106.8 1137.97 105.833 1137.25 105.1C1136.53 104.367 1135.59 104 1134.43 104C1133.27 104 1132.33 104.367 1131.61 105.1ZM1143.22 117.4V111.6H1144.82L1147.62 101H1154.52L1157.32 111.6H1158.92V117.4H1155.42V115H1146.72V117.4H1143.22ZM1148.32 111.6H1153.82L1151.92 104.4H1150.22L1148.32 111.6ZM1159.22 115L1163.72 107.6L1159.52 101H1163.72L1166.92 106.2H1168.12V101H1171.82V106.2H1173.02L1176.22 101H1180.42L1176.22 107.6L1180.72 115H1176.52L1173.22 109.6H1171.82V115H1168.12V109.6H1166.72L1163.42 115H1159.22ZM1182.22 115V101H1193.02V104.4H1185.92V106.5H1191.62V109.5H1185.92V111.6H1193.02V115H1182.22ZM1195.31 115V101H1199.01V106.2H1204.41V101H1208.11V115H1204.41V109.6H1199.01V115H1195.31ZM1210.9 115V101H1214.6V106.2H1220V101H1223.7V115H1220V109.6H1214.6V115H1210.9ZM1226.1 105.9C1226.1 104.513 1226.61 103.353 1227.64 102.42C1228.68 101.473 1230.03 101 1231.7 101H1238.7V115H1235V110.8H1232.4L1230 115H1226L1228.9 110C1227.03 109.067 1226.1 107.7 1226.1 105.9ZM1230.42 104.84C1230.07 105.133 1229.9 105.487 1229.9 105.9C1229.9 106.313 1230.07 106.667 1230.42 106.96C1230.76 107.253 1231.22 107.4 1231.8 107.4H1235V104.4H1231.8C1231.22 104.4 1230.76 104.547 1230.42 104.84Z" fill="#5D74F2"/>
<path d="M1119.91 141.31H1122.7C1122.78 141.61 1122.93 141.868 1123.13 142.084C1123.59 142.588 1124.25 142.84 1125.13 142.84C1125.84 142.84 1126.39 142.666 1126.78 142.318C1127.18 141.958 1127.38 141.502 1127.38 140.95C1127.38 140.35 1127.18 139.87 1126.78 139.51C1126.39 139.15 1125.84 138.97 1125.13 138.97C1124.52 138.97 1123.99 139.108 1123.56 139.384C1123.37 139.528 1123.23 139.66 1123.15 139.78H1120.36L1120.9 132.4H1129.18V134.92H1123.24L1123.06 137.44H1123.15C1123.32 137.272 1123.52 137.122 1123.76 136.99C1124.34 136.69 1124.97 136.54 1125.67 136.54C1126.96 136.54 1128.05 136.972 1128.93 137.836C1129.81 138.688 1130.26 139.726 1130.26 140.95C1130.26 142.198 1129.78 143.248 1128.84 144.1C1127.9 144.94 1126.66 145.36 1125.13 145.36C1123.17 145.36 1121.71 144.688 1120.75 143.344C1120.33 142.732 1120.05 142.054 1119.91 141.31ZM1131.96 141.22V139.06H1138.71V141.22H1131.96ZM1139.98 137.98V135.82H1148.62V137.98H1145.56V145H1143.04V137.98H1139.98ZM1149.88 145V135.82H1152.4V139.78L1152.31 141.4H1152.49L1156.18 135.82H1158.88V145H1156.36V141.04L1156.45 139.42H1156.27L1152.58 145H1149.88ZM1165.37 146.89V142.84H1166.36L1168.25 135.82H1173.11L1175 142.84H1175.99V146.89H1173.65V145H1167.71V146.89H1165.37ZM1168.88 142.84H1172.48L1171.13 137.98H1170.23L1168.88 142.84ZM1178.13 143.866C1177.18 142.918 1176.7 141.766 1176.7 140.41C1176.7 139.054 1177.18 137.908 1178.13 136.972C1179.09 136.024 1180.26 135.55 1181.65 135.55C1183.07 135.55 1184.23 136.018 1185.15 136.954C1186.06 137.89 1186.51 139.042 1186.51 140.41V140.95H1179.31C1179.41 141.55 1179.68 142.06 1180.12 142.48C1180.57 142.9 1181.08 143.11 1181.65 143.11C1182.29 143.11 1182.84 142.93 1183.29 142.57C1183.47 142.414 1183.62 142.234 1183.72 142.03H1186.42C1186.22 142.642 1185.92 143.182 1185.52 143.65C1184.56 144.73 1183.27 145.27 1181.65 145.27C1180.26 145.27 1179.09 144.802 1178.13 143.866ZM1179.4 139.42H1183.81C1183.72 138.94 1183.47 138.538 1183.08 138.214C1182.69 137.878 1182.22 137.71 1181.65 137.71C1181.09 137.71 1180.61 137.872 1180.21 138.196C1179.82 138.52 1179.55 138.928 1179.4 139.42ZM1188.22 145V135.82H1190.74V139.24H1194.61V135.82H1197.13V145H1194.61V141.4H1190.74V145H1188.22ZM1199.3 145V135.82H1201.82V139.24H1205.69V135.82H1208.21V145H1205.69V141.4H1201.82V145H1199.3ZM1211.27 143.866C1210.31 142.918 1209.83 141.766 1209.83 140.41C1209.83 139.054 1210.31 137.908 1211.27 136.972C1212.23 136.024 1213.43 135.55 1214.87 135.55C1216.3 135.55 1217.5 136.024 1218.46 136.972C1219.43 137.908 1219.91 139.054 1219.91 140.41C1219.91 141.766 1219.43 142.918 1218.46 143.866C1217.5 144.802 1216.3 145.27 1214.87 145.27C1213.43 145.27 1212.23 144.802 1211.27 143.866ZM1213.15 138.466C1212.68 138.97 1212.44 139.618 1212.44 140.41C1212.44 141.202 1212.68 141.85 1213.15 142.354C1213.61 142.858 1214.19 143.11 1214.87 143.11C1215.56 143.11 1216.13 142.858 1216.6 142.354C1217.07 141.85 1217.3 141.202 1217.3 140.41C1217.3 139.618 1217.07 138.97 1216.6 138.466C1216.13 137.962 1215.56 137.71 1214.87 137.71C1214.19 137.71 1213.61 137.962 1213.15 138.466ZM1221.54 145V135.82H1228.47V137.98H1224.06V145H1221.54ZM1230.72 143.866C1229.76 142.918 1229.28 141.766 1229.28 140.41C1229.28 139.054 1229.76 137.908 1230.72 136.972C1231.68 136.024 1232.88 135.55 1234.32 135.55C1235.75 135.55 1236.95 136.024 1237.91 136.972C1238.88 137.908 1239.36 139.054 1239.36 140.41C1239.36 141.766 1238.88 142.918 1237.91 143.866C1236.95 144.802 1235.75 145.27 1234.32 145.27C1232.88 145.27 1231.68 144.802 1230.72 143.866ZM1232.6 138.466C1232.13 138.97 1231.89 139.618 1231.89 140.41C1231.89 141.202 1232.13 141.85 1232.6 142.354C1233.06 142.858 1233.64 143.11 1234.32 143.11C1235.01 143.11 1235.58 142.858 1236.05 142.354C1236.52 141.85 1236.75 141.202 1236.75 140.41C1236.75 139.618 1236.52 138.97 1236.05 138.466C1235.58 137.962 1235.01 137.71 1234.32 137.71C1233.64 137.71 1233.06 137.962 1232.6 138.466ZM1126.11 157.254C1125.83 156.978 1125.69 156.66 1125.69 156.3C1125.69 155.94 1125.83 155.628 1126.11 155.364C1126.39 155.088 1126.74 154.95 1127.13 154.95C1127.53 154.95 1127.86 155.088 1128.14 155.364C1128.43 155.628 1128.57 155.94 1128.57 156.3C1128.57 156.66 1128.43 156.978 1128.14 157.254C1127.86 157.518 1127.53 157.65 1127.13 157.65C1126.74 157.65 1126.39 157.518 1126.11 157.254ZM1125.87 168V158.82H1128.39V168H1125.87ZM1130.55 168V158.82H1133.07V162.24H1136.94V158.82H1139.46V168H1136.94V164.4H1133.07V168H1130.55ZM1140.73 160.98V158.82H1149.37V160.98H1146.31V168H1143.79V160.98H1140.73ZM1151.52 166.866C1150.57 165.918 1150.1 164.766 1150.1 163.41C1150.1 162.054 1150.57 160.908 1151.52 159.972C1152.48 159.024 1153.65 158.55 1155.05 158.55C1156.46 158.55 1157.63 159.018 1158.54 159.954C1159.45 160.89 1159.91 162.042 1159.91 163.41V163.95H1152.71C1152.8 164.55 1153.07 165.06 1153.52 165.48C1153.96 165.9 1154.47 166.11 1155.05 166.11C1155.68 166.11 1156.23 165.93 1156.68 165.57C1156.86 165.414 1157.01 165.234 1157.12 165.03H1159.82C1159.61 165.642 1159.31 166.182 1158.92 166.65C1157.96 167.73 1156.67 168.27 1155.05 168.27C1153.65 168.27 1152.48 167.802 1151.52 166.866ZM1152.8 162.42H1157.21C1157.11 161.94 1156.86 161.538 1156.47 161.214C1156.08 160.878 1155.61 160.71 1155.05 160.71C1154.48 160.71 1154 160.872 1153.61 161.196C1153.21 161.52 1152.94 161.928 1152.8 162.42ZM1161.61 168V158.82H1164.13V162.24H1168V158.82H1170.52V168H1168V164.4H1164.13V168H1161.61ZM1173.57 166.866C1172.62 165.918 1172.15 164.766 1172.15 163.41C1172.15 162.054 1172.62 160.908 1173.57 159.972C1174.53 159.024 1175.71 158.55 1177.1 158.55C1178.77 158.55 1180.04 159.15 1180.91 160.35C1181.31 160.866 1181.6 161.466 1181.78 162.15H1179.17C1179.06 161.886 1178.92 161.646 1178.74 161.43C1178.28 160.95 1177.73 160.71 1177.1 160.71C1176.46 160.71 1175.91 160.962 1175.44 161.466C1174.99 161.97 1174.76 162.618 1174.76 163.41C1174.76 164.202 1174.99 164.85 1175.44 165.354C1175.91 165.858 1176.46 166.11 1177.1 166.11C1177.73 166.11 1178.28 165.87 1178.74 165.39C1178.92 165.174 1179.06 164.934 1179.17 164.67H1181.78C1181.61 165.366 1181.33 165.966 1180.95 166.47C1180.07 167.67 1178.79 168.27 1177.1 168.27C1175.71 168.27 1174.53 167.802 1173.57 166.866ZM1183.4 168V158.82H1185.92V162.78L1185.83 164.4H1186.01L1189.7 158.82H1192.4V168H1189.88V164.04L1189.97 162.42H1189.79L1186.1 168H1183.4ZM1194.56 168V158.82H1199.6C1200.55 158.82 1201.28 159.03 1201.8 159.45C1202.31 159.87 1202.57 160.41 1202.57 161.07C1202.57 161.766 1202.31 162.312 1201.8 162.708C1201.56 162.888 1201.31 163.002 1201.04 163.05V163.14C1201.39 163.212 1201.72 163.338 1202.03 163.518C1202.69 163.986 1203.02 164.61 1203.02 165.39C1203.02 166.158 1202.72 166.788 1202.12 167.28C1201.52 167.76 1200.68 168 1199.6 168H1194.56ZM1197.08 162.33H1199.24C1199.52 162.33 1199.73 162.252 1199.89 162.096C1200.06 161.94 1200.14 161.748 1200.14 161.52C1200.14 161.292 1200.06 161.1 1199.89 160.944C1199.73 160.788 1199.52 160.71 1199.24 160.71H1197.08V162.33ZM1197.08 166.11H1199.42C1199.73 166.11 1199.99 166.014 1200.2 165.822C1200.4 165.63 1200.5 165.396 1200.5 165.12C1200.5 164.844 1200.4 164.61 1200.2 164.418C1199.99 164.226 1199.73 164.13 1199.42 164.13H1197.08V166.11ZM1203.92 158.82H1206.53L1208.33 165.84H1209.05L1211.03 158.82H1213.64L1209.95 171.42H1207.34L1208.33 168H1206.35L1203.92 158.82ZM1219.4 165.03H1221.92C1221.99 165.27 1222.1 165.468 1222.26 165.624C1222.62 166.008 1223.14 166.2 1223.81 166.2C1224.32 166.2 1224.71 166.11 1224.96 165.93C1225.21 165.75 1225.34 165.51 1225.34 165.21C1225.34 164.874 1225.22 164.628 1225 164.472C1224.77 164.304 1224.37 164.22 1223.81 164.22H1222.64V162.42H1223.72C1224.68 162.42 1225.16 162.09 1225.16 161.43C1225.16 161.178 1225.03 160.968 1224.76 160.8C1224.51 160.62 1224.13 160.53 1223.63 160.53C1223.04 160.53 1222.61 160.698 1222.35 161.034C1222.22 161.19 1222.13 161.352 1222.1 161.52H1219.58C1219.72 160.98 1219.97 160.488 1220.32 160.044C1221.12 159.048 1222.28 158.55 1223.81 158.55C1225.04 158.55 1226 158.802 1226.67 159.306C1227.34 159.81 1227.68 160.428 1227.68 161.16C1227.68 161.844 1227.41 162.36 1226.87 162.708C1226.65 162.864 1226.38 162.978 1226.06 163.05V163.14C1226.41 163.236 1226.71 163.374 1226.96 163.554C1227.56 164.01 1227.86 164.622 1227.86 165.39C1227.86 166.218 1227.52 166.908 1226.85 167.46C1226.18 168 1225.16 168.27 1223.81 168.27C1222.16 168.27 1220.93 167.73 1220.12 166.65C1219.77 166.17 1219.53 165.63 1219.4 165.03ZM1230.32 166.938C1229.51 166.038 1229.11 164.862 1229.11 163.41C1229.11 161.958 1229.51 160.788 1230.32 159.9C1231.13 159 1232.14 158.55 1233.34 158.55C1234.14 158.55 1234.87 158.79 1235.52 159.27C1235.79 159.498 1236.03 159.738 1236.22 159.99H1236.31V158.82H1238.83V168H1236.31V166.83H1236.22C1236.03 167.082 1235.79 167.322 1235.52 167.55C1234.87 168.03 1234.14 168.27 1233.34 168.27C1232.14 168.27 1231.13 167.826 1230.32 166.938ZM1232.35 161.43C1231.93 161.91 1231.72 162.57 1231.72 163.41C1231.72 164.25 1231.93 164.91 1232.35 165.39C1232.77 165.87 1233.31 166.11 1233.97 166.11C1234.67 166.11 1235.23 165.876 1235.66 165.408C1236.09 164.928 1236.31 164.262 1236.31 163.41C1236.31 162.558 1236.09 161.898 1235.66 161.43C1235.23 160.95 1234.67 160.71 1233.97 160.71C1233.31 160.71 1232.77 160.95 1232.35 161.43ZM1078.35 191V181.82H1081.77L1083.93 186.77H1084.2L1086.36 181.82H1089.78V191H1087.26V186.41L1087.35 184.79H1087.26L1085.28 189.29H1082.85L1080.87 184.79H1080.78L1080.87 186.41V191H1078.35ZM1092.82 189.866C1091.88 188.918 1091.4 187.766 1091.4 186.41C1091.4 185.054 1091.88 183.908 1092.82 182.972C1093.78 182.024 1094.96 181.55 1096.35 181.55C1097.77 181.55 1098.93 182.018 1099.84 182.954C1100.76 183.89 1101.21 185.042 1101.21 186.41V186.95H1094.01C1094.11 187.55 1094.38 188.06 1094.82 188.48C1095.27 188.9 1095.78 189.11 1096.35 189.11C1096.99 189.11 1097.53 188.93 1097.99 188.57C1098.17 188.414 1098.31 188.234 1098.42 188.03H1101.12C1100.92 188.642 1100.62 189.182 1100.22 189.65C1099.26 190.73 1097.97 191.27 1096.35 191.27C1094.96 191.27 1093.78 190.802 1092.82 189.866ZM1094.1 185.42H1098.51C1098.42 184.94 1098.17 184.538 1097.77 184.214C1097.39 183.878 1096.92 183.71 1096.35 183.71C1095.79 183.71 1095.31 183.872 1094.91 184.196C1094.52 184.52 1094.25 184.928 1094.1 185.42ZM1102.02 183.98V181.82H1110.66V183.98H1107.6V191H1105.08V183.98H1102.02ZM1112.82 189.866C1111.86 188.918 1111.38 187.766 1111.38 186.41C1111.38 185.054 1111.86 183.908 1112.82 182.972C1113.78 182.024 1114.98 181.55 1116.42 181.55C1117.85 181.55 1119.04 182.024 1120 182.972C1120.97 183.908 1121.46 185.054 1121.46 186.41C1121.46 187.766 1120.97 188.918 1120 189.866C1119.04 190.802 1117.85 191.27 1116.42 191.27C1114.98 191.27 1113.78 190.802 1112.82 189.866ZM1114.69 184.466C1114.22 184.97 1113.99 185.618 1113.99 186.41C1113.99 187.202 1114.22 187.85 1114.69 188.354C1115.16 188.858 1115.74 189.11 1116.42 189.11C1117.1 189.11 1117.68 188.858 1118.15 188.354C1118.62 187.85 1118.85 187.202 1118.85 186.41C1118.85 185.618 1118.62 184.97 1118.15 184.466C1117.68 183.962 1117.1 183.71 1116.42 183.71C1115.74 183.71 1115.16 183.962 1114.69 184.466ZM1122.19 192.89V188.84H1123.18L1125.07 181.82H1129.93L1131.82 188.84H1132.81V192.89H1130.47V191H1124.53V192.89H1122.19ZM1125.7 188.84H1129.3L1127.95 183.98H1127.05L1125.7 188.84ZM1134.96 189.866C1134 188.918 1133.52 187.766 1133.52 186.41C1133.52 185.054 1134 183.908 1134.96 182.972C1135.92 182.024 1137.12 181.55 1138.56 181.55C1139.99 181.55 1141.18 182.024 1142.14 182.972C1143.11 183.908 1143.6 185.054 1143.6 186.41C1143.6 187.766 1143.11 188.918 1142.14 189.866C1141.18 190.802 1139.99 191.27 1138.56 191.27C1137.12 191.27 1135.92 190.802 1134.96 189.866ZM1136.83 184.466C1136.36 184.97 1136.13 185.618 1136.13 186.41C1136.13 187.202 1136.36 187.85 1136.83 188.354C1137.3 188.858 1137.88 189.11 1138.56 189.11C1139.24 189.11 1139.82 188.858 1140.29 188.354C1140.76 187.85 1140.99 187.202 1140.99 186.41C1140.99 185.618 1140.76 184.97 1140.29 184.466C1139.82 183.962 1139.24 183.71 1138.56 183.71C1137.88 183.71 1137.3 183.962 1136.83 184.466ZM1145.23 191V181.82H1148.65L1150.81 186.77H1151.08L1153.24 181.82H1156.66V191H1154.14V186.41L1154.23 184.79H1154.14L1152.16 189.29H1149.73L1147.75 184.79H1147.66L1147.75 186.41V191H1145.23ZM1164.22 191V178.4H1166.92V183.35H1168.72L1172.14 178.4H1175.2L1171.06 184.43L1175.47 191H1172.32L1168.81 185.87H1166.92V191H1164.22ZM1176.76 189.938C1175.95 189.038 1175.55 187.862 1175.55 186.41C1175.55 184.958 1175.95 183.788 1176.76 182.9C1177.57 182 1178.58 181.55 1179.78 181.55C1180.58 181.55 1181.31 181.79 1181.96 182.27C1182.23 182.498 1182.47 182.738 1182.66 182.99H1182.75V181.82H1185.27V191H1182.75V189.83H1182.66C1182.47 190.082 1182.23 190.322 1181.96 190.55C1181.31 191.03 1180.58 191.27 1179.78 191.27C1178.58 191.27 1177.57 190.826 1176.76 189.938ZM1178.79 184.43C1178.37 184.91 1178.16 185.57 1178.16 186.41C1178.16 187.25 1178.37 187.91 1178.79 188.39C1179.21 188.87 1179.75 189.11 1180.41 189.11C1181.11 189.11 1181.67 188.876 1182.1 188.408C1182.53 187.928 1182.75 187.262 1182.75 186.41C1182.75 185.558 1182.53 184.898 1182.1 184.43C1181.67 183.95 1181.11 183.71 1180.41 183.71C1179.75 183.71 1179.21 183.95 1178.79 184.43ZM1186.44 191L1188.87 181.82H1193.73L1196.16 191H1193.64L1191.75 183.98H1190.85L1188.96 191H1186.44ZM1196.34 191L1198.77 181.82H1203.63L1206.06 191H1203.54L1201.65 183.98H1200.75L1198.86 191H1196.34ZM1207.99 189.938C1207.18 189.038 1206.78 187.862 1206.78 186.41C1206.78 184.958 1207.18 183.788 1207.99 182.9C1208.8 182 1209.81 181.55 1211.01 181.55C1211.82 181.55 1212.54 181.79 1213.19 182.27C1213.47 182.498 1213.7 182.738 1213.89 182.99H1213.98V181.82H1216.5V191H1213.98V189.83H1213.89C1213.7 190.082 1213.47 190.322 1213.19 190.55C1212.54 191.03 1211.82 191.27 1211.01 191.27C1209.81 191.27 1208.8 190.826 1207.99 189.938ZM1210.02 184.43C1209.6 184.91 1209.39 185.57 1209.39 186.41C1209.39 187.25 1209.6 187.91 1210.02 188.39C1210.44 188.87 1210.98 189.11 1211.64 189.11C1212.34 189.11 1212.9 188.876 1213.33 188.408C1213.77 187.928 1213.98 187.262 1213.98 186.41C1213.98 185.558 1213.77 184.898 1213.33 184.43C1212.9 183.95 1212.34 183.71 1211.64 183.71C1210.98 183.71 1210.44 183.95 1210.02 184.43ZM1218.66 191V181.82H1221.18V185.24H1225.05V181.82H1227.57V191H1225.05V187.4H1221.18V191H1218.66ZM1230.5 189.938C1229.69 189.038 1229.29 187.862 1229.29 186.41C1229.29 184.958 1229.69 183.788 1230.5 182.9C1231.31 182 1232.32 181.55 1233.52 181.55C1234.32 181.55 1235.05 181.79 1235.7 182.27C1235.97 182.498 1236.21 182.738 1236.4 182.99H1236.49V181.82H1239.01V191H1236.49V189.83H1236.4C1236.21 190.082 1235.97 190.322 1235.7 190.55C1235.05 191.03 1234.32 191.27 1233.52 191.27C1232.32 191.27 1231.31 190.826 1230.5 189.938ZM1232.53 184.43C1232.11 184.91 1231.9 185.57 1231.9 186.41C1231.9 187.25 1232.11 187.91 1232.53 188.39C1232.95 188.87 1233.49 189.11 1234.15 189.11C1234.85 189.11 1235.41 188.876 1235.84 188.408C1236.27 187.928 1236.49 187.262 1236.49 186.41C1236.49 185.558 1236.27 184.898 1235.84 184.43C1235.41 183.95 1234.85 183.71 1234.15 183.71C1233.49 183.71 1232.95 183.95 1232.53 184.43Z" fill="#404040"/>
<path d="M284.378 113.3C282.925 111.887 282.198 110.12 282.198 108C282.198 105.88 282.925 104.12 284.378 102.72C285.845 101.307 287.718 100.6 289.998 100.6C292.518 100.6 294.498 101.52 295.938 103.36C296.578 104.2 297.032 105.113 297.298 106.1H293.498C293.298 105.687 293.052 105.34 292.758 105.06C292.052 104.353 291.132 104 289.998 104C288.838 104 287.898 104.367 287.178 105.1C286.458 105.833 286.098 106.8 286.098 108C286.098 109.2 286.458 110.167 287.178 110.9C287.898 111.633 288.838 112 289.998 112C291.252 112 292.225 111.6 292.918 110.8C293.238 110.44 293.465 110.04 293.598 109.6H297.398C297.105 110.68 296.632 111.647 295.978 112.5C294.552 114.433 292.558 115.4 289.998 115.4C287.718 115.4 285.845 114.7 284.378 113.3ZM299.502 115V101H312.302V115H308.602V104.4H303.202V115H299.502ZM315.093 115V101H318.793V115H315.093ZM321.602 115V101H329.102C330.542 101 331.668 101.333 332.482 102C333.295 102.667 333.702 103.5 333.702 104.5C333.702 105.5 333.335 106.287 332.602 106.86C332.255 107.1 331.888 107.28 331.502 107.4V107.5C332.008 107.647 332.455 107.853 332.842 108.12C333.748 108.747 334.202 109.673 334.202 110.9C334.202 112.1 333.742 113.087 332.822 113.86C331.902 114.62 330.595 115 328.902 115H321.602ZM325.302 106.4H328.302C328.795 106.4 329.168 106.293 329.422 106.08C329.675 105.853 329.802 105.56 329.802 105.2C329.802 104.84 329.675 104.553 329.422 104.34C329.168 104.113 328.795 104 328.302 104H325.302V106.4ZM325.302 112H328.502C329.128 112 329.602 111.873 329.922 111.62C330.242 111.367 330.402 111.027 330.402 110.6C330.402 110.173 330.242 109.833 329.922 109.58C329.602 109.327 329.128 109.2 328.502 109.2H325.302V112ZM336.411 115V101H347.811V104.2H340.111V106H343.711C345.324 106 346.591 106.42 347.511 107.26C348.444 108.087 348.911 109.167 348.911 110.5C348.911 111.833 348.444 112.92 347.511 113.76C346.591 114.587 345.324 115 343.711 115H336.411ZM340.111 111.8H343.511C344.004 111.8 344.391 111.673 344.671 111.42C344.964 111.167 345.111 110.86 345.111 110.5C345.111 110.14 344.964 109.833 344.671 109.58C344.391 109.327 344.004 109.2 343.511 109.2H340.111V111.8ZM351.005 115V101H361.805V104.4H354.705V106.5H360.405V109.5H354.705V111.6H361.805V115H351.005ZM365.676 113.3C364.223 111.887 363.496 110.12 363.496 108C363.496 105.88 364.223 104.12 365.676 102.72C367.143 101.307 369.016 100.6 371.296 100.6C373.816 100.6 375.796 101.52 377.236 103.36C377.876 104.2 378.329 105.113 378.596 106.1H374.796C374.596 105.687 374.349 105.34 374.056 105.06C373.349 104.353 372.429 104 371.296 104C370.136 104 369.196 104.367 368.476 105.1C367.756 105.833 367.396 106.8 367.396 108C367.396 109.2 367.756 110.167 368.476 110.9C369.196 111.633 370.136 112 371.296 112C372.549 112 373.523 111.6 374.216 110.8C374.536 110.44 374.763 110.04 374.896 109.6H378.696C378.403 110.68 377.929 111.647 377.276 112.5C375.849 114.433 373.856 115.4 371.296 115.4C369.016 115.4 367.143 114.7 365.676 113.3ZM380.8 115V101H384.5V115H380.8ZM386.109 117.4V111.6H387.709L390.509 101H397.409L400.209 111.6H401.809V117.4H398.309V115H389.609V117.4H386.109ZM391.209 111.6H396.709L394.809 104.4H393.109L391.209 111.6ZM402.107 115L405.907 101H412.707L416.507 115H412.707L412.007 112.2H406.607L405.907 115H402.107ZM407.407 109H411.207L410.007 104.4H408.607L407.407 109Z" fill="#5D74F2"/>
<path d="M328.36 142.03H330.88C330.952 142.27 331.066 142.468 331.222 142.624C331.582 143.008 332.098 143.2 332.77 143.2C333.286 143.2 333.67 143.11 333.922 142.93C334.174 142.75 334.3 142.51 334.3 142.21C334.3 141.874 334.186 141.628 333.958 141.472C333.73 141.304 333.334 141.22 332.77 141.22H331.6V139.42H332.68C333.64 139.42 334.12 139.09 334.12 138.43C334.12 138.178 333.988 137.968 333.724 137.8C333.472 137.62 333.094 137.53 332.59 137.53C332.002 137.53 331.576 137.698 331.312 138.034C331.18 138.19 331.096 138.352 331.06 138.52H328.54C328.684 137.98 328.93 137.488 329.278 137.044C330.082 136.048 331.246 135.55 332.77 135.55C334.006 135.55 334.96 135.802 335.632 136.306C336.304 136.81 336.64 137.428 336.64 138.16C336.64 138.844 336.37 139.36 335.83 139.708C335.614 139.864 335.344 139.978 335.02 140.05V140.14C335.368 140.236 335.668 140.374 335.92 140.554C336.52 141.01 336.82 141.622 336.82 142.39C336.82 143.218 336.484 143.908 335.812 144.46C335.14 145 334.126 145.27 332.77 145.27C331.126 145.27 329.896 144.73 329.08 143.65C328.732 143.17 328.492 142.63 328.36 142.03ZM343.926 145V132.4H346.626V137.35H352.206V132.4H354.906V145H352.206V139.87H346.626V145H343.926ZM357.431 145V132.4H363.371C364.871 132.4 366.071 132.808 366.971 133.624C367.871 134.428 368.321 135.43 368.321 136.63C368.321 137.566 368.057 138.364 367.529 139.024C367.001 139.684 366.305 140.176 365.441 140.5L368.321 145H365.261L362.651 140.86H360.131V145H357.431ZM360.131 138.34H363.281C364.025 138.34 364.583 138.19 364.955 137.89C365.339 137.578 365.531 137.158 365.531 136.63C365.531 136.102 365.339 135.688 364.955 135.388C364.583 135.076 364.025 134.92 363.281 134.92H360.131V138.34Z" fill="#404040"/>
<path d="M836.625 110.5H840.425C840.518 110.82 840.691 111.107 840.945 111.36C841.505 111.92 842.331 112.2 843.425 112.2C844.105 112.2 844.625 112.06 844.985 111.78C845.345 111.487 845.525 111.127 845.525 110.7C845.525 109.767 844.731 109.3 843.145 109.3H841.305V106.3H843.145C844.465 106.3 845.125 105.9 845.125 105.1C845.125 104.727 844.958 104.42 844.625 104.18C844.305 103.927 843.838 103.8 843.225 103.8C842.385 103.8 841.731 104.033 841.265 104.5C841.051 104.713 840.905 104.947 840.825 105.2H837.025C837.225 104.333 837.591 103.567 838.125 102.9C839.365 101.367 841.131 100.6 843.425 100.6C845.185 100.6 846.558 100.987 847.545 101.76C848.531 102.533 849.025 103.48 849.025 104.6C849.025 105.6 848.658 106.413 847.925 107.04C847.591 107.293 847.225 107.48 846.825 107.6V107.8C847.305 107.92 847.738 108.113 848.125 108.38C848.991 109.007 849.425 109.88 849.425 111C849.425 112.267 848.891 113.32 847.825 114.16C846.758 114.987 845.225 115.4 843.225 115.4C840.718 115.4 838.865 114.587 837.665 112.96C837.131 112.253 836.785 111.433 836.625 110.5ZM850.331 115L854.131 101H860.931L864.731 115H860.931L860.231 112.2H854.831L854.131 115H850.331ZM855.631 109H859.431L858.231 104.4H856.831L855.631 109ZM866.225 115V101H879.025V115H875.325V104.4H869.925V115H866.225ZM881.816 115V101H888.616C890.336 101 891.729 101.493 892.796 102.48C893.876 103.453 894.416 104.66 894.416 106.1C894.416 107.54 893.876 108.753 892.796 109.74C891.729 110.713 890.336 111.2 888.616 111.2H885.516V115H881.816ZM885.516 107.8H888.516C889.209 107.8 889.729 107.647 890.076 107.34C890.436 107.033 890.616 106.62 890.616 106.1C890.616 105.58 890.436 105.167 890.076 104.86C889.729 104.553 889.209 104.4 888.516 104.4H885.516V107.8ZM898.108 113.24C896.642 111.787 895.908 110.04 895.908 108C895.908 105.96 896.642 104.22 898.108 102.78C899.588 101.327 901.455 100.6 903.708 100.6C905.962 100.6 907.822 101.327 909.288 102.78C910.768 104.22 911.508 105.96 911.508 108C911.508 110.04 910.768 111.787 909.288 113.24C907.822 114.68 905.962 115.4 903.708 115.4C901.455 115.4 899.588 114.68 898.108 113.24ZM900.888 105.1C900.168 105.833 899.808 106.8 899.808 108C899.808 109.2 900.168 110.167 900.888 110.9C901.608 111.633 902.548 112 903.708 112C904.868 112 905.808 111.633 906.528 110.9C907.248 110.167 907.608 109.2 907.608 108C907.608 106.8 907.248 105.833 906.528 105.1C905.808 104.367 904.868 104 903.708 104C902.548 104 901.608 104.367 900.888 105.1ZM913.7 115V101H917.4V111.6H921V101H924.7V111.6H928.28V101H932V115H913.7ZM934.799 115V101H945.599V104.4H938.499V106.5H944.199V109.5H938.499V111.6H945.599V115H934.799ZM947.889 115V101H951.589V106.2H956.989V101H960.689V115H956.989V109.6H951.589V115H947.889ZM963.48 115V101H967.18V106.2H972.58V101H976.28V115H972.58V109.6H967.18V115H963.48ZM978.671 105.9C978.671 104.513 979.184 103.353 980.211 102.42C981.251 101.473 982.604 101 984.271 101H991.271V115H987.571V110.8H984.971L982.571 115H978.571L981.471 110C979.604 109.067 978.671 107.7 978.671 105.9ZM982.991 104.84C982.644 105.133 982.471 105.487 982.471 105.9C982.471 106.313 982.644 106.667 982.991 106.96C983.337 107.253 983.797 107.4 984.371 107.4H987.571V104.4H984.371C983.797 104.4 983.337 104.547 982.991 104.84Z" fill="#5D74F2"/>
<path d="M868.453 145V135.82H873.493C874.441 135.82 875.173 136.03 875.689 136.45C876.205 136.87 876.463 137.41 876.463 138.07C876.463 138.766 876.205 139.312 875.689 139.708C875.449 139.888 875.197 140.002 874.933 140.05V140.14C875.281 140.212 875.611 140.338 875.923 140.518C876.583 140.986 876.913 141.61 876.913 142.39C876.913 143.158 876.613 143.788 876.013 144.28C875.413 144.76 874.573 145 873.493 145H868.453ZM870.973 139.33H873.133C873.409 139.33 873.625 139.252 873.781 139.096C873.949 138.94 874.033 138.748 874.033 138.52C874.033 138.292 873.949 138.1 873.781 137.944C873.625 137.788 873.409 137.71 873.133 137.71H870.973V139.33ZM870.973 143.11H873.313C873.625 143.11 873.883 143.014 874.087 142.822C874.291 142.63 874.393 142.396 874.393 142.12C874.393 141.844 874.291 141.61 874.087 141.418C873.883 141.226 873.625 141.13 873.313 141.13H870.973V143.11ZM883.842 145V135.82H886.362V139.24H887.442L889.872 135.82H892.662L889.692 140.05L892.932 145H890.052L887.712 141.4H886.362V145H883.842ZM894.555 143.866C893.595 142.918 893.115 141.766 893.115 140.41C893.115 139.054 893.595 137.908 894.555 136.972C895.515 136.024 896.715 135.55 898.155 135.55C899.583 135.55 900.777 136.024 901.737 136.972C902.709 137.908 903.195 139.054 903.195 140.41C903.195 141.766 902.709 142.918 901.737 143.866C900.777 144.802 899.583 145.27 898.155 145.27C896.715 145.27 895.515 144.802 894.555 143.866ZM896.427 138.466C895.959 138.97 895.725 139.618 895.725 140.41C895.725 141.202 895.959 141.85 896.427 142.354C896.895 142.858 897.471 143.11 898.155 143.11C898.839 143.11 899.415 142.858 899.883 142.354C900.351 141.85 900.585 141.202 900.585 140.41C900.585 139.618 900.351 138.97 899.883 138.466C899.415 137.962 898.839 137.71 898.155 137.71C897.471 137.71 896.895 137.962 896.427 138.466ZM904.821 145V135.82H908.241L910.401 140.77H910.671L912.831 135.82H916.251V145H913.731V140.41L913.821 138.79H913.731L911.751 143.29H909.321L907.341 138.79H907.251L907.341 140.41V145H904.821ZM919.169 143.938C918.365 143.038 917.963 141.862 917.963 140.41C917.963 138.958 918.365 137.788 919.169 136.9C919.985 136 920.993 135.55 922.193 135.55C922.997 135.55 923.723 135.79 924.371 136.27C924.647 136.498 924.881 136.738 925.073 136.99H925.163V135.82H927.683V145H925.163V143.83H925.073C924.881 144.082 924.647 144.322 924.371 144.55C923.723 145.03 922.997 145.27 922.193 145.27C920.993 145.27 919.985 144.826 919.169 143.938ZM921.203 138.43C920.783 138.91 920.573 139.57 920.573 140.41C920.573 141.25 920.783 141.91 921.203 142.39C921.623 142.87 922.163 143.11 922.823 143.11C923.519 143.11 924.083 142.876 924.515 142.408C924.947 141.928 925.163 141.262 925.163 140.41C925.163 139.558 924.947 138.898 924.515 138.43C924.083 137.95 923.519 137.71 922.823 137.71C922.163 137.71 921.623 137.95 921.203 138.43ZM929.843 145V135.82H932.363V139.24H936.233V135.82H938.753V145H936.233V141.4H932.363V145H929.843ZM940.022 146.89V142.84H941.012L942.902 135.82H947.762L949.652 142.84H950.642V146.89H948.302V145H942.362V146.89H940.022ZM943.532 142.84H947.132L945.782 137.98H944.882L943.532 142.84ZM950.821 135.82H953.431L955.231 142.84H955.951L957.931 135.82H960.541L956.851 148.42H954.241L955.231 145H953.251L950.821 135.82Z" fill="#404040"/>
<path d="M13 58V24L35.7808 1H1205.5L1227 24V60" stroke="#5D74F2" stroke-width="2"/>
<path d="M349 2V57" stroke="#5D74F2" stroke-width="2"/>
<g filter="url(#filter0_d_1325_28)">
<path d="M343.096 72C342.729 72 342.391 71.799 342.216 71.4763L336.258 60.4763C336.097 60.1792 336.097 59.8208 336.258 59.5237L342.216 48.5237C342.391 48.201 342.729 48 343.096 48H354.904C355.271 48 355.609 48.201 355.784 48.5237L361.742 59.5237C361.903 59.8208 361.903 60.1792 361.742 60.4763L355.784 71.4763C355.609 71.799 355.271 72 354.904 72H343.096Z" fill="#5D74F2"/>
</g>
<path d="M626 2V57" stroke="#5D74F2" stroke-width="2"/>
<g filter="url(#filter1_d_1325_28)">
<path d="M620.096 72C619.729 72 619.391 71.799 619.216 71.4763L613.258 60.4763C613.097 60.1792 613.097 59.8208 613.258 59.5237L619.216 48.5237C619.391 48.201 619.729 48 620.096 48H631.904C632.271 48 632.609 48.201 632.784 48.5237L638.742 59.5237C638.903 59.8208 638.903 60.1792 638.742 60.4763L632.784 71.4763C632.609 71.799 632.271 72 631.904 72H620.096Z" fill="#5D74F2"/>
</g>
<path d="M914 2V57" stroke="#5D74F2" stroke-width="2"/>
<g filter="url(#filter2_d_1325_28)">
<path d="M908.096 72C907.729 72 907.391 71.799 907.216 71.4763L901.258 60.4763C901.097 60.1792 901.097 59.8208 901.258 59.5237L907.216 48.5237C907.391 48.201 907.729 48 908.096 48H919.904C920.271 48 920.609 48.201 920.784 48.5237L926.742 59.5237C926.903 59.8208 926.903 60.1792 926.742 60.4763L920.784 71.4763C920.609 71.799 920.271 72 919.904 72H908.096Z" fill="#5D74F2"/>
</g>
<g filter="url(#filter3_d_1325_28)">
<path d="M1220.1 72C1219.73 72 1219.39 71.799 1219.22 71.4763L1213.26 60.4763C1213.1 60.1792 1213.1 59.8208 1213.26 59.5237L1219.22 48.5237C1219.39 48.201 1219.73 48 1220.1 48H1231.9C1232.27 48 1232.61 48.201 1232.78 48.5237L1238.74 59.5237C1238.9 59.8208 1238.9 60.1792 1238.74 60.4763L1232.78 71.4763C1232.61 71.799 1232.27 72 1231.9 72H1220.1Z" fill="#5D74F2"/>
</g>
<g filter="url(#filter4_d_1325_28)">
<path d="M7.09561 72C6.72862 72 6.39111 71.799 6.21632 71.4763L0.257987 60.4763C0.097043 60.1792 0.0970427 59.8208 0.257987 59.5237L6.21632 48.5237C6.39111 48.201 6.72862 48 7.09561 48H18.9044C19.2714 48 19.6089 48.201 19.7837 48.5237L25.742 59.5237C25.903 59.8208 25.903 60.1792 25.742 60.4763L19.7837 71.4763C19.6089 71.799 19.2714 72 18.9044 72H7.09561Z" fill="#5D74F2"/>
</g>
<defs>
<filter id="filter0_d_1325_28" x="336.137" y="48" width="27.7256" height="26" filterUnits="userSpaceOnUse" color-interpolation-filters="sRGB">
<feFlood flood-opacity="0" result="BackgroundImageFix"/>
<feColorMatrix in="SourceAlpha" type="matrix" values="0 0 0 0 0 0 0 0 0 0 0 0 0 0 0 0 0 0 127 0" result="hardAlpha"/>
<feOffset dx="2" dy="2"/>
<feComposite in2="hardAlpha" operator="out"/>
<feColorMatrix type="matrix" values="0 0 0 0 0.25098 0 0 0 0 0.25098 0 0 0 0 0.25098 0 0 0 1 0"/>
<feBlend mode="normal" in2="BackgroundImageFix" result="effect1_dropShadow_1325_28"/>
<feBlend mode="normal" in="SourceGraphic" in2="effect1_dropShadow_1325_28" result="shape"/>
</filter>
<filter id="filter1_d_1325_28" x="613.137" y="48" width="27.7256" height="26" filterUnits="userSpaceOnUse" color-interpolation-filters="sRGB">
<feFlood flood-opacity="0" result="BackgroundImageFix"/>
<feColorMatrix in="SourceAlpha" type="matrix" values="0 0 0 0 0 0 0 0 0 0 0 0 0 0 0 0 0 0 127 0" result="hardAlpha"/>
<feOffset dx="2" dy="2"/>
<feComposite in2="hardAlpha" operator="out"/>
<feColorMatrix type="matrix" values="0 0 0 0 0.25098 0 0 0 0 0.25098 0 0 0 0 0.25098 0 0 0 1 0"/>
<feBlend mode="normal" in2="BackgroundImageFix" result="effect1_dropShadow_1325_28"/>
<feBlend mode="normal" in="SourceGraphic" in2="effect1_dropShadow_1325_28" result="shape"/>
</filter>
<filter id="filter2_d_1325_28" x="901.137" y="48" width="27.7256" height="26" filterUnits="userSpaceOnUse" color-interpolation-filters="sRGB">
<feFlood flood-opacity="0" result="BackgroundImageFix"/>
<feColorMatrix in="SourceAlpha" type="matrix" values="0 0 0 0 0 0 0 0 0 0 0 0 0 0 0 0 0 0 127 0" result="hardAlpha"/>
<feOffset dx="2" dy="2"/>
<feComposite in2="hardAlpha" operator="out"/>
<feColorMatrix type="matrix" values="0 0 0 0 0.25098 0 0 0 0 0.25098 0 0 0 0 0.25098 0 0 0 1 0"/>
<feBlend mode="normal" in2="BackgroundImageFix" result="effect1_dropShadow_1325_28"/>
<feBlend mode="normal" in="SourceGraphic" in2="effect1_dropShadow_1325_28" result="shape"/>
</filter>
<filter id="filter3_d_1325_28" x="1213.14" y="48" width="27.7256" height="26" filterUnits="userSpaceOnUse" color-interpolation-filters="sRGB">
<feFlood flood-opacity="0" result="BackgroundImageFix"/>
<feColorMatrix in="SourceAlpha" type="matrix" values="0 0 0 0 0 0 0 0 0 0 0 0 0 0 0 0 0 0 127 0" result="hardAlpha"/>
<feOffset dx="2" dy="2"/>
<feComposite in2="hardAlpha" operator="out"/>
<feColorMatrix type="matrix" values="0 0 0 0 0.25098 0 0 0 0 0.25098 0 0 0 0 0.25098 0 0 0 1 0"/>
<feBlend mode="normal" in2="BackgroundImageFix" result="effect1_dropShadow_1325_28"/>
<feBlend mode="normal" in="SourceGraphic" in2="effect1_dropShadow_1325_28" result="shape"/>
</filter>
<filter id="filter4_d_1325_28" x="0.137207" y="48" width="27.7256" height="26" filterUnits="userSpaceOnUse" color-interpolation-filters="sRGB">
<feFlood flood-opacity="0" result="BackgroundImageFix"/>
<feColorMatrix in="SourceAlpha" type="matrix" values="0 0 0 0 0 0 0 0 0 0 0 0 0 0 0 0 0 0 127 0" result="hardAlpha"/>
<feOffset dx="2" dy="2"/>
<feComposite in2="hardAlpha" operator="out"/>
<feColorMatrix type="matrix" values="0 0 0 0 0.25098 0 0 0 0 0.25098 0 0 0 0 0.25098 0 0 0 1 0"/>
<feBlend mode="normal" in2="BackgroundImageFix" result="effect1_dropShadow_1325_28"/>
<feBlend mode="normal" in="SourceGraphic" in2="effect1_dropShadow_1325_28" result="shape"/>
</filter>
</defs>
</svg>
