<svg width="256" height="507" viewBox="0 0 256 507" fill="none" xmlns="http://www.w3.org/2000/svg">
<path d="M26 352.404C26 352.771 25.799 353.109 25.4763 353.284L14.4763 359.242C14.1792 359.403 13.8208 359.403 13.5237 359.242L2.52372 353.284C2.20102 353.109 2 352.771 2 352.404V340.596C2 340.229 2.20102 339.891 2.52372 339.716L13.5237 333.758C13.8208 333.597 14.1792 333.597 14.4763 333.758L25.4763 339.716C25.799 339.891 26 340.229 26 340.596V352.404Z" fill="#404040"/>
<path d="M26 33.7671C26 34.1341 25.799 34.4716 25.4763 34.6464L14.4763 40.6047C14.1792 40.7657 13.8208 40.7657 13.5237 40.6047L2.52372 34.6464C2.20102 34.4716 2 34.1341 2 33.7671V21.9583C2 21.5913 2.20102 21.2538 2.52372 21.079L13.5237 15.1207C13.8208 14.9598 14.1792 14.9598 14.4763 15.1207L25.4763 21.079C25.799 21.2538 26 21.5913 26 21.9583V33.7671Z" fill="#404040"/>
<path d="M26 124.767C26 125.134 25.799 125.472 25.4763 125.646L14.4763 131.605C14.1792 131.766 13.8208 131.766 13.5237 131.605L2.52372 125.646C2.20102 125.472 2 125.134 2 124.767V112.958C2 112.591 2.20102 112.254 2.52372 112.079L13.5237 106.121C13.8208 105.96 14.1792 105.96 14.4763 106.121L25.4763 112.079C25.799 112.254 26 112.591 26 112.958V124.767Z" fill="#404040"/>
<path d="M26 466.767C26 467.134 25.799 467.472 25.4763 467.646L14.4763 473.605C14.1792 473.766 13.8208 473.766 13.5237 473.605L2.52372 467.646C2.20102 467.472 2 467.134 2 466.767V454.958C2 454.591 2.20102 454.254 2.52372 454.079L13.5237 448.121C13.8208 447.96 14.1792 447.96 14.4763 448.121L25.4763 454.079C25.799 454.254 26 454.591 26 454.958V466.767Z" fill="#404040"/>
<path d="M26 249.904C26 250.271 25.799 250.609 25.4763 250.784L14.4763 256.742C14.1792 256.903 13.8208 256.903 13.5237 256.742L2.52372 250.784C2.20102 250.609 2 250.271 2 249.904V238.096C2 237.729 2.20102 237.391 2.52372 237.216L13.5237 231.258C13.8208 231.097 14.1792 231.097 14.4763 231.258L25.4763 237.216C25.799 237.391 26 237.729 26 238.096V249.904Z" fill="#404040"/>
<path d="M12 23L12 458" stroke="#404040" stroke-width="2"/>
<path d="M24 31.4044C24 31.7714 23.799 32.1089 23.4763 32.2837L12.4763 38.242C12.1792 38.403 11.8208 38.403 11.5237 38.242L0.523717 32.2837C0.201023 32.1089 0 31.7714 0 31.4044L0 19.5956C0 19.2286 0.201023 18.8911 0.523717 18.7163L11.5237 12.758C11.8208 12.597 12.1792 12.597 12.4763 12.758L23.4763 18.7163C23.799 18.8911 24 19.2286 24 19.5956V31.4044Z" fill="#5D74F2"/>
<path d="M67.0149 17.28C65.5349 15.8533 64.7949 14.0933 64.7949 12C64.7949 9.90667 65.5349 8.15333 67.0149 6.74C68.5083 5.31333 70.4349 4.6 72.7949 4.6C75.4216 4.6 77.4883 5.56667 78.9949 7.5C79.6216 8.35333 80.0883 9.32 80.3949 10.4H75.3949C75.2616 10.0933 75.0749 9.82667 74.8349 9.6C74.3016 9.06667 73.6216 8.8 72.7949 8.8C71.9816 8.8 71.3083 9.08667 70.7749 9.66C70.2549 10.2333 69.9949 11.0133 69.9949 12C69.9949 12.9867 70.2549 13.7667 70.7749 14.34C71.3083 14.9133 71.9816 15.2 72.7949 15.2C73.7149 15.2 74.4416 14.8667 74.9749 14.2C75.2283 13.88 75.4016 13.5467 75.4949 13.2H80.4949C80.1883 14.3733 79.7149 15.4067 79.0749 16.3C77.5683 18.3667 75.4749 19.4 72.7949 19.4C70.4349 19.4 68.5083 18.6933 67.0149 17.28ZM82.4895 19V5H96.4895V19H91.4895V9.4H87.4895V19H82.4895ZM99.0957 19V5H104.096V19H99.0957ZM105.298 19L109.098 5H116.998L120.698 19H115.698L113.398 9.4H112.498L110.198 19H105.298ZM121.898 19V5H126.898V9.6H127.898L130.498 5H136.098L132.098 11.5L136.498 19H130.898L128.098 14.1H126.898V19H121.898ZM136.499 5H141.699L143.899 10.7H144.699L146.699 5H151.799L146.599 19H141.499L142.999 14.9H140.399L136.499 5ZM153.001 19V5H161.201C162.735 5 163.901 5.31333 164.701 5.94C165.501 6.56667 165.901 7.38667 165.901 8.4C165.901 9.30667 165.515 10.0667 164.741 10.68C164.368 10.96 163.988 11.1667 163.601 11.3V11.5C164.121 11.6467 164.588 11.8533 165.001 12.12C165.935 12.76 166.401 13.6867 166.401 14.9C166.401 16.1133 165.928 17.1 164.981 17.86C164.035 18.62 162.675 19 160.901 19H153.001ZM158.001 10.3H159.601C160.001 10.3 160.281 10.2333 160.441 10.1C160.615 9.95333 160.701 9.72 160.701 9.4C160.701 9.08 160.615 8.85333 160.441 8.72C160.281 8.57333 160.001 8.5 159.601 8.5H158.001V10.3ZM158.001 15.5H160.001C160.868 15.5 161.301 15.1333 161.301 14.4C161.301 13.6667 160.868 13.3 160.001 13.3H158.001V15.5ZM167.094 19L170.994 5H178.894L182.694 19H177.694L176.994 16.4H172.694L171.994 19H167.094ZM173.494 12.9H176.194L175.294 9.2H174.494L173.494 12.9ZM183.889 19V5H188.889V9.8H192.889V5H197.889V19H192.889V14.2H188.889V19H183.889ZM200.496 19V5H205.496V9.8H209.496V5H214.496V19H209.496V14.2H205.496V19H200.496ZM216.802 10.2C216.802 8.66667 217.322 7.42 218.362 6.46C219.415 5.48667 220.829 5 222.602 5H230.402V19H225.402V15.2H223.702L221.702 19H216.602L219.202 14.2C218.749 13.9867 218.349 13.6933 218.002 13.32C217.202 12.52 216.802 11.48 216.802 10.2ZM221.902 10.2C221.902 10.56 222.015 10.8533 222.242 11.08C222.482 11.2933 222.802 11.4 223.202 11.4H225.402V9H223.202C222.815 9 222.502 9.12 222.262 9.36C222.022 9.6 221.902 9.88 221.902 10.2Z" fill="#5D74F2"/>
<path d="M64.36 41.76H68.5C68.548 41.868 68.626 41.988 68.734 42.12C68.926 42.36 69.208 42.48 69.58 42.48C70.18 42.48 70.48 42.264 70.48 41.832C70.48 41.424 70.144 41.22 69.472 41.22H68.248V39.06H69.4C69.94 39.06 70.21 38.886 70.21 38.538C70.21 38.166 69.97 37.98 69.49 37.98C69.238 37.98 69.022 38.07 68.842 38.25C68.77 38.334 68.716 38.424 68.68 38.52H64.54C64.696 37.896 64.99 37.344 65.422 36.864C66.418 35.748 67.864 35.19 69.76 35.19C71.272 35.19 72.412 35.454 73.18 35.982C73.96 36.51 74.35 37.146 74.35 37.89C74.35 38.598 74.062 39.144 73.486 39.528C73.21 39.708 72.928 39.822 72.64 39.87V40.05C72.988 40.122 73.318 40.248 73.63 40.428C74.29 40.896 74.62 41.52 74.62 42.3C74.62 43.056 74.218 43.74 73.414 44.352C72.622 44.964 71.374 45.27 69.67 45.27C67.702 45.27 66.232 44.688 65.26 43.524C64.816 42.984 64.516 42.396 64.36 41.76ZM81.2891 48.42V35.46H85.4291V36.72H85.6091C85.7651 36.432 85.9811 36.18 86.2571 35.964C86.8691 35.448 87.5831 35.19 88.3991 35.19C89.5271 35.19 90.4691 35.64 91.2251 36.54C91.9811 37.44 92.3591 38.67 92.3591 40.23C92.3591 41.79 91.9811 43.02 91.2251 43.92C90.4691 44.82 89.5271 45.27 88.3991 45.27C87.5711 45.27 86.8571 45.018 86.2571 44.514C85.9811 44.298 85.7651 44.04 85.6091 43.74H85.4291V48.42H81.2891ZM85.8071 38.988C85.5551 39.3 85.4291 39.714 85.4291 40.23C85.4291 40.746 85.5551 41.16 85.8071 41.472C86.0711 41.784 86.3891 41.94 86.7611 41.94C87.1451 41.94 87.4691 41.79 87.7331 41.49C87.9971 41.178 88.1291 40.758 88.1291 40.23C88.1291 39.702 87.9971 39.288 87.7331 38.988C87.4691 38.676 87.1451 38.52 86.7611 38.52C86.3891 38.52 86.0711 38.676 85.8071 38.988ZM95.0849 43.812C94.0529 42.84 93.5369 41.646 93.5369 40.23C93.5369 38.814 94.0529 37.62 95.0849 36.648C96.1169 35.676 97.4309 35.19 99.0269 35.19C100.623 35.19 101.937 35.676 102.969 36.648C104.001 37.62 104.517 38.814 104.517 40.23V40.5H97.7669C97.7669 41.76 98.1869 42.39 99.0269 42.39C99.3749 42.39 99.6809 42.258 99.9449 41.994C100.065 41.85 100.149 41.712 100.197 41.58H104.427C104.211 42.276 103.869 42.894 103.401 43.434C102.321 44.658 100.863 45.27 99.0269 45.27C97.4309 45.27 96.1169 44.784 95.0849 43.812ZM97.8569 39.33H100.197C100.185 39.138 100.125 38.928 100.017 38.7C99.7889 38.28 99.4589 38.07 99.0269 38.07C98.5949 38.07 98.2649 38.28 98.0369 38.7C97.9289 38.928 97.8689 39.138 97.8569 39.33ZM105.96 45V35.46H110.1V38.61H110.73L112.17 35.46H116.4L114.15 40.05L116.67 45H112.44L111 42.03H110.1V45H105.96ZM117.653 48.42V35.46H121.793V36.72H121.973C122.129 36.432 122.345 36.18 122.621 35.964C123.233 35.448 123.947 35.19 124.763 35.19C125.891 35.19 126.833 35.64 127.589 36.54C128.345 37.44 128.723 38.67 128.723 40.23C128.723 41.79 128.345 43.02 127.589 43.92C126.833 44.82 125.891 45.27 124.763 45.27C123.935 45.27 123.221 45.018 122.621 44.514C122.345 44.298 122.129 44.04 121.973 43.74H121.793V48.42H117.653ZM122.171 38.988C121.919 39.3 121.793 39.714 121.793 40.23C121.793 40.746 121.919 41.16 122.171 41.472C122.435 41.784 122.753 41.94 123.125 41.94C123.509 41.94 123.833 41.79 124.097 41.49C124.361 41.178 124.493 40.758 124.493 40.23C124.493 39.702 124.361 39.288 124.097 38.988C123.833 38.676 123.509 38.52 123.125 38.52C122.753 38.52 122.435 38.676 122.171 38.988ZM129.367 35.46H133.507L134.857 41.58H135.127L136.477 35.46H140.707L137.305 48.42H133.147L134.137 45H131.707L129.367 35.46ZM140.971 38.88V35.46H151.231V38.88H148.171V45H144.031V38.88H140.971ZM153.501 43.812C152.469 42.84 151.953 41.646 151.953 40.23C151.953 38.814 152.469 37.62 153.501 36.648C154.533 35.676 155.847 35.19 157.443 35.19C159.039 35.19 160.353 35.676 161.385 36.648C162.417 37.62 162.933 38.814 162.933 40.23V40.5H156.183C156.183 41.76 156.603 42.39 157.443 42.39C157.791 42.39 158.097 42.258 158.361 41.994C158.481 41.85 158.565 41.712 158.613 41.58H162.843C162.627 42.276 162.285 42.894 161.817 43.434C160.737 44.658 159.279 45.27 157.443 45.27C155.847 45.27 154.533 44.784 153.501 43.812ZM156.273 39.33H158.613C158.601 39.138 158.541 38.928 158.433 38.7C158.205 38.28 157.875 38.07 157.443 38.07C157.011 38.07 156.681 38.28 156.453 38.7C156.345 38.928 156.285 39.138 156.273 39.33ZM164.375 48.42V35.46H168.515V36.72H168.695C168.851 36.432 169.067 36.18 169.343 35.964C169.955 35.448 170.669 35.19 171.485 35.19C172.613 35.19 173.555 35.64 174.311 36.54C175.067 37.44 175.445 38.67 175.445 40.23C175.445 41.79 175.067 43.02 174.311 43.92C173.555 44.82 172.613 45.27 171.485 45.27C170.657 45.27 169.943 45.018 169.343 44.514C169.067 44.298 168.851 44.04 168.695 43.74H168.515V48.42H164.375ZM168.893 38.988C168.641 39.3 168.515 39.714 168.515 40.23C168.515 40.746 168.641 41.16 168.893 41.472C169.157 41.784 169.475 41.94 169.847 41.94C170.231 41.94 170.555 41.79 170.819 41.49C171.083 41.178 171.215 40.758 171.215 40.23C171.215 39.702 171.083 39.288 170.819 38.988C170.555 38.676 170.231 38.52 169.847 38.52C169.475 38.52 169.157 38.676 168.893 38.988ZM178.189 43.83C177.145 42.858 176.623 41.658 176.623 40.23C176.623 38.802 177.145 37.608 178.189 36.648C179.245 35.676 180.613 35.19 182.293 35.19C183.961 35.19 185.323 35.676 186.379 36.648C187.435 37.608 187.963 38.802 187.963 40.23C187.963 41.658 187.435 42.858 186.379 43.83C185.323 44.79 183.961 45.27 182.293 45.27C180.613 45.27 179.245 44.79 178.189 43.83ZM181.249 38.916C180.985 39.228 180.853 39.666 180.853 40.23C180.853 40.794 180.985 41.238 181.249 41.562C181.525 41.874 181.873 42.03 182.293 42.03C182.713 42.03 183.055 41.874 183.319 41.562C183.595 41.238 183.733 40.794 183.733 40.23C183.733 39.666 183.595 39.228 183.319 38.916C183.055 38.592 182.713 38.43 182.293 38.43C181.873 38.43 181.525 38.592 181.249 38.916ZM189.397 45V35.46H194.707L196.057 39.51H196.237L197.587 35.46H202.897V45H198.757V41.13L199.027 39.78H198.847L197.587 43.02H194.707L193.447 39.78H193.267L193.537 41.13V45H189.397Z" fill="#404040"/>
<path d="M24 122.404C24 122.771 23.799 123.109 23.4763 123.284L12.4763 129.242C12.1792 129.403 11.8208 129.403 11.5237 129.242L0.523717 123.284C0.201023 123.109 0 122.771 0 122.404L0 110.596C0 110.229 0.201023 109.891 0.523717 109.716L11.5237 103.758C11.8208 103.597 12.1792 103.597 12.4763 103.758L23.4763 109.716C23.799 109.891 24 110.229 24 110.596V122.404Z" fill="#5D74F2"/>
<path d="M66.9805 108.28C65.5005 106.853 64.7605 105.093 64.7605 103C64.7605 100.907 65.5005 99.1533 66.9805 97.74C68.4739 96.3133 70.4005 95.6 72.7605 95.6C75.3872 95.6 77.4539 96.5667 78.9605 98.5C79.5872 99.3533 80.0539 100.32 80.3605 101.4H75.3605C75.2272 101.093 75.0405 100.827 74.8005 100.6C74.2672 100.067 73.5872 99.8 72.7605 99.8C71.9472 99.8 71.2739 100.087 70.7405 100.66C70.2205 101.233 69.9605 102.013 69.9605 103C69.9605 103.987 70.2205 104.767 70.7405 105.34C71.2739 105.913 71.9472 106.2 72.7605 106.2C73.6805 106.2 74.4072 105.867 74.9405 105.2C75.1939 104.88 75.3672 104.547 75.4605 104.2H80.4605C80.1539 105.373 79.6805 106.407 79.0405 107.3C77.5339 109.367 75.4405 110.4 72.7605 110.4C70.4005 110.4 68.4739 109.693 66.9805 108.28ZM82.4551 110V96H96.4551V110H91.4551V100.4H87.4551V110H82.4551ZM99.0613 110V96H104.061V110H99.0613ZM106.664 110V96H114.864C116.397 96 117.564 96.3133 118.364 96.94C119.164 97.5667 119.564 98.3867 119.564 99.4C119.564 100.307 119.177 101.067 118.404 101.68C118.03 101.96 117.65 102.167 117.264 102.3V102.5C117.784 102.647 118.25 102.853 118.664 103.12C119.597 103.76 120.064 104.687 120.064 105.9C120.064 107.113 119.59 108.1 118.644 108.86C117.697 109.62 116.337 110 114.564 110H106.664ZM111.664 101.3H113.264C113.664 101.3 113.944 101.233 114.104 101.1C114.277 100.953 114.364 100.72 114.364 100.4C114.364 100.08 114.277 99.8533 114.104 99.72C113.944 99.5733 113.664 99.5 113.264 99.5H111.664V101.3ZM111.664 106.5H113.664C114.53 106.5 114.964 106.133 114.964 105.4C114.964 104.667 114.53 104.3 113.664 104.3H111.664V106.5ZM122.157 110V96H134.557V99.6H127.157V100.8H130.257C132.003 100.8 133.357 101.213 134.317 102.04C135.277 102.867 135.757 103.953 135.757 105.3C135.757 106.74 135.277 107.887 134.317 108.74C133.37 109.58 132.017 110 130.257 110H122.157ZM127.157 106.4H129.557C129.903 106.4 130.17 106.313 130.357 106.14C130.557 105.953 130.657 105.707 130.657 105.4C130.657 105.093 130.557 104.853 130.357 104.68C130.17 104.493 129.903 104.4 129.557 104.4H127.157V106.4ZM137.747 110V96H149.247V100H142.747V101.3H147.847V104.7H142.747V106H149.247V110H137.747ZM153.161 108.28C151.681 106.853 150.941 105.093 150.941 103C150.941 100.907 151.681 99.1533 153.161 97.74C154.654 96.3133 156.581 95.6 158.941 95.6C161.568 95.6 163.634 96.5667 165.141 98.5C165.768 99.3533 166.234 100.32 166.541 101.4H161.541C161.408 101.093 161.221 100.827 160.981 100.6C160.448 100.067 159.768 99.8 158.941 99.8C158.128 99.8 157.454 100.087 156.921 100.66C156.401 101.233 156.141 102.013 156.141 103C156.141 103.987 156.401 104.767 156.921 105.34C157.454 105.913 158.128 106.2 158.941 106.2C159.861 106.2 160.588 105.867 161.121 105.2C161.374 104.88 161.548 104.547 161.641 104.2H166.641C166.334 105.373 165.861 106.407 165.221 107.3C163.714 109.367 161.621 110.4 158.941 110.4C156.581 110.4 154.654 109.693 153.161 108.28ZM168.636 110V96H173.636V110H168.636ZM175.138 112.4V106H176.638L179.238 96H187.338L189.838 106H191.338V112.4H186.738V110H179.738V112.4H175.138ZM181.238 106H185.138L183.738 100H182.738L181.238 106ZM191.444 110L195.344 96H203.244L207.044 110H202.044L201.344 107.4H197.044L196.344 110H191.444ZM197.844 103.9H200.544L199.644 100.2H198.844L197.844 103.9Z" fill="#5D74F2"/>
<path d="M64.36 132.76H68.5C68.548 132.868 68.626 132.988 68.734 133.12C68.926 133.36 69.208 133.48 69.58 133.48C70.18 133.48 70.48 133.264 70.48 132.832C70.48 132.424 70.144 132.22 69.472 132.22H68.248V130.06H69.4C69.94 130.06 70.21 129.886 70.21 129.538C70.21 129.166 69.97 128.98 69.49 128.98C69.238 128.98 69.022 129.07 68.842 129.25C68.77 129.334 68.716 129.424 68.68 129.52H64.54C64.696 128.896 64.99 128.344 65.422 127.864C66.418 126.748 67.864 126.19 69.76 126.19C71.272 126.19 72.412 126.454 73.18 126.982C73.96 127.51 74.35 128.146 74.35 128.89C74.35 129.598 74.062 130.144 73.486 130.528C73.21 130.708 72.928 130.822 72.64 130.87V131.05C72.988 131.122 73.318 131.248 73.63 131.428C74.29 131.896 74.62 132.52 74.62 133.3C74.62 134.056 74.218 134.74 73.414 135.352C72.622 135.964 71.374 136.27 69.67 136.27C67.702 136.27 66.232 135.688 65.26 134.524C64.816 133.984 64.516 133.396 64.36 132.76ZM81.5591 136V123.4H86.0591V127.72H89.6591V123.4H94.1591V136H89.6591V131.68H86.0591V136H81.5591ZM96.5048 136V123.4H103.525C105.121 123.4 106.387 123.838 107.323 124.714C108.271 125.578 108.745 126.7 108.745 128.08C108.745 129.232 108.385 130.168 107.665 130.888C107.353 131.224 106.993 131.488 106.585 131.68L108.925 136H104.425L102.625 132.58H101.005V136H96.5048ZM101.005 129.16H102.985C103.345 129.16 103.627 129.064 103.831 128.872C104.047 128.668 104.155 128.404 104.155 128.08C104.155 127.756 104.047 127.498 103.831 127.306C103.627 127.102 103.345 127 102.985 127H101.005V129.16Z" fill="#404040"/>
<path d="M24 247.904C24 248.271 23.799 248.609 23.4763 248.784L12.4763 254.742C12.1792 254.903 11.8208 254.903 11.5237 254.742L0.523717 248.784C0.201023 248.609 0 248.271 0 247.904L0 236.096C0 235.729 0.201023 235.391 0.523717 235.216L11.5237 229.258C11.8208 229.097 12.1792 229.097 12.4763 229.258L23.4763 235.216C23.799 235.391 24 235.729 24 236.096V247.904Z" fill="#5D74F2"/>
<path d="M65.2 201V187H79.2V201H74.2V191.4H70.2V201H65.2ZM81.8063 201V187H93.3063V191H86.8063V192.3H91.9063V195.7H86.8063V197H93.3063V201H81.8063ZM95.6 201V187H103.2C105.013 187 106.467 187.507 107.56 188.52C108.653 189.533 109.2 190.827 109.2 192.4C109.2 193.973 108.653 195.267 107.56 196.28C106.467 197.293 105.013 197.8 103.2 197.8H100.6V201H95.6ZM100.6 193.8H102.6C103.04 193.8 103.4 193.667 103.68 193.4C103.96 193.133 104.1 192.8 104.1 192.4C104.1 192 103.96 191.667 103.68 191.4C103.4 191.133 103.04 191 102.6 191H100.6V193.8ZM111.093 201V187H122.593V191H116.093V192.3H121.193V195.7H116.093V197H122.593V201H111.093ZM124.887 201V187H133.087C134.62 187 135.787 187.313 136.587 187.94C137.387 188.567 137.787 189.387 137.787 190.4C137.787 191.307 137.4 192.067 136.627 192.68C136.253 192.96 135.873 193.167 135.487 193.3V193.5C136.007 193.647 136.473 193.853 136.887 194.12C137.82 194.76 138.287 195.687 138.287 196.9C138.287 198.113 137.813 199.1 136.867 199.86C135.92 200.62 134.56 201 132.787 201H124.887ZM129.887 192.3H131.487C131.887 192.3 132.167 192.233 132.327 192.1C132.5 191.953 132.587 191.72 132.587 191.4C132.587 191.08 132.5 190.853 132.327 190.72C132.167 190.573 131.887 190.5 131.487 190.5H129.887V192.3ZM129.887 197.5H131.887C132.753 197.5 133.187 197.133 133.187 196.4C133.187 195.667 132.753 195.3 131.887 195.3H129.887V197.5ZM140.38 201V187H145.38V201H140.38ZM147.982 201V187H155.582C157.395 187 158.849 187.507 159.942 188.52C161.035 189.533 161.582 190.827 161.582 192.4C161.582 193.973 161.035 195.267 159.942 196.28C158.849 197.293 157.395 197.8 155.582 197.8H152.982V201H147.982ZM152.982 193.8H154.982C155.422 193.8 155.782 193.667 156.062 193.4C156.342 193.133 156.482 192.8 156.482 192.4C156.482 192 156.342 191.667 156.062 191.4C155.782 191.133 155.422 191 154.982 191H152.982V193.8ZM163.475 201V187H168.475V191.6H169.475L172.075 187H177.675L173.675 193.5L178.075 201H172.475L169.675 196.1H168.475V201H163.475ZM178.076 201L181.976 187H189.876L193.676 201H188.676L187.976 198.4H183.676L182.976 201H178.076ZM184.476 194.9H187.176L186.276 191.2H185.476L184.476 194.9Z" fill="#5D74F2"/>
<path d="M64.81 230.42V217.46H68.95V218.72H69.13C69.286 218.432 69.502 218.18 69.778 217.964C70.39 217.448 71.104 217.19 71.92 217.19C73.048 217.19 73.99 217.64 74.746 218.54C75.502 219.44 75.88 220.67 75.88 222.23C75.88 223.79 75.502 225.02 74.746 225.92C73.99 226.82 73.048 227.27 71.92 227.27C71.092 227.27 70.378 227.018 69.778 226.514C69.502 226.298 69.286 226.04 69.13 225.74H68.95V230.42H64.81ZM69.328 220.988C69.076 221.3 68.95 221.714 68.95 222.23C68.95 222.746 69.076 223.16 69.328 223.472C69.592 223.784 69.91 223.94 70.282 223.94C70.666 223.94 70.99 223.79 71.254 223.49C71.518 223.178 71.65 222.758 71.65 222.23C71.65 221.702 71.518 221.288 71.254 220.988C70.99 220.676 70.666 220.52 70.282 220.52C69.91 220.52 69.592 220.676 69.328 220.988ZM77.9037 216.218C77.5197 215.858 77.3277 215.402 77.3277 214.85C77.3277 214.298 77.5197 213.848 77.9037 213.5C78.2877 213.14 78.8157 212.96 79.4877 212.96C80.1597 212.96 80.6877 213.14 81.0717 213.5C81.4557 213.848 81.6477 214.298 81.6477 214.85C81.6477 215.402 81.4557 215.858 81.0717 216.218C80.6877 216.566 80.1597 216.74 79.4877 216.74C78.8157 216.74 78.2877 216.566 77.9037 216.218ZM77.4177 227V217.46H81.5577V227H77.4177ZM83.3634 227V217.46H89.4834C92.0034 217.46 93.2634 218.24 93.2634 219.8C93.2634 220.436 92.9634 220.958 92.3634 221.366C92.0754 221.558 91.7754 221.696 91.4634 221.78V221.96C91.8954 222.032 92.2554 222.164 92.5434 222.356C93.2634 222.8 93.6234 223.448 93.6234 224.3C93.6234 225.128 93.2754 225.788 92.5794 226.28C91.8834 226.76 90.7914 227 89.3034 227H83.3634ZM87.5034 221.15H88.4034C88.8834 221.15 89.1234 220.91 89.1234 220.43C89.1234 219.95 88.8834 219.71 88.4034 219.71H87.5034V221.15ZM87.5034 224.75H88.5834C89.1834 224.75 89.4834 224.48 89.4834 223.94C89.4834 223.4 89.1834 223.13 88.5834 223.13H87.5034V224.75ZM95.1449 227V217.46H99.2849V220.52H101.445V217.46H105.585V227H101.445V223.94H99.2849V227H95.1449ZM106.844 227L108.914 223.49C108.614 223.334 108.356 223.13 108.14 222.878C107.636 222.302 107.384 221.576 107.384 220.7C107.384 219.764 107.744 218.99 108.464 218.378C109.184 217.766 110.174 217.46 111.434 217.46H117.104V227H112.964V224.21H112.514L111.074 227H106.844ZM111.758 220.232C111.602 220.388 111.524 220.604 111.524 220.88C111.524 221.156 111.602 221.378 111.758 221.546C111.914 221.702 112.106 221.78 112.334 221.78H113.054V219.98H112.334C112.106 219.98 111.914 220.064 111.758 220.232ZM124.99 225.92C124.234 225.02 123.856 223.79 123.856 222.23C123.856 220.67 124.234 219.44 124.99 218.54C125.746 217.64 126.688 217.19 127.816 217.19C128.632 217.19 129.346 217.448 129.958 217.964C130.234 218.18 130.45 218.432 130.606 218.72H130.786V217.46H134.926V227H130.786V225.74H130.606C130.45 226.04 130.234 226.298 129.958 226.514C129.358 227.018 128.644 227.27 127.816 227.27C126.688 227.27 125.746 226.82 124.99 225.92ZM128.482 220.988C128.218 221.288 128.086 221.702 128.086 222.23C128.086 222.758 128.218 223.178 128.482 223.49C128.746 223.79 129.07 223.94 129.454 223.94C129.826 223.94 130.138 223.784 130.39 223.472C130.654 223.16 130.786 222.746 130.786 222.23C130.786 221.714 130.654 221.3 130.39 220.988C130.138 220.676 129.826 220.52 129.454 220.52C129.07 220.52 128.746 220.676 128.482 220.988ZM136.734 227V217.46H140.874V220.52H143.034V217.46H147.174V227H143.034V223.94H140.874V227H136.734ZM148.973 227V217.46H157.253V220.88H153.113V227H148.973ZM157.167 227L159.417 217.46H166.257L168.507 227H164.367L163.017 220.7H162.657L161.307 227H157.167ZM169.981 216.218C169.597 215.858 169.405 215.402 169.405 214.85C169.405 214.298 169.597 213.848 169.981 213.5C170.365 213.14 170.893 212.96 171.565 212.96C172.237 212.96 172.765 213.14 173.149 213.5C173.533 213.848 173.725 214.298 173.725 214.85C173.725 215.402 173.533 215.858 173.149 216.218C172.765 216.566 172.237 216.74 171.565 216.74C170.893 216.74 170.365 216.566 169.981 216.218ZM169.495 227V217.46H173.635V227H169.495ZM175.44 227V217.46H179.58V220.34L179.31 221.69H179.49L181.92 217.46H186.06V227H181.92V224.12L182.19 222.77H182.01L179.58 227H175.44ZM177.78 213.95H179.85C179.85 214.166 179.928 214.34 180.084 214.472C180.252 214.604 180.474 214.67 180.75 214.67C181.026 214.67 181.242 214.604 181.398 214.472C181.566 214.34 181.65 214.166 181.65 213.95H183.72C183.72 214.778 183.456 215.438 182.928 215.93C182.412 216.41 181.686 216.65 180.75 216.65C179.814 216.65 179.082 216.41 178.554 215.93C178.038 215.438 177.78 214.778 177.78 213.95ZM189.043 225.812C188.011 224.84 187.495 223.646 187.495 222.23C187.495 220.814 188.011 219.62 189.043 218.648C190.075 217.676 191.389 217.19 192.985 217.19C195.085 217.19 196.627 217.898 197.611 219.314C198.043 219.95 198.331 220.652 198.475 221.42H194.245C194.185 221.216 194.101 221.054 193.993 220.934C193.741 220.598 193.405 220.43 192.985 220.43C192.601 220.43 192.295 220.58 192.067 220.88C191.839 221.168 191.725 221.618 191.725 222.23C191.725 222.842 191.839 223.298 192.067 223.598C192.295 223.886 192.601 224.03 192.985 224.03C193.417 224.03 193.753 223.868 193.993 223.544C194.101 223.412 194.185 223.244 194.245 223.04H198.475C198.331 223.82 198.043 224.528 197.611 225.164C196.663 226.568 195.121 227.27 192.985 227.27C191.389 227.27 190.075 226.784 189.043 225.812ZM199.918 227V217.46H204.058V220.16H205.588C206.896 220.16 207.91 220.478 208.63 221.114C209.362 221.738 209.728 222.56 209.728 223.58C209.728 224.6 209.362 225.428 208.63 226.064C207.91 226.688 206.896 227 205.588 227H199.918ZM203.968 224.48H204.598C204.91 224.48 205.15 224.402 205.318 224.246C205.498 224.078 205.588 223.856 205.588 223.58C205.588 223.304 205.498 223.088 205.318 222.932C205.15 222.764 204.91 222.68 204.598 222.68H203.968V224.48ZM211.084 227V217.46H215.224V220.61H215.854L217.294 217.46H221.524L219.274 222.05L221.794 227H217.564L216.124 224.03H215.224V227H211.084ZM223.632 225.83C222.588 224.858 222.066 223.658 222.066 222.23C222.066 220.802 222.588 219.608 223.632 218.648C224.688 217.676 226.056 217.19 227.736 217.19C229.404 217.19 230.766 217.676 231.822 218.648C232.878 219.608 233.406 220.802 233.406 222.23C233.406 223.658 232.878 224.858 231.822 225.83C230.766 226.79 229.404 227.27 227.736 227.27C226.056 227.27 224.688 226.79 223.632 225.83ZM226.692 220.916C226.428 221.228 226.296 221.666 226.296 222.23C226.296 222.794 226.428 223.238 226.692 223.562C226.968 223.874 227.316 224.03 227.736 224.03C228.156 224.03 228.498 223.874 228.762 223.562C229.038 223.238 229.176 222.794 229.176 222.23C229.176 221.666 229.038 221.228 228.762 220.916C228.498 220.592 228.156 220.43 227.736 220.43C227.316 220.43 226.968 220.592 226.692 220.916ZM234.84 227V217.46H238.98V227H234.84ZM237.738 216.182C237.426 215.858 237.27 215.444 237.27 214.94C237.27 214.436 237.426 214.028 237.738 213.716C238.062 213.392 238.476 213.23 238.98 213.23C239.484 213.23 239.892 213.392 240.204 213.716C240.528 214.028 240.69 214.436 240.69 214.94C240.69 215.444 240.528 215.858 240.204 216.182C239.892 216.494 239.484 216.65 238.98 216.65C238.476 216.65 238.062 216.494 237.738 216.182ZM233.616 216.182C233.292 215.858 233.13 215.444 233.13 214.94C233.13 214.436 233.292 214.028 233.616 213.716C233.928 213.392 234.336 213.23 234.84 213.23C235.344 213.23 235.752 213.392 236.064 213.716C236.388 214.028 236.55 214.436 236.55 214.94C236.55 215.444 236.388 215.858 236.064 216.182C235.752 216.494 235.344 216.65 234.84 216.65C234.336 216.65 233.928 216.494 233.616 216.182ZM64.36 246.76H68.5C68.548 246.868 68.626 246.988 68.734 247.12C68.926 247.36 69.208 247.48 69.58 247.48C70.18 247.48 70.48 247.264 70.48 246.832C70.48 246.424 70.144 246.22 69.472 246.22H68.248V244.06H69.4C69.94 244.06 70.21 243.886 70.21 243.538C70.21 243.166 69.97 242.98 69.49 242.98C69.238 242.98 69.022 243.07 68.842 243.25C68.77 243.334 68.716 243.424 68.68 243.52H64.54C64.696 242.896 64.99 242.344 65.422 241.864C66.418 240.748 67.864 240.19 69.76 240.19C71.272 240.19 72.412 240.454 73.18 240.982C73.96 241.51 74.35 242.146 74.35 242.89C74.35 243.598 74.062 244.144 73.486 244.528C73.21 244.708 72.928 244.822 72.64 244.87V245.05C72.988 245.122 73.318 245.248 73.63 245.428C74.29 245.896 74.62 246.52 74.62 247.3C74.62 248.056 74.218 248.74 73.414 249.352C72.622 249.964 71.374 250.27 69.67 250.27C67.702 250.27 66.232 249.688 65.26 248.524C64.816 247.984 64.516 247.396 64.36 246.76ZM81.2891 250V240.46H86.5991L87.9491 244.51H88.1291L89.4791 240.46H94.7891V250H90.6491V246.13L90.9191 244.78H90.7391L89.4791 248.02H86.5991L85.3391 244.78H85.1591L85.4291 246.13V250H81.2891ZM97.7743 248.812C96.7423 247.84 96.2263 246.646 96.2263 245.23C96.2263 243.814 96.7423 242.62 97.7743 241.648C98.8063 240.676 100.12 240.19 101.716 240.19C103.312 240.19 104.626 240.676 105.658 241.648C106.69 242.62 107.206 243.814 107.206 245.23V245.5H100.456C100.456 246.76 100.876 247.39 101.716 247.39C102.064 247.39 102.37 247.258 102.634 246.994C102.754 246.85 102.838 246.712 102.886 246.58H107.116C106.9 247.276 106.558 247.894 106.09 248.434C105.01 249.658 103.552 250.27 101.716 250.27C100.12 250.27 98.8063 249.784 97.7743 248.812ZM100.546 244.33H102.886C102.874 244.138 102.814 243.928 102.706 243.7C102.478 243.28 102.148 243.07 101.716 243.07C101.284 243.07 100.954 243.28 100.726 243.7C100.618 243.928 100.558 244.138 100.546 244.33ZM107.929 243.88V240.46H118.189V243.88H115.129V250H110.989V243.88H107.929ZM120.477 248.83C119.433 247.858 118.911 246.658 118.911 245.23C118.911 243.802 119.433 242.608 120.477 241.648C121.533 240.676 122.901 240.19 124.581 240.19C126.249 240.19 127.611 240.676 128.667 241.648C129.723 242.608 130.251 243.802 130.251 245.23C130.251 246.658 129.723 247.858 128.667 248.83C127.611 249.79 126.249 250.27 124.581 250.27C122.901 250.27 121.533 249.79 120.477 248.83ZM123.537 243.916C123.273 244.228 123.141 244.666 123.141 245.23C123.141 245.794 123.273 246.238 123.537 246.562C123.813 246.874 124.161 247.03 124.581 247.03C125.001 247.03 125.343 246.874 125.607 246.562C125.883 246.238 126.021 245.794 126.021 245.23C126.021 244.666 125.883 244.228 125.607 243.916C125.343 243.592 125.001 243.43 124.581 243.43C124.161 243.43 123.813 243.592 123.537 243.916ZM130.965 251.8V246.76H132.135L133.575 240.46H140.415L141.855 246.76H143.025V251.8H139.155V250H134.835V251.8H130.965ZM136.095 246.85H137.895L137.175 243.7H136.815L136.095 246.85ZM144.099 250V240.46H148.239V243.34L147.969 244.69H148.149L150.579 240.46H154.719V250H150.579V247.12L150.849 245.77H150.669L148.239 250H144.099ZM157.702 248.812C156.67 247.84 156.154 246.646 156.154 245.23C156.154 243.814 156.67 242.62 157.702 241.648C158.734 240.676 160.048 240.19 161.644 240.19C163.744 240.19 165.286 240.898 166.27 242.314C166.702 242.95 166.99 243.652 167.134 244.42H162.904C162.844 244.216 162.76 244.054 162.652 243.934C162.4 243.598 162.064 243.43 161.644 243.43C161.26 243.43 160.954 243.58 160.726 243.88C160.498 244.168 160.384 244.618 160.384 245.23C160.384 245.842 160.498 246.298 160.726 246.598C160.954 246.886 161.26 247.03 161.644 247.03C162.076 247.03 162.412 246.868 162.652 246.544C162.76 246.412 162.844 246.244 162.904 246.04H167.134C166.99 246.82 166.702 247.528 166.27 248.164C165.322 249.568 163.78 250.27 161.644 250.27C160.048 250.27 158.734 249.784 157.702 248.812ZM167.856 243.88V240.46H178.116V243.88H175.056V250H170.916V243.88H167.856ZM180.404 248.83C179.36 247.858 178.838 246.658 178.838 245.23C178.838 243.802 179.36 242.608 180.404 241.648C181.46 240.676 182.828 240.19 184.508 240.19C186.176 240.19 187.538 240.676 188.594 241.648C189.65 242.608 190.178 243.802 190.178 245.23C190.178 246.658 189.65 247.858 188.594 248.83C187.538 249.79 186.176 250.27 184.508 250.27C182.828 250.27 181.46 249.79 180.404 248.83ZM183.464 243.916C183.2 244.228 183.068 244.666 183.068 245.23C183.068 245.794 183.2 246.238 183.464 246.562C183.74 246.874 184.088 247.03 184.508 247.03C184.928 247.03 185.27 246.874 185.534 246.562C185.81 246.238 185.948 245.794 185.948 245.23C185.948 244.666 185.81 244.228 185.534 243.916C185.27 243.592 184.928 243.43 184.508 243.43C184.088 243.43 183.74 243.592 183.464 243.916ZM191.612 250V240.46H196.922L198.272 244.51H198.452L199.802 240.46H205.112V250H200.972V246.13L201.242 244.78H201.062L199.802 248.02H196.922L195.662 244.78H195.482L195.752 246.13V250H191.612ZM212.998 248.92C212.242 248.02 211.864 246.79 211.864 245.23C211.864 243.67 212.242 242.44 212.998 241.54C213.754 240.64 214.696 240.19 215.824 240.19C216.64 240.19 217.354 240.448 217.966 240.964C218.242 241.18 218.458 241.432 218.614 241.72H218.794V240.46H222.934V250H218.794V248.74H218.614C218.458 249.04 218.242 249.298 217.966 249.514C217.366 250.018 216.652 250.27 215.824 250.27C214.696 250.27 213.754 249.82 212.998 248.92ZM216.49 243.988C216.226 244.288 216.094 244.702 216.094 245.23C216.094 245.758 216.226 246.178 216.49 246.49C216.754 246.79 217.078 246.94 217.462 246.94C217.834 246.94 218.146 246.784 218.398 246.472C218.662 246.16 218.794 245.746 218.794 245.23C218.794 244.714 218.662 244.3 218.398 243.988C218.146 243.676 217.834 243.52 217.462 243.52C217.078 243.52 216.754 243.676 216.49 243.988ZM224.562 244.33C224.562 242.122 225.108 240.418 226.2 239.218C227.292 238.006 228.756 237.4 230.592 237.4H234.552V240.64H231.402C230.442 240.64 229.722 240.832 229.242 241.216C228.762 241.6 228.522 242.128 228.522 242.8H228.702C228.822 242.584 229.008 242.392 229.26 242.224C229.824 241.828 230.508 241.63 231.312 241.63C232.572 241.63 233.592 242.014 234.372 242.782C235.152 243.55 235.542 244.546 235.542 245.77C235.542 247.066 235.056 248.14 234.084 248.992C233.124 249.844 231.81 250.27 230.142 250.27C228.51 250.27 227.172 249.73 226.128 248.65C225.084 247.558 224.562 246.118 224.562 244.33ZM228.792 245.59C228.792 246.034 228.906 246.388 229.134 246.652C229.374 246.904 229.68 247.03 230.052 247.03C230.424 247.03 230.724 246.904 230.952 246.652C231.192 246.388 231.312 246.034 231.312 245.59C231.312 245.182 231.192 244.84 230.952 244.564C230.712 244.288 230.412 244.15 230.052 244.15C229.692 244.15 229.392 244.288 229.152 244.564C228.912 244.84 228.792 245.182 228.792 245.59ZM238.187 248.83C237.143 247.858 236.621 246.658 236.621 245.23C236.621 243.802 237.143 242.608 238.187 241.648C239.243 240.676 240.611 240.19 242.291 240.19C243.959 240.19 245.321 240.676 246.377 241.648C247.433 242.608 247.961 243.802 247.961 245.23C247.961 246.658 247.433 247.858 246.377 248.83C245.321 249.79 243.959 250.27 242.291 250.27C240.611 250.27 239.243 249.79 238.187 248.83ZM241.247 243.916C240.983 244.228 240.851 244.666 240.851 245.23C240.851 245.794 240.983 246.238 241.247 246.562C241.523 246.874 241.871 247.03 242.291 247.03C242.711 247.03 243.053 246.874 243.317 246.562C243.593 246.238 243.731 245.794 243.731 245.23C243.731 244.666 243.593 244.228 243.317 243.916C243.053 243.592 242.711 243.43 242.291 243.43C241.871 243.43 241.523 243.592 241.247 243.916ZM64.36 268.77H68.86C68.932 269.046 69.046 269.274 69.202 269.454C69.55 269.898 70.066 270.12 70.75 270.12C71.65 270.12 72.1 269.88 72.1 269.4C72.1 269.256 72.046 269.13 71.938 269.022C71.83 268.902 71.65 268.794 71.398 268.698C71.146 268.602 70.912 268.524 70.696 268.464C70.48 268.392 70.168 268.308 69.76 268.212C69.304 268.104 68.926 268.008 68.626 267.924C68.326 267.828 67.954 267.702 67.51 267.546C67.066 267.378 66.7 267.198 66.412 267.006C66.124 266.802 65.836 266.562 65.548 266.286C65.272 265.998 65.062 265.662 64.918 265.278C64.786 264.894 64.72 264.468 64.72 264C64.72 262.944 65.23 262.02 66.25 261.228C67.282 260.436 68.692 260.04 70.48 260.04C72.664 260.04 74.308 260.748 75.412 262.164C75.88 262.776 76.216 263.478 76.42 264.27H71.92C71.884 264.078 71.806 263.916 71.686 263.784C71.434 263.448 71.062 263.28 70.57 263.28C69.79 263.28 69.4 263.49 69.4 263.91C69.4 264.102 69.55 264.258 69.85 264.378C70.15 264.486 70.642 264.612 71.326 264.756C71.734 264.852 72.022 264.924 72.19 264.972C72.358 265.008 72.652 265.08 73.072 265.188C73.492 265.296 73.804 265.404 74.008 265.512C74.224 265.608 74.5 265.74 74.836 265.908C75.184 266.076 75.448 266.256 75.628 266.448C75.82 266.64 76.012 266.862 76.204 267.114C76.408 267.366 76.552 267.654 76.636 267.978C76.732 268.302 76.78 268.656 76.78 269.04C76.78 270.24 76.246 271.26 75.178 272.1C74.11 272.94 72.634 273.36 70.75 273.36C68.338 273.36 66.562 272.598 65.422 271.074C64.918 270.438 64.564 269.67 64.36 268.77ZM79.3264 271.812C78.2944 270.84 77.7784 269.646 77.7784 268.23C77.7784 266.814 78.2944 265.62 79.3264 264.648C80.3584 263.676 81.6724 263.19 83.2684 263.19C84.8644 263.19 86.1784 263.676 87.2104 264.648C88.2424 265.62 88.7584 266.814 88.7584 268.23V268.5H82.0084C82.0084 269.76 82.4284 270.39 83.2684 270.39C83.6164 270.39 83.9224 270.258 84.1864 269.994C84.3064 269.85 84.3904 269.712 84.4384 269.58H88.6684C88.4524 270.276 88.1104 270.894 87.6424 271.434C86.5624 272.658 85.1044 273.27 83.2684 273.27C81.6724 273.27 80.3584 272.784 79.3264 271.812ZM82.0984 267.33H84.4384C84.4264 267.138 84.3664 266.928 84.2584 266.7C84.0304 266.28 83.7004 266.07 83.2684 266.07C82.8364 266.07 82.5064 266.28 82.2784 266.7C82.1704 266.928 82.1104 267.138 82.0984 267.33ZM90.2013 273V263.46H94.3413V264.81H94.5213C94.6893 264.51 94.9173 264.24 95.2053 264C95.8413 263.46 96.5433 263.19 97.3113 263.19C98.3793 263.19 99.2133 263.526 99.8133 264.198C100.425 264.858 100.731 265.812 100.731 267.06V273H96.5913V267.78C96.5913 267.408 96.5013 267.12 96.3213 266.916C96.1413 266.712 95.9013 266.61 95.6013 266.61C95.2293 266.61 94.9233 266.742 94.6833 267.006C94.4553 267.258 94.3413 267.606 94.3413 268.05V273H90.2013ZM102.926 262.218C102.542 261.858 102.35 261.402 102.35 260.85C102.35 260.298 102.542 259.848 102.926 259.5C103.31 259.14 103.838 258.96 104.51 258.96C105.182 258.96 105.71 259.14 106.094 259.5C106.478 259.848 106.67 260.298 106.67 260.85C106.67 261.402 106.478 261.858 106.094 262.218C105.71 262.566 105.182 262.74 104.51 262.74C103.838 262.74 103.31 262.566 102.926 262.218ZM102.44 273V263.46H106.58V273H102.44ZM109.591 271.83C108.547 270.858 108.025 269.658 108.025 268.23C108.025 266.802 108.547 265.608 109.591 264.648C110.647 263.676 112.015 263.19 113.695 263.19C115.363 263.19 116.725 263.676 117.781 264.648C118.837 265.608 119.365 266.802 119.365 268.23C119.365 269.658 118.837 270.858 117.781 271.83C116.725 272.79 115.363 273.27 113.695 273.27C112.015 273.27 110.647 272.79 109.591 271.83ZM112.651 266.916C112.387 267.228 112.255 267.666 112.255 268.23C112.255 268.794 112.387 269.238 112.651 269.562C112.927 269.874 113.275 270.03 113.695 270.03C114.115 270.03 114.457 269.874 114.721 269.562C114.997 269.238 115.135 268.794 115.135 268.23C115.135 267.666 114.997 267.228 114.721 266.916C114.457 266.592 114.115 266.43 113.695 266.43C113.275 266.43 112.927 266.592 112.651 266.916ZM120.8 273V263.46H124.76V264.9H124.94C125.048 264.612 125.204 264.342 125.408 264.09C125.852 263.55 126.416 263.28 127.1 263.28H127.91V267.24H126.182C125.738 267.24 125.42 267.336 125.228 267.528C125.036 267.708 124.94 268.002 124.94 268.41V273H120.8ZM128.993 269.76V266.52H136.553V269.76H128.993ZM64.81 296V286.46H70.93C73.45 286.46 74.71 287.24 74.71 288.8C74.71 289.436 74.41 289.958 73.81 290.366C73.522 290.558 73.222 290.696 72.91 290.78V290.96C73.342 291.032 73.702 291.164 73.99 291.356C74.71 291.8 75.07 292.448 75.07 293.3C75.07 294.128 74.722 294.788 74.026 295.28C73.33 295.76 72.238 296 70.75 296H64.81ZM68.95 290.15H69.85C70.33 290.15 70.57 289.91 70.57 289.43C70.57 288.95 70.33 288.71 69.85 288.71H68.95V290.15ZM68.95 293.75H70.03C70.63 293.75 70.93 293.48 70.93 292.94C70.93 292.4 70.63 292.13 70.03 292.13H68.95V293.75ZM76.5916 296V286.46H80.7316V289.34L80.4616 290.69H80.6416L83.0716 286.46H87.2116V296H83.0716V293.12L83.3416 291.77H83.1616L80.7316 296H76.5916ZM89.0059 296V286.46H93.1459V289.61H93.7759L95.2159 286.46H99.4459L97.1959 291.05L99.7159 296H95.4859L94.0459 293.03H93.1459V296H89.0059ZM99.8896 296L102.14 286.46H108.98L111.23 296H107.09L105.74 289.7H105.38L104.03 296H99.8896ZM113.082 294.92C112.326 294.02 111.948 292.79 111.948 291.23C111.948 289.67 112.326 288.44 113.082 287.54C113.838 286.64 114.78 286.19 115.908 286.19C116.724 286.19 117.438 286.448 118.05 286.964C118.326 287.18 118.542 287.432 118.698 287.72H118.878V286.46H123.018V296H118.878V294.74H118.698C118.542 295.04 118.326 295.298 118.05 295.514C117.45 296.018 116.736 296.27 115.908 296.27C114.78 296.27 113.838 295.82 113.082 294.92ZM116.574 289.988C116.31 290.288 116.178 290.702 116.178 291.23C116.178 291.758 116.31 292.178 116.574 292.49C116.838 292.79 117.162 292.94 117.546 292.94C117.918 292.94 118.23 292.784 118.482 292.472C118.746 292.16 118.878 291.746 118.878 291.23C118.878 290.714 118.746 290.3 118.482 289.988C118.23 289.676 117.918 289.52 117.546 289.52C117.162 289.52 116.838 289.676 116.574 289.988ZM124.105 297.8V292.76H125.275L126.715 286.46H133.555L134.995 292.76H136.165V297.8H132.295V296H127.975V297.8H124.105ZM129.235 292.85H131.035L130.315 289.7H129.955L129.235 292.85ZM138.104 294.92C137.348 294.02 136.97 292.79 136.97 291.23C136.97 289.67 137.348 288.44 138.104 287.54C138.86 286.64 139.802 286.19 140.93 286.19C141.746 286.19 142.46 286.448 143.072 286.964C143.348 287.18 143.564 287.432 143.72 287.72H143.9V286.46H148.04V296H143.9V294.74H143.72C143.564 295.04 143.348 295.298 143.072 295.514C142.472 296.018 141.758 296.27 140.93 296.27C139.802 296.27 138.86 295.82 138.104 294.92ZM141.596 289.988C141.332 290.288 141.2 290.702 141.2 291.23C141.2 291.758 141.332 292.178 141.596 292.49C141.86 292.79 142.184 292.94 142.568 292.94C142.94 292.94 143.252 292.784 143.504 292.472C143.768 292.16 143.9 291.746 143.9 291.23C143.9 290.714 143.768 290.3 143.504 289.988C143.252 289.676 142.94 289.52 142.568 289.52C142.184 289.52 141.86 289.676 141.596 289.988ZM149.667 290.15V286.46H153.807V289.61C153.807 290.21 154.107 290.51 154.707 290.51C154.959 290.51 155.163 290.468 155.319 290.384C155.331 290.372 155.361 290.354 155.409 290.33C155.457 290.294 155.493 290.264 155.517 290.24V286.46H159.657V296H155.517V293.48C155.289 293.6 155.085 293.678 154.905 293.714C154.437 293.858 153.891 293.93 153.267 293.93C152.199 293.93 151.329 293.6 150.657 292.94C149.997 292.268 149.667 291.338 149.667 290.15ZM162.641 294.812C161.609 293.84 161.093 292.646 161.093 291.23C161.093 289.814 161.609 288.62 162.641 287.648C163.673 286.676 164.987 286.19 166.583 286.19C168.179 286.19 169.493 286.676 170.525 287.648C171.557 288.62 172.073 289.814 172.073 291.23V291.5H165.323C165.323 292.76 165.743 293.39 166.583 293.39C166.931 293.39 167.237 293.258 167.501 292.994C167.621 292.85 167.705 292.712 167.753 292.58H171.983C171.767 293.276 171.425 293.894 170.957 294.434C169.877 295.658 168.419 296.27 166.583 296.27C164.987 296.27 163.673 295.784 162.641 294.812ZM165.413 290.33H167.753C167.741 290.138 167.681 289.928 167.573 289.7C167.345 289.28 167.015 289.07 166.583 289.07C166.151 289.07 165.821 289.28 165.593 289.7C165.485 289.928 165.425 290.138 165.413 290.33ZM173.516 296V286.46H178.826L180.176 290.51H180.356L181.706 286.46H187.016V296H182.876V292.13L183.146 290.78H182.966L181.706 294.02H178.826L177.566 290.78H177.386L177.656 292.13V296H173.516Z" fill="#404040"/>
<path d="M24 350.404C24 350.771 23.799 351.109 23.4763 351.284L12.4763 357.242C12.1792 357.403 11.8208 357.403 11.5237 357.242L0.523717 351.284C0.201023 351.109 0 350.771 0 350.404L0 338.596C0 338.229 0.201023 337.891 0.523717 337.716L11.5237 331.758C11.8208 331.597 12.1792 331.597 12.4763 331.758L23.4763 337.716C23.799 337.891 24 338.229 24 338.596V350.404Z" fill="#5D74F2"/>
<path d="M64.8961 333.1H69.8961C70.0161 333.393 70.1494 333.627 70.2961 333.8C70.6694 334.267 71.2028 334.5 71.8961 334.5C73.0961 334.5 73.6961 334.133 73.6961 333.4C73.6961 332.667 73.0961 332.3 71.8961 332.3H69.9961V329.3H71.8961C72.3228 329.3 72.6428 329.22 72.8561 329.06C73.0828 328.887 73.1961 328.667 73.1961 328.4C73.1961 328.133 73.0828 327.92 72.8561 327.76C72.6428 327.587 72.3228 327.5 71.8961 327.5C71.3761 327.5 70.9494 327.667 70.6161 328C70.4561 328.16 70.3494 328.327 70.2961 328.5H65.2961C65.5228 327.567 65.9161 326.753 66.4761 326.06C67.7694 324.42 69.7094 323.6 72.2961 323.6C74.3228 323.6 75.8628 323.973 76.9161 324.72C77.9694 325.467 78.4961 326.36 78.4961 327.4C78.4961 328.347 78.0961 329.12 77.2961 329.72C76.9894 329.96 76.5894 330.153 76.0961 330.3V330.5C76.6161 330.647 77.0828 330.853 77.4961 331.12C78.4294 331.76 78.8961 332.687 78.8961 333.9C78.8961 335.14 78.3028 336.2 77.1161 337.08C75.9294 337.96 74.2561 338.4 72.0961 338.4C69.2694 338.4 67.2294 337.52 65.9761 335.76C65.4161 334.973 65.0561 334.087 64.8961 333.1ZM79.4961 338L83.3961 324H91.2961L95.0961 338H90.0961L89.3961 335.4H85.0961L84.3961 338H79.4961ZM85.8961 331.9H88.5961L87.6961 328.2H86.8961L85.8961 331.9ZM96.2914 338V324H110.291V338H105.291V328.4H101.291V338H96.2914ZM112.898 338V324H120.498C122.311 324 123.764 324.507 124.858 325.52C125.951 326.533 126.498 327.827 126.498 329.4C126.498 330.973 125.951 332.267 124.858 333.28C123.764 334.293 122.311 334.8 120.498 334.8H117.898V338H112.898ZM117.898 330.8H119.898C120.338 330.8 120.698 330.667 120.978 330.4C121.258 330.133 121.398 329.8 121.398 329.4C121.398 329 121.258 328.667 120.978 328.4C120.698 328.133 120.338 328 119.898 328H117.898V330.8ZM129.991 336.28C128.524 334.867 127.791 333.107 127.791 331C127.791 328.893 128.524 327.133 129.991 325.72C131.457 324.307 133.391 323.6 135.791 323.6C138.191 323.6 140.124 324.307 141.591 325.72C143.057 327.133 143.791 328.893 143.791 331C143.791 333.107 143.057 334.867 141.591 336.28C140.124 337.693 138.191 338.4 135.791 338.4C133.391 338.4 131.457 337.693 129.991 336.28ZM133.771 328.66C133.251 329.233 132.991 330.013 132.991 331C132.991 331.987 133.251 332.767 133.771 333.34C134.304 333.913 134.977 334.2 135.791 334.2C136.604 334.2 137.271 333.913 137.791 333.34C138.324 332.767 138.591 331.987 138.591 331C138.591 330.013 138.324 329.233 137.791 328.66C137.271 328.087 136.604 327.8 135.791 327.8C134.977 327.8 134.304 328.087 133.771 328.66ZM145.798 338V324H150.798V333.6H152.998V324H157.998V333.6H160.198V324H165.198V338H145.798ZM167.795 338V324H179.295V328H172.795V329.3H177.895V332.7H172.795V334H179.295V338H167.795ZM181.588 338V324H186.588V328.8H190.588V324H195.588V338H190.588V333.2H186.588V338H181.588ZM198.195 338V324H203.195V328.8H207.195V324H212.195V338H207.195V333.2H203.195V338H198.195ZM214.501 329.2C214.501 327.667 215.021 326.42 216.061 325.46C217.114 324.487 218.527 324 220.301 324H228.101V338H223.101V334.2H221.401L219.401 338H214.301L216.901 333.2C216.447 332.987 216.047 332.693 215.701 332.32C214.901 331.52 214.501 330.48 214.501 329.2ZM219.601 329.2C219.601 329.56 219.714 329.853 219.941 330.08C220.181 330.293 220.501 330.4 220.901 330.4H223.101V328H220.901C220.514 328 220.201 328.12 219.961 328.36C219.721 328.6 219.601 328.88 219.601 329.2Z" fill="#5D74F2"/>
<path d="M65.0246 364V354.46H71.1446C73.6646 354.46 74.9246 355.24 74.9246 356.8C74.9246 357.436 74.6246 357.958 74.0246 358.366C73.7366 358.558 73.4366 358.696 73.1246 358.78V358.96C73.5566 359.032 73.9166 359.164 74.2046 359.356C74.9246 359.8 75.2846 360.448 75.2846 361.3C75.2846 362.128 74.9366 362.788 74.2406 363.28C73.5446 363.76 72.4526 364 70.9646 364H65.0246ZM69.1646 358.15H70.0646C70.5446 358.15 70.7846 357.91 70.7846 357.43C70.7846 356.95 70.5446 356.71 70.0646 356.71H69.1646V358.15ZM69.1646 361.75H70.2446C70.8446 361.75 71.1446 361.48 71.1446 360.94C71.1446 360.4 70.8446 360.13 70.2446 360.13H69.1646V361.75ZM82.0311 364V354.46H86.1711V357.61H86.8011L88.2411 354.46H92.4711L90.2211 359.05L92.7411 364H88.5111L87.0711 361.03H86.1711V364H82.0311ZM94.5792 362.83C93.5352 361.858 93.0132 360.658 93.0132 359.23C93.0132 357.802 93.5352 356.608 94.5792 355.648C95.6352 354.676 97.0032 354.19 98.6832 354.19C100.351 354.19 101.713 354.676 102.769 355.648C103.825 356.608 104.353 357.802 104.353 359.23C104.353 360.658 103.825 361.858 102.769 362.83C101.713 363.79 100.351 364.27 98.6832 364.27C97.0032 364.27 95.6352 363.79 94.5792 362.83ZM97.6392 357.916C97.3752 358.228 97.2432 358.666 97.2432 359.23C97.2432 359.794 97.3752 360.238 97.6392 360.562C97.9152 360.874 98.2632 361.03 98.6832 361.03C99.1032 361.03 99.4452 360.874 99.7092 360.562C99.9852 360.238 100.123 359.794 100.123 359.23C100.123 358.666 99.9852 358.228 99.7092 357.916C99.4452 357.592 99.1032 357.43 98.6832 357.43C98.2632 357.43 97.9152 357.592 97.6392 357.916ZM105.788 364V354.46H111.098L112.448 358.51H112.628L113.978 354.46H119.288V364H115.148V360.13L115.418 358.78H115.238L113.978 362.02H111.098L109.838 358.78H109.658L109.928 360.13V364H105.788ZM121.949 362.92C121.193 362.02 120.815 360.79 120.815 359.23C120.815 357.67 121.193 356.44 121.949 355.54C122.705 354.64 123.647 354.19 124.775 354.19C125.591 354.19 126.305 354.448 126.917 354.964C127.193 355.18 127.409 355.432 127.565 355.72H127.745V354.46H131.885V364H127.745V362.74H127.565C127.409 363.04 127.193 363.298 126.917 363.514C126.317 364.018 125.603 364.27 124.775 364.27C123.647 364.27 122.705 363.82 121.949 362.92ZM125.441 357.988C125.177 358.288 125.045 358.702 125.045 359.23C125.045 359.758 125.177 360.178 125.441 360.49C125.705 360.79 126.029 360.94 126.413 360.94C126.785 360.94 127.097 360.784 127.349 360.472C127.613 360.16 127.745 359.746 127.745 359.23C127.745 358.714 127.613 358.3 127.349 357.988C127.097 357.676 126.785 357.52 126.413 357.52C126.029 357.52 125.705 357.676 125.441 357.988ZM133.692 364V354.46H137.832V357.52H139.992V354.46H144.132V364H139.992V360.94H137.832V364H133.692ZM145.211 365.8V360.76H146.381L147.821 354.46H154.661L156.101 360.76H157.271V365.8H153.401V364H149.081V365.8H145.211ZM150.341 360.85H152.141L151.421 357.7H151.061L150.341 360.85ZM157.452 354.46H161.592L162.942 360.58H163.212L164.562 354.46H168.792L165.39 367.42H161.232L162.222 364H159.792L157.452 354.46Z" fill="#404040"/>
<path d="M24 464.404C24 464.771 23.799 465.109 23.4763 465.284L12.4763 471.242C12.1792 471.403 11.8208 471.403 11.5237 471.242L0.523717 465.284C0.201023 465.109 0 464.771 0 464.404L0 452.596C0 452.229 0.201023 451.891 0.523717 451.716L11.5237 445.758C11.8208 445.597 12.1792 445.597 12.4763 445.758L23.4763 451.716C23.799 451.891 24 452.229 24 452.596V464.404Z" fill="#5D74F2"/>
<path d="M65.2 429V415H79.2V429H74.2V419.4H70.2V429H65.2ZM81.8063 429V415H89.4063C91.2196 415 92.6729 415.507 93.7663 416.52C94.8596 417.533 95.4063 418.827 95.4063 420.4C95.4063 421.973 94.8596 423.267 93.7663 424.28C92.6729 425.293 91.2196 425.8 89.4063 425.8H86.8063V429H81.8063ZM86.8063 421.8H88.8063C89.2463 421.8 89.6063 421.667 89.8863 421.4C90.1663 421.133 90.3063 420.8 90.3063 420.4C90.3063 420 90.1663 419.667 89.8863 419.4C89.6063 419.133 89.2463 419 88.8063 419H86.8063V421.8ZM98.8992 427.28C97.4326 425.867 96.6992 424.107 96.6992 422C96.6992 419.893 97.4326 418.133 98.8992 416.72C100.366 415.307 102.299 414.6 104.699 414.6C107.099 414.6 109.033 415.307 110.499 416.72C111.966 418.133 112.699 419.893 112.699 422C112.699 424.107 111.966 425.867 110.499 427.28C109.033 428.693 107.099 429.4 104.699 429.4C102.299 429.4 100.366 428.693 98.8992 427.28ZM102.679 419.66C102.159 420.233 101.899 421.013 101.899 422C101.899 422.987 102.159 423.767 102.679 424.34C103.213 424.913 103.886 425.2 104.699 425.2C105.513 425.2 106.179 424.913 106.699 424.34C107.233 423.767 107.499 422.987 107.499 422C107.499 421.013 107.233 420.233 106.699 419.66C106.179 419.087 105.513 418.8 104.699 418.8C103.886 418.8 103.213 419.087 102.679 419.66ZM112.801 429L116.201 422L113.201 415H118.401L120.001 419.8H121.001L122.501 415H127.601L124.701 422L128.201 429H122.701L120.801 424.2H120.001L118.201 429H112.801ZM130.491 427.28C129.024 425.867 128.291 424.107 128.291 422C128.291 419.893 129.024 418.133 130.491 416.72C131.957 415.307 133.891 414.6 136.291 414.6C138.691 414.6 140.624 415.307 142.091 416.72C143.557 418.133 144.291 419.893 144.291 422C144.291 424.107 143.557 425.867 142.091 427.28C140.624 428.693 138.691 429.4 136.291 429.4C133.891 429.4 131.957 428.693 130.491 427.28ZM134.271 419.66C133.751 420.233 133.491 421.013 133.491 422C133.491 422.987 133.751 423.767 134.271 424.34C134.804 424.913 135.477 425.2 136.291 425.2C137.104 425.2 137.771 424.913 138.291 424.34C138.824 423.767 139.091 422.987 139.091 422C139.091 421.013 138.824 420.233 138.291 419.66C137.771 419.087 137.104 418.8 136.291 418.8C135.477 418.8 134.804 419.087 134.271 419.66ZM145.198 431.4V425H146.698L149.298 415H157.398L159.898 425H161.398V431.4H156.798V429H149.798V431.4H145.198ZM151.298 425H155.198L153.798 419H152.798L151.298 425ZM161.704 429L165.904 421.5L162.104 415H167.704L170.104 419.8H170.804V415H175.804V419.8H176.504L178.904 415H184.504L180.704 421.5L184.904 429H179.304L176.704 424H175.804V429H170.804V424H169.904L167.304 429H161.704ZM186.307 429V415H197.807V419H191.307V420.3H196.407V423.7H191.307V425H197.807V429H186.307ZM200.101 429V415H205.101V419.8H209.101V415H214.101V429H209.101V424.2H205.101V429H200.101ZM216.707 429V415H221.707V419.8H225.707V415H230.707V429H225.707V424.2H221.707V429H216.707ZM233.013 420.2C233.013 418.667 233.533 417.42 234.573 416.46C235.627 415.487 237.04 415 238.813 415H246.613V429H241.613V425.2H239.913L237.913 429H232.813L235.413 424.2C234.96 423.987 234.56 423.693 234.213 423.32C233.413 422.52 233.013 421.48 233.013 420.2ZM238.113 420.2C238.113 420.56 238.227 420.853 238.453 421.08C238.693 421.293 239.013 421.4 239.413 421.4H241.613V419H239.413C239.027 419 238.713 419.12 238.473 419.36C238.233 419.6 238.113 419.88 238.113 420.2Z" fill="#5D74F2"/>
<path d="M64.72 450.77H69.13C69.178 450.95 69.274 451.13 69.418 451.31C69.706 451.67 70.12 451.85 70.66 451.85C71.104 451.85 71.452 451.736 71.704 451.508C71.968 451.28 72.1 451.004 72.1 450.68C72.1 450.356 71.968 450.08 71.704 449.852C71.452 449.624 71.104 449.51 70.66 449.51H69.22H65.17L65.62 442.4H75.52V445.82H69.58L69.49 447.26H69.67C69.838 447.116 70.024 446.996 70.228 446.9C70.732 446.66 71.386 446.54 72.19 446.54C73.498 446.54 74.572 446.93 75.412 447.71C76.264 448.478 76.69 449.468 76.69 450.68C76.69 452.084 76.174 453.218 75.142 454.082C74.11 454.934 72.616 455.36 70.66 455.36C68.332 455.36 66.658 454.598 65.638 453.074C65.17 452.414 64.864 451.646 64.72 450.77ZM78.0484 451.76V448.52H85.6084V451.76H78.0484ZM86.5984 448.88V445.46H96.8584V448.88H93.7984V455H89.6584V448.88H86.5984ZM97.9398 455V445.46H102.08V448.34L101.81 449.69H101.99L104.42 445.46H108.56V455H104.42V452.12L104.69 450.77H104.51L102.08 455H97.9398ZM114.859 456.8V451.76H116.029L117.469 445.46H124.309L125.749 451.76H126.919V456.8H123.049V455H118.729V456.8H114.859ZM119.989 451.85H121.789L121.069 448.7H120.709L119.989 451.85ZM129.182 453.812C128.15 452.84 127.634 451.646 127.634 450.23C127.634 448.814 128.15 447.62 129.182 446.648C130.214 445.676 131.528 445.19 133.124 445.19C134.72 445.19 136.034 445.676 137.066 446.648C138.098 447.62 138.614 448.814 138.614 450.23V450.5H131.864C131.864 451.76 132.284 452.39 133.124 452.39C133.472 452.39 133.778 452.258 134.042 451.994C134.162 451.85 134.246 451.712 134.294 451.58H138.524C138.308 452.276 137.966 452.894 137.498 453.434C136.418 454.658 134.96 455.27 133.124 455.27C131.528 455.27 130.214 454.784 129.182 453.812ZM131.954 449.33H134.294C134.282 449.138 134.222 448.928 134.114 448.7C133.886 448.28 133.556 448.07 133.124 448.07C132.692 448.07 132.362 448.28 132.134 448.7C132.026 448.928 131.966 449.138 131.954 449.33ZM140.056 455V445.46H144.196V448.52H146.356V445.46H150.496V455H146.356V451.94H144.196V455H140.056ZM152.295 455V445.46H156.435V448.52H158.595V445.46H162.735V455H158.595V451.94H156.435V455H152.295ZM165.74 453.83C164.696 452.858 164.174 451.658 164.174 450.23C164.174 448.802 164.696 447.608 165.74 446.648C166.796 445.676 168.164 445.19 169.844 445.19C171.512 445.19 172.874 445.676 173.93 446.648C174.986 447.608 175.514 448.802 175.514 450.23C175.514 451.658 174.986 452.858 173.93 453.83C172.874 454.79 171.512 455.27 169.844 455.27C168.164 455.27 166.796 454.79 165.74 453.83ZM168.8 448.916C168.536 449.228 168.404 449.666 168.404 450.23C168.404 450.794 168.536 451.238 168.8 451.562C169.076 451.874 169.424 452.03 169.844 452.03C170.264 452.03 170.606 451.874 170.87 451.562C171.146 451.238 171.284 450.794 171.284 450.23C171.284 449.666 171.146 449.228 170.87 448.916C170.606 448.592 170.264 448.43 169.844 448.43C169.424 448.43 169.076 448.592 168.8 448.916ZM176.948 455V445.46H185.228V448.88H181.088V455H176.948ZM187.51 453.83C186.466 452.858 185.944 451.658 185.944 450.23C185.944 448.802 186.466 447.608 187.51 446.648C188.566 445.676 189.934 445.19 191.614 445.19C193.282 445.19 194.644 445.676 195.7 446.648C196.756 447.608 197.284 448.802 197.284 450.23C197.284 451.658 196.756 452.858 195.7 453.83C194.644 454.79 193.282 455.27 191.614 455.27C189.934 455.27 188.566 454.79 187.51 453.83ZM190.57 448.916C190.306 449.228 190.174 449.666 190.174 450.23C190.174 450.794 190.306 451.238 190.57 451.562C190.846 451.874 191.194 452.03 191.614 452.03C192.034 452.03 192.376 451.874 192.64 451.562C192.916 451.238 193.054 450.794 193.054 450.23C193.054 449.666 192.916 449.228 192.64 448.916C192.376 448.592 192.034 448.43 191.614 448.43C191.194 448.43 190.846 448.592 190.57 448.916ZM65.296 467.218C64.912 466.858 64.72 466.402 64.72 465.85C64.72 465.298 64.912 464.848 65.296 464.5C65.68 464.14 66.208 463.96 66.88 463.96C67.552 463.96 68.08 464.14 68.464 464.5C68.848 464.848 69.04 465.298 69.04 465.85C69.04 466.402 68.848 466.858 68.464 467.218C68.08 467.566 67.552 467.74 66.88 467.74C66.208 467.74 65.68 467.566 65.296 467.218ZM64.81 478V468.46H68.95V478H64.81ZM70.7556 478V468.46H74.8956V471.52H77.0556V468.46H81.1956V478H77.0556V474.94H74.8956V478H70.7556ZM82.2742 471.88V468.46H92.5342V471.88H89.4742V478H85.3342V471.88H82.2742ZM94.8036 476.812C93.7716 475.84 93.2556 474.646 93.2556 473.23C93.2556 471.814 93.7716 470.62 94.8036 469.648C95.8356 468.676 97.1496 468.19 98.7456 468.19C100.342 468.19 101.656 468.676 102.688 469.648C103.72 470.62 104.236 471.814 104.236 473.23V473.5H97.4856C97.4856 474.76 97.9056 475.39 98.7456 475.39C99.0936 475.39 99.3996 475.258 99.6636 474.994C99.7836 474.85 99.8676 474.712 99.9156 474.58H104.146C103.93 475.276 103.588 475.894 103.12 476.434C102.04 477.658 100.582 478.27 98.7456 478.27C97.1496 478.27 95.8356 477.784 94.8036 476.812ZM97.5756 472.33H99.9156C99.9036 472.138 99.8436 471.928 99.7356 471.7C99.5076 471.28 99.1776 471.07 98.7456 471.07C98.3136 471.07 97.9836 471.28 97.7556 471.7C97.6476 471.928 97.5876 472.138 97.5756 472.33ZM105.678 478V468.46H109.818V471.52H111.978V468.46H116.118V478H111.978V474.94H109.818V478H105.678ZM119.105 476.812C118.073 475.84 117.557 474.646 117.557 473.23C117.557 471.814 118.073 470.62 119.105 469.648C120.137 468.676 121.451 468.19 123.047 468.19C125.147 468.19 126.689 468.898 127.673 470.314C128.105 470.95 128.393 471.652 128.537 472.42H124.307C124.247 472.216 124.163 472.054 124.055 471.934C123.803 471.598 123.467 471.43 123.047 471.43C122.663 471.43 122.357 471.58 122.129 471.88C121.901 472.168 121.787 472.618 121.787 473.23C121.787 473.842 121.901 474.298 122.129 474.598C122.357 474.886 122.663 475.03 123.047 475.03C123.479 475.03 123.815 474.868 124.055 474.544C124.163 474.412 124.247 474.244 124.307 474.04H128.537C128.393 474.82 128.105 475.528 127.673 476.164C126.725 477.568 125.183 478.27 123.047 478.27C121.451 478.27 120.137 477.784 119.105 476.812ZM129.98 478V468.46H134.12V471.34L133.85 472.69H134.03L136.46 468.46H140.6V478H136.46V475.12L136.73 473.77H136.55L134.12 478H129.98ZM142.394 478V468.46H148.514C151.034 468.46 152.294 469.24 152.294 470.8C152.294 471.436 151.994 471.958 151.394 472.366C151.106 472.558 150.806 472.696 150.494 472.78V472.96C150.926 473.032 151.286 473.164 151.574 473.356C152.294 473.8 152.654 474.448 152.654 475.3C152.654 476.128 152.306 476.788 151.61 477.28C150.914 477.76 149.822 478 148.334 478H142.394ZM146.534 472.15H147.434C147.914 472.15 148.154 471.91 148.154 471.43C148.154 470.95 147.914 470.71 147.434 470.71H146.534V472.15ZM146.534 475.75H147.614C148.214 475.75 148.514 475.48 148.514 474.94C148.514 474.4 148.214 474.13 147.614 474.13H146.534V475.75ZM153.546 468.46H157.686L159.036 474.58H159.306L160.656 468.46H164.886L161.484 481.42H157.326L158.316 478H155.886L153.546 468.46ZM170.644 474.76H174.784C174.832 474.868 174.91 474.988 175.018 475.12C175.21 475.36 175.492 475.48 175.864 475.48C176.464 475.48 176.764 475.264 176.764 474.832C176.764 474.424 176.428 474.22 175.756 474.22H174.532V472.06H175.684C176.224 472.06 176.494 471.886 176.494 471.538C176.494 471.166 176.254 470.98 175.774 470.98C175.522 470.98 175.306 471.07 175.126 471.25C175.054 471.334 175 471.424 174.964 471.52H170.824C170.98 470.896 171.274 470.344 171.706 469.864C172.702 468.748 174.148 468.19 176.044 468.19C177.556 468.19 178.696 468.454 179.464 468.982C180.244 469.51 180.634 470.146 180.634 470.89C180.634 471.598 180.346 472.144 179.77 472.528C179.494 472.708 179.212 472.822 178.924 472.87V473.05C179.272 473.122 179.602 473.248 179.914 473.428C180.574 473.896 180.904 474.52 180.904 475.3C180.904 476.056 180.502 476.74 179.698 477.352C178.906 477.964 177.658 478.27 175.954 478.27C173.986 478.27 172.516 477.688 171.544 476.524C171.1 475.984 170.8 475.396 170.644 474.76ZM183.213 476.92C182.457 476.02 182.079 474.79 182.079 473.23C182.079 471.67 182.457 470.44 183.213 469.54C183.969 468.64 184.911 468.19 186.039 468.19C186.855 468.19 187.569 468.448 188.181 468.964C188.457 469.18 188.673 469.432 188.829 469.72H189.009V468.46H193.149V478H189.009V476.74H188.829C188.673 477.04 188.457 477.298 188.181 477.514C187.581 478.018 186.867 478.27 186.039 478.27C184.911 478.27 183.969 477.82 183.213 476.92ZM186.705 471.988C186.441 472.288 186.309 472.702 186.309 473.23C186.309 473.758 186.441 474.178 186.705 474.49C186.969 474.79 187.293 474.94 187.677 474.94C188.049 474.94 188.361 474.784 188.613 474.472C188.877 474.16 189.009 473.746 189.009 473.23C189.009 472.714 188.877 472.3 188.613 471.988C188.361 471.676 188.049 471.52 187.677 471.52C187.293 471.52 186.969 471.676 186.705 471.988ZM64.81 501V491.46H70.12L71.47 495.51H71.65L73 491.46H78.31V501H74.17V497.13L74.44 495.78H74.26L73 499.02H70.12L68.86 495.78H68.68L68.95 497.13V501H64.81ZM81.2952 499.812C80.2632 498.84 79.7472 497.646 79.7472 496.23C79.7472 494.814 80.2632 493.62 81.2952 492.648C82.3272 491.676 83.6412 491.19 85.2372 491.19C86.8332 491.19 88.1472 491.676 89.1792 492.648C90.2112 493.62 90.7272 494.814 90.7272 496.23V496.5H83.9772C83.9772 497.76 84.3972 498.39 85.2372 498.39C85.5852 498.39 85.8912 498.258 86.1552 497.994C86.2752 497.85 86.3592 497.712 86.4072 497.58H90.6372C90.4212 498.276 90.0792 498.894 89.6112 499.434C88.5312 500.658 87.0732 501.27 85.2372 501.27C83.6412 501.27 82.3272 500.784 81.2952 499.812ZM84.0672 495.33H86.4072C86.3952 495.138 86.3352 494.928 86.2272 494.7C85.9992 494.28 85.6692 494.07 85.2372 494.07C84.8052 494.07 84.4752 494.28 84.2472 494.7C84.1392 494.928 84.0792 495.138 84.0672 495.33ZM91.45 494.88V491.46H101.71V494.88H98.65V501H94.51V494.88H91.45ZM103.997 499.83C102.953 498.858 102.431 497.658 102.431 496.23C102.431 494.802 102.953 493.608 103.997 492.648C105.053 491.676 106.421 491.19 108.101 491.19C109.769 491.19 111.131 491.676 112.187 492.648C113.243 493.608 113.771 494.802 113.771 496.23C113.771 497.658 113.243 498.858 112.187 499.83C111.131 500.79 109.769 501.27 108.101 501.27C106.421 501.27 105.053 500.79 103.997 499.83ZM107.057 494.916C106.793 495.228 106.661 495.666 106.661 496.23C106.661 496.794 106.793 497.238 107.057 497.562C107.333 497.874 107.681 498.03 108.101 498.03C108.521 498.03 108.863 497.874 109.127 497.562C109.403 497.238 109.541 496.794 109.541 496.23C109.541 495.666 109.403 495.228 109.127 494.916C108.863 494.592 108.521 494.43 108.101 494.43C107.681 494.43 107.333 494.592 107.057 494.916ZM114.486 502.8V497.76H115.656L117.096 491.46H123.936L125.376 497.76H126.546V502.8H122.676V501H118.356V502.8H114.486ZM119.616 497.85H121.416L120.696 494.7H120.336L119.616 497.85ZM128.826 499.83C127.782 498.858 127.26 497.658 127.26 496.23C127.26 494.802 127.782 493.608 128.826 492.648C129.882 491.676 131.25 491.19 132.93 491.19C134.598 491.19 135.96 491.676 137.016 492.648C138.072 493.608 138.6 494.802 138.6 496.23C138.6 497.658 138.072 498.858 137.016 499.83C135.96 500.79 134.598 501.27 132.93 501.27C131.25 501.27 129.882 500.79 128.826 499.83ZM131.886 494.916C131.622 495.228 131.49 495.666 131.49 496.23C131.49 496.794 131.622 497.238 131.886 497.562C132.162 497.874 132.51 498.03 132.93 498.03C133.35 498.03 133.692 497.874 133.956 497.562C134.232 497.238 134.37 496.794 134.37 496.23C134.37 495.666 134.232 495.228 133.956 494.916C133.692 494.592 133.35 494.43 132.93 494.43C132.51 494.43 132.162 494.592 131.886 494.916ZM140.035 501V491.46H145.345L146.695 495.51H146.875L148.225 491.46H153.535V501H149.395V497.13L149.665 495.78H149.485L148.225 499.02H145.345L144.085 495.78H143.905L144.175 497.13V501H140.035ZM160.827 501V488.4H165.327V492.54H166.227L168.567 488.4H173.607L170.007 494.25L173.967 501H168.927L166.407 496.59H165.327V501H160.827ZM175.276 499.92C174.52 499.02 174.142 497.79 174.142 496.23C174.142 494.67 174.52 493.44 175.276 492.54C176.032 491.64 176.974 491.19 178.102 491.19C178.918 491.19 179.632 491.448 180.244 491.964C180.52 492.18 180.736 492.432 180.892 492.72H181.072V491.46H185.212V501H181.072V499.74H180.892C180.736 500.04 180.52 500.298 180.244 500.514C179.644 501.018 178.93 501.27 178.102 501.27C176.974 501.27 176.032 500.82 175.276 499.92ZM178.768 494.988C178.504 495.288 178.372 495.702 178.372 496.23C178.372 496.758 178.504 497.178 178.768 497.49C179.032 497.79 179.356 497.94 179.74 497.94C180.112 497.94 180.424 497.784 180.676 497.472C180.94 497.16 181.072 496.746 181.072 496.23C181.072 495.714 180.94 495.3 180.676 494.988C180.424 494.676 180.112 494.52 179.74 494.52C179.356 494.52 179.032 494.676 178.768 494.988ZM186.21 501L188.46 491.46H195.3L197.55 501H193.41L192.06 494.7H191.7L190.35 501H186.21ZM197.728 501L199.978 491.46H206.818L209.068 501H204.928L203.578 494.7H203.218L201.868 501H197.728ZM210.92 499.92C210.164 499.02 209.786 497.79 209.786 496.23C209.786 494.67 210.164 493.44 210.92 492.54C211.676 491.64 212.618 491.19 213.746 491.19C214.562 491.19 215.276 491.448 215.888 491.964C216.164 492.18 216.38 492.432 216.536 492.72H216.716V491.46H220.856V501H216.716V499.74H216.536C216.38 500.04 216.164 500.298 215.888 500.514C215.288 501.018 214.574 501.27 213.746 501.27C212.618 501.27 211.676 500.82 210.92 499.92ZM214.412 494.988C214.148 495.288 214.016 495.702 214.016 496.23C214.016 496.758 214.148 497.178 214.412 497.49C214.676 497.79 215 497.94 215.384 497.94C215.756 497.94 216.068 497.784 216.32 497.472C216.584 497.16 216.716 496.746 216.716 496.23C216.716 495.714 216.584 495.3 216.32 494.988C216.068 494.676 215.756 494.52 215.384 494.52C215 494.52 214.676 494.676 214.412 494.988ZM222.664 501V491.46H226.804V494.52H228.964V491.46H233.104V501H228.964V497.94H226.804V501H222.664ZM235.766 499.92C235.01 499.02 234.632 497.79 234.632 496.23C234.632 494.67 235.01 493.44 235.766 492.54C236.522 491.64 237.464 491.19 238.592 491.19C239.408 491.19 240.122 491.448 240.734 491.964C241.01 492.18 241.226 492.432 241.382 492.72H241.562V491.46H245.702V501H241.562V499.74H241.382C241.226 500.04 241.01 500.298 240.734 500.514C240.134 501.018 239.42 501.27 238.592 501.27C237.464 501.27 236.522 500.82 235.766 499.92ZM239.258 494.988C238.994 495.288 238.862 495.702 238.862 496.23C238.862 496.758 238.994 497.178 239.258 497.49C239.522 497.79 239.846 497.94 240.23 497.94C240.602 497.94 240.914 497.784 241.166 497.472C241.43 497.16 241.562 496.746 241.562 496.23C241.562 495.714 241.43 495.3 241.166 494.988C240.914 494.676 240.602 494.52 240.23 494.52C239.846 494.52 239.522 494.676 239.258 494.988Z" fill="#404040"/>
</svg>
